<svg width="425" height="346" viewBox="0 0 425 346" fill="none" xmlns="http://www.w3.org/2000/svg">
<path d="M245.14 271.264C245.14 271.264 311.321 273.783 353.184 212.894C395.046 152.005 345.789 95.9942 269.697 83.8912C193.605 71.7881 155.695 26.3444 87.8731 61.1313C20.0516 95.9181 57.7406 281.18 245.14 271.264Z" fill="#3A4753"/>
<path opacity="0.4" d="M245.14 271.264C245.14 271.264 311.321 273.783 353.184 212.894C395.046 152.005 345.789 95.9942 269.697 83.8912C193.605 71.7881 155.695 26.3444 87.8731 61.1313C20.0516 95.9181 57.7406 281.18 245.14 271.264Z" fill="white"/>
<path d="M212.508 298.404C300.576 298.404 371.968 294.801 371.968 290.356C371.968 285.912 300.576 282.308 212.508 282.308C124.441 282.308 53.0483 285.912 53.0483 290.356C53.0483 294.801 124.441 298.404 212.508 298.404Z" fill="#3A4753"/>
<path opacity="0.7" d="M212.508 298.404C300.576 298.404 371.968 294.801 371.968 290.356C371.968 285.912 300.576 282.308 212.508 282.308C124.441 282.308 53.0483 285.912 53.0483 290.356C53.0483 294.801 124.441 298.404 212.508 298.404Z" fill="white"/>
<path d="M247.418 78.3621L246.959 81.5314L249.067 82.1404C249.098 83.2268 249.283 84.3066 249.619 85.3582L247.792 86.4377L249.33 89.3787L251.549 89.0396C252.24 89.9676 253.062 90.8268 253.997 91.6L253.07 93.2885L256.215 95.1984L257.915 94.022C259.084 94.5463 260.325 94.9551 261.613 95.24L261.851 97.0738L265.735 97.4544L266.492 95.7313C267.826 95.7064 269.153 95.5554 270.444 95.2815L271.779 96.7624L275.4 95.496L275 93.6968C276.137 93.1335 277.19 92.4647 278.137 91.7038L280.211 92.4581L282.557 89.8977L281.103 88.5137C281.749 87.5653 282.251 86.5569 282.599 85.5104L284.852 85.3167L285.32 82.1473L283.203 81.5314C283.177 80.447 282.991 79.3691 282.65 78.3206L284.486 77.2341L282.939 74.2931L280.729 74.6253C280.035 73.6997 279.21 72.8428 278.273 72.0718L279.191 70.3902L276.02 68.508L274.32 69.6913C273.157 69.173 271.925 68.7644 270.648 68.4734L270.41 66.6396L266.517 66.2659L265.761 67.9821C264.429 68.0088 263.105 68.1621 261.817 68.4388L260.482 66.951L256.87 68.2035L257.278 70.0027C256.146 70.5576 255.096 71.2171 254.15 71.968L252.084 71.2206L249.73 73.781L251.183 75.165C250.54 76.1167 250.038 77.1272 249.687 78.1752L247.418 78.3621ZM256.453 80.9017C256.681 79.3435 257.472 77.8752 258.725 76.6828C259.978 75.4904 261.637 74.6275 263.493 74.2032C265.349 73.779 267.317 73.8125 269.15 74.2996C270.982 74.7867 272.596 75.7053 273.786 76.9394C274.977 78.1734 275.691 79.6673 275.839 81.232C275.986 82.7966 275.56 84.3617 274.614 85.7291C273.669 87.0965 272.246 88.2047 270.526 88.9135C268.806 89.6223 266.867 89.8998 264.953 89.7109V89.7109C262.393 89.458 260.06 88.3886 258.466 86.7371C256.873 85.0857 256.149 82.9871 256.453 80.9017Z" stroke="#263238" stroke-width="1.57112" stroke-linejoin="round"/>
<path d="M145.869 156.35L145.452 159.222L147.365 159.776C147.391 160.76 147.56 161.737 147.866 162.689L146.166 163.672L147.56 166.336L149.566 166.025C150.194 166.864 150.938 167.642 151.785 168.343L150.935 169.872L153.85 171.616L155.389 170.543C156.446 171.021 157.571 171.392 158.738 171.651L158.95 173.311L162.478 173.657L163.158 172.093C164.366 172.073 165.567 171.936 166.736 171.685L167.943 173.035L171.207 171.893L170.85 170.232C171.881 169.721 172.837 169.115 173.698 168.426L175.576 169.118L177.701 166.807L176.384 165.54C176.968 164.681 177.424 163.768 177.744 162.821L179.784 162.641L180.2 159.769L178.288 159.215C178.261 158.232 178.093 157.254 177.786 156.302L179.486 155.319L178.084 152.655L176.086 152.953C175.452 152.117 174.702 151.344 173.851 150.648L174.701 149.119L171.785 147.396L170.238 148.469C169.185 147.995 168.067 147.626 166.906 147.368L166.694 145.708L163.166 145.362L162.486 146.925C161.278 146.947 160.077 147.084 158.908 147.334L157.701 146.012L154.428 147.147L154.794 148.78C153.762 149.291 152.806 149.897 151.946 150.586L150.068 149.894L147.943 152.212L149.26 153.472C148.678 154.334 148.221 155.249 147.9 156.198L145.869 156.35ZM154.054 158.648C154.261 157.237 154.978 155.909 156.112 154.83C157.247 153.751 158.749 152.97 160.429 152.586C162.109 152.201 163.891 152.231 165.55 152.672C167.208 153.112 168.67 153.943 169.749 155.059C170.828 156.176 171.476 157.527 171.611 158.944C171.747 160.36 171.363 161.777 170.509 163.016C169.656 164.254 168.37 165.259 166.815 165.903C165.26 166.547 163.505 166.801 161.772 166.634C159.449 166.407 157.331 165.438 155.884 163.941C154.436 162.444 153.778 160.54 154.054 158.648Z" fill="#263238"/>
<path d="M325.618 226.803V220.291L321.156 219.468C320.778 217.273 320.082 215.122 319.082 213.06L322.482 210.506L318.47 204.832L314.084 205.96C312.404 204.218 310.482 202.641 308.355 201.261L309.74 197.656L302.796 194.397L299.693 197.116C297.169 196.287 294.532 195.703 291.839 195.379L290.819 191.712H282.821L281.801 195.352C279.104 195.657 276.461 196.224 273.93 197.04L270.793 194.272L263.866 197.524L265.217 201.095C263.078 202.46 261.141 204.023 259.446 205.752L255.026 204.638L251.031 210.271L254.38 212.811C253.362 214.864 252.646 217.008 252.246 219.198L247.741 220.035V226.547L252.204 227.377C252.587 229.569 253.283 231.718 254.278 233.778L250.878 236.339L254.881 241.992L259.259 240.892C260.942 242.629 262.871 244.199 265.005 245.57L263.636 249.175L270.589 252.435L273.692 249.667C276.202 250.498 278.824 251.083 281.503 251.411L282.523 255.078H290.53L291.542 251.445C294.241 251.13 296.885 250.558 299.421 249.743L302.558 252.511L309.502 249.251L308.151 245.688C310.292 244.325 312.229 242.762 313.922 241.031L318.342 242.145L322.346 236.484L318.988 233.951C320.006 231.895 320.725 229.749 321.13 227.557L325.618 226.803ZM311.789 223.44C311.789 227.483 310.316 231.435 307.557 234.797C304.798 238.158 300.877 240.778 296.289 242.326C291.7 243.873 286.652 244.278 281.781 243.489C276.911 242.7 272.437 240.753 268.925 237.894C265.413 235.035 263.022 231.393 262.053 227.428C261.084 223.463 261.582 219.352 263.482 215.617C265.382 211.882 268.601 208.689 272.73 206.443C276.859 204.197 281.714 202.998 286.68 202.998C293.339 202.998 299.726 205.152 304.434 208.985C309.143 212.819 311.789 218.018 311.789 223.44Z" fill="white"/>
<path d="M186.643 65.1518H166.039V69.0201H186.643V65.1518Z" fill="#3A4753"/>
<path d="M179.58 70.7432H166.039V74.6114H179.58V70.7432Z" fill="#3A4753"/>
<path d="M173.834 76.3345H166.039V80.2028H173.834V76.3345Z" fill="#3A4753"/>
<path opacity="0.2" d="M186.643 65.1518H166.039V69.0201H186.643V65.1518Z" fill="black"/>
<path opacity="0.2" d="M179.58 70.7432H166.039V74.6114H179.58V70.7432Z" fill="black"/>
<path opacity="0.2" d="M173.834 76.3345H166.039V80.2028H173.834V76.3345Z" fill="black"/>
<path d="M137.25 108H130.263V119.654H137.25V108Z" fill="#3A4753"/>
<path d="M147.339 112.007H140.352V119.661H147.339V112.007Z" fill="#3A4753"/>
<path d="M157.437 115.253H150.45V119.661H157.437V115.253Z" fill="#3A4753"/>
<path opacity="0.2" d="M137.25 108H130.263V119.654H137.25V108Z" fill="black"/>
<path opacity="0.2" d="M147.339 112.007H140.352V119.661H147.339V112.007Z" fill="black"/>
<path opacity="0.2" d="M157.437 115.253H150.45V119.661H157.437V115.253Z" fill="black"/>
<path d="M213.299 128.477H128.699C127.537 128.479 126.387 128.294 125.314 127.933C124.24 127.573 123.265 127.044 122.443 126.376C121.621 125.708 120.969 124.915 120.524 124.041C120.079 123.168 119.85 122.232 119.85 121.287V64.4252C119.855 62.5194 120.786 60.6928 122.442 59.3452C124.097 57.9977 126.341 57.239 128.682 57.2353H213.282C214.443 57.2344 215.593 57.4197 216.666 57.7805C217.739 58.1413 218.714 58.6707 219.535 59.3383C220.357 60.006 221.009 60.7988 221.454 61.6716C221.9 62.5444 222.129 63.4801 222.131 64.4252V121.287C222.131 123.194 221.2 125.022 219.544 126.371C217.888 127.719 215.641 128.477 213.299 128.477ZM128.699 57.8927C126.563 57.8964 124.516 58.5887 123.006 59.8182C121.495 61.0477 120.645 62.7141 120.641 64.4529V121.315C120.645 123.053 121.495 124.72 123.006 125.949C124.516 127.179 126.563 127.871 128.699 127.875H213.299C215.435 127.871 217.482 127.179 218.992 125.949C220.502 124.72 221.353 123.053 221.357 121.315V64.4252C221.353 62.6865 220.502 61.02 218.992 59.7905C217.482 58.561 215.435 57.8687 213.299 57.865L128.699 57.8927Z" fill="#263238"/>
<path d="M212.211 108.319H182.044V108.948H212.211V108.319Z" fill="#263238"/>
<path d="M212.211 110.955H182.044V111.585H212.211V110.955Z" fill="#263238"/>
<path d="M212.211 113.585H182.044V114.215H212.211V113.585Z" fill="#263238"/>
<path d="M212.211 116.214H182.044V116.844H212.211V116.214Z" fill="#263238"/>
<path d="M212.211 118.844H182.044V119.474H212.211V118.844Z" fill="#263238"/>
<path d="M159.502 65.4148H129.336V66.0445H159.502V65.4148Z" fill="#263238"/>
<path d="M159.502 68.0444H129.336V68.6741H159.502V68.0444Z" fill="#263238"/>
<path d="M159.502 70.674H129.336V71.3037H159.502V70.674Z" fill="#263238"/>
<path d="M159.502 73.3036H129.336V73.9333H159.502V73.3036Z" fill="#263238"/>
<path d="M159.502 75.9332H129.336V76.5629H159.502V75.9332Z" fill="#263238"/>
<path d="M206.253 86.6592L211.659 88.9704L211.038 76.556L198.144 83.1992L203.55 85.5035L199.478 91.8076C198.761 91.8069 198.063 92.0018 197.498 92.3612L190.315 89.6555V89.6209C190.346 88.9155 190.034 88.2285 189.448 87.7087C188.861 87.1889 188.047 86.878 187.181 86.8434C186.315 86.8089 185.467 87.0534 184.821 87.524C184.174 87.9946 183.782 88.6534 183.728 89.358C183.719 89.4455 183.719 89.5334 183.728 89.6209C183.732 90.005 183.833 90.3842 184.025 90.735L174.675 99.039C174.375 98.9623 174.063 98.9227 173.749 98.9214C173.586 98.9215 173.423 98.9354 173.264 98.9629L159.8 85.0468C160.108 84.4034 160.098 83.688 159.774 83.0502C159.449 82.4123 158.834 81.9012 158.058 81.6235C157.281 81.3458 156.403 81.323 155.606 81.5599C154.81 81.7967 154.156 82.2749 153.782 82.8947C153.596 83.2295 153.5 83.5929 153.502 83.9604C153.512 84.2354 153.569 84.5078 153.672 84.77L138.329 97.572C137.719 97.3927 137.057 97.3644 136.427 97.4906C135.797 97.6168 135.227 97.8919 134.788 98.2812C134.35 98.6705 134.063 99.1567 133.963 99.6786C133.863 100.2 133.955 100.735 134.227 101.214C134.499 101.694 134.939 102.097 135.492 102.373C136.045 102.65 136.686 102.787 137.334 102.767C137.983 102.748 138.609 102.573 139.136 102.264C139.662 101.955 140.065 101.527 140.293 101.032C140.421 100.736 140.487 100.425 140.488 100.112C140.489 99.8917 140.452 99.6727 140.378 99.4612L155.89 86.5C156.194 86.5823 156.513 86.6243 156.834 86.6246C157.036 86.6256 157.239 86.6094 157.437 86.5761L170.825 100.416C170.404 101.047 170.309 101.789 170.56 102.477C170.811 103.166 171.388 103.745 172.163 104.087C172.939 104.429 173.85 104.507 174.695 104.303C175.541 104.098 176.252 103.629 176.673 102.997C176.91 102.646 177.047 102.256 177.072 101.855C177.081 101.766 177.081 101.675 177.072 101.586C177.067 101.306 177.01 101.028 176.902 100.762L186.473 92.2782C186.655 92.3057 186.84 92.3196 187.026 92.3197C187.68 92.3195 188.319 92.1605 188.862 91.863L196.172 94.631C196.185 94.9864 196.285 95.3361 196.466 95.6596C196.647 95.9832 196.906 96.2741 197.227 96.5155C197.547 96.7569 197.924 96.9439 198.334 97.0655C198.745 97.1872 199.181 97.2411 199.617 97.2241C200.053 97.2071 200.481 97.1195 200.875 96.9665C201.269 96.8135 201.622 96.5981 201.913 96.3329C202.204 96.0677 202.427 95.758 202.57 95.4218C202.712 95.0856 202.771 94.7298 202.742 94.375C202.71 93.8779 202.507 93.3983 202.156 92.991L206.253 86.6592Z" fill="#263238"/>
<path d="M213.494 135.819C212.164 135.821 210.888 136.252 209.948 137.019C209.008 137.786 208.479 138.825 208.479 139.909V175.346C208.479 176.429 209.008 177.467 209.948 178.233C210.889 178.999 212.164 179.429 213.494 179.429H266.195C267.525 179.429 268.802 178.999 269.744 178.233C270.685 177.468 271.216 176.429 271.218 175.346V139.888C271.216 138.804 270.685 137.766 269.744 137C268.802 136.235 267.525 135.805 266.195 135.805L213.494 135.819Z" stroke="#263238" stroke-linejoin="round"/>
<path d="M216.64 140.649H212.636V141.085H216.64V140.649Z" fill="#263238"/>
<path d="M216.64 144.206H212.636V144.642H216.64V144.206Z" fill="#263238"/>
<path d="M216.64 147.763H212.636V148.199H216.64V147.763Z" fill="#263238"/>
<path d="M216.64 151.327H212.636V151.763H216.64V151.327Z" fill="#263238"/>
<path d="M216.486 144.206H212.483V144.642H216.486V144.206Z" fill="#263238"/>
<path d="M216.64 154.883H212.636V155.319H216.64V154.883Z" fill="#263238"/>
<path d="M242.896 174.135C246.695 174.199 250.432 173.344 253.633 171.678C256.835 170.012 259.357 167.61 260.881 164.777C262.406 161.943 262.863 158.805 262.195 155.76C261.528 152.715 259.766 149.899 257.132 147.67C254.498 145.44 251.111 143.897 247.4 143.235C243.688 142.574 239.819 142.823 236.282 143.953C232.744 145.082 229.698 147.041 227.529 149.58C225.359 152.12 224.164 155.126 224.094 158.219C223.999 162.358 225.925 166.36 229.45 169.344C232.976 172.328 237.812 174.051 242.896 174.135ZM243.568 147.465C246.257 147.509 248.87 148.202 251.076 149.455C253.282 150.709 254.982 152.466 255.961 154.506C256.939 156.546 257.153 158.776 256.575 160.915C255.997 163.054 254.653 165.005 252.712 166.521C250.772 168.038 248.323 169.052 245.674 169.436C243.026 169.819 240.297 169.555 237.834 168.676C235.37 167.797 233.282 166.342 231.833 164.497C230.385 162.652 229.641 160.498 229.696 158.309C229.769 155.373 231.272 152.582 233.874 150.548C236.475 148.515 239.962 147.406 243.568 147.465Z" fill="#3A4753"/>
<path opacity="0.2" d="M242.896 174.135C246.695 174.199 250.432 173.344 253.633 171.678C256.835 170.012 259.357 167.61 260.881 164.777C262.406 161.943 262.863 158.805 262.195 155.76C261.528 152.715 259.766 149.899 257.132 147.67C254.498 145.44 251.111 143.897 247.4 143.235C243.688 142.574 239.819 142.823 236.282 143.953C232.744 145.082 229.698 147.041 227.529 149.58C225.359 152.12 224.164 155.126 224.094 158.219C223.999 162.358 225.925 166.36 229.45 169.344C232.976 172.328 237.812 174.051 242.896 174.135ZM243.568 147.465C246.257 147.509 248.87 148.202 251.076 149.455C253.282 150.709 254.982 152.466 255.961 154.506C256.939 156.546 257.153 158.776 256.575 160.915C255.997 163.054 254.653 165.005 252.712 166.521C250.772 168.038 248.323 169.052 245.674 169.436C243.026 169.819 240.297 169.555 237.834 168.676C235.37 167.797 233.282 166.342 231.833 164.497C230.385 162.652 229.641 160.498 229.696 158.309C229.769 155.373 231.272 152.582 233.874 150.548C236.475 148.515 239.962 147.406 243.568 147.465Z" fill="black"/>
<path d="M229.5 169.692C231.308 171.177 233.457 172.357 235.825 173.165C238.193 173.974 240.733 174.394 243.301 174.403C245.868 174.412 248.413 174.01 250.79 173.218C253.166 172.426 255.327 171.261 257.151 169.789C257.218 169.728 257.255 169.649 257.255 169.568C257.255 169.486 257.218 169.407 257.151 169.346L253.164 166.08C253.129 166.05 253.087 166.026 253.04 166.009C252.994 165.993 252.943 165.984 252.892 165.983C252.789 165.988 252.691 166.02 252.612 166.073C251.358 167.097 249.861 167.901 248.213 168.438C246.564 168.975 244.799 169.232 243.024 169.194H242.08C239.195 169.063 236.443 168.16 234.252 166.627C234.056 166.481 233.852 166.336 233.665 166.184C231.426 164.364 230.049 161.958 229.777 159.391C229.504 156.825 230.355 154.263 232.178 152.157C232.195 152.138 232.209 152.117 232.22 152.095C232.305 151.998 232.399 151.915 232.501 151.818C233.808 150.47 235.494 149.398 237.418 148.692C239.341 147.986 241.444 147.667 243.551 147.763C243.601 147.764 243.651 147.757 243.698 147.742C243.745 147.727 243.787 147.705 243.824 147.676C243.86 147.648 243.889 147.614 243.909 147.577C243.93 147.539 243.941 147.499 243.942 147.458L244.052 142.87C244.055 142.787 244.017 142.706 243.947 142.646C243.877 142.585 243.78 142.549 243.678 142.545C239.787 142.492 235.965 143.385 232.702 145.111C229.438 146.836 226.881 149.316 225.359 152.231C223.836 155.147 223.417 158.366 224.154 161.477C224.892 164.587 226.754 167.448 229.5 169.692Z" fill="#263238"/>
<path d="M243.686 142.552C248.984 142.557 254.064 144.274 257.807 147.326C261.55 150.379 263.651 154.516 263.649 158.83C263.646 163.143 261.539 167.279 257.792 170.328C254.045 173.377 248.963 175.09 243.665 175.09C238.367 175.09 233.286 173.377 229.538 170.328C225.791 167.279 223.684 163.143 223.682 158.83C223.679 154.516 225.78 150.379 229.523 147.326C233.267 144.274 238.346 142.557 243.644 142.552H243.686ZM242.904 173.81C246.626 173.872 250.287 173.034 253.424 171.403C256.561 169.771 259.033 167.419 260.527 164.643C262.022 161.868 262.472 158.794 261.82 155.81C261.168 152.826 259.445 150.067 256.866 147.881C254.288 145.695 250.972 144.181 247.336 143.529C243.701 142.878 239.91 143.119 236.443 144.222C232.976 145.325 229.988 147.24 227.858 149.725C225.728 152.211 224.551 155.154 224.476 158.184C224.376 162.246 226.261 166.174 229.716 169.106C233.172 172.037 237.915 173.731 242.904 173.817V173.81ZM243.576 147.14C246.336 147.186 249.017 147.897 251.281 149.183C253.545 150.469 255.289 152.273 256.293 154.367C257.297 156.46 257.517 158.749 256.923 160.944C256.329 163.138 254.95 165.141 252.958 166.697C250.967 168.254 248.453 169.294 245.735 169.688C243.017 170.081 240.217 169.809 237.689 168.907C235.16 168.004 233.018 166.512 231.531 164.618C230.045 162.724 229.282 160.514 229.338 158.267C229.414 155.255 230.957 152.39 233.627 150.303C236.297 148.217 239.875 147.079 243.576 147.14ZM243.023 169.222C245.63 169.265 248.195 168.678 250.392 167.535C252.589 166.392 254.321 164.744 255.367 162.799C256.414 160.855 256.729 158.702 256.273 156.612C255.816 154.522 254.608 152.589 252.802 151.057C250.996 149.526 248.673 148.465 246.126 148.009C243.58 147.553 240.924 147.721 238.495 148.494C236.067 149.266 233.974 150.608 232.481 152.349C230.989 154.09 230.165 156.152 230.112 158.274C230.044 161.119 231.365 163.869 233.786 165.92C236.207 167.972 239.53 169.157 243.023 169.215V169.222Z" fill="#263238"/>
<path d="M144.22 192.466V234.443" stroke="#263238" stroke-width="0.879169" stroke-linecap="round" stroke-linejoin="round"/>
<path d="M152.507 208.306H148.129V232.339H152.507V208.306Z" fill="#263238"/>
<path d="M158.763 218.111H154.386V232.332H158.763V218.111Z" fill="#3A4753"/>
<path d="M166.116 200.535H161.738V232.339H166.116V200.535Z" fill="white" stroke="#263238" stroke-width="0.879169" stroke-linejoin="round"/>
<path d="M178.322 195.947H173.944V232.332H178.322V195.947Z" fill="#263238"/>
<path d="M184.586 223.336H180.208V232.339H184.586V223.336Z" fill="#3A4753"/>
<path d="M191.939 210.852H187.561V232.339H191.939V210.852Z" fill="white" stroke="#263238" stroke-width="0.879169" stroke-linejoin="round"/>
<path d="M209.772 214.139H205.394V232.332H209.772V214.139Z" fill="#263238"/>
<path d="M216.036 200.023H211.659V232.332H216.036V200.023Z" fill="#3A4753"/>
<path d="M223.389 207.157H219.011V232.332H223.389V207.157Z" fill="white" stroke="#263238" stroke-width="0.879169" stroke-linejoin="round"/>
<path d="M139.519 226.775H141.967" stroke="#263238" stroke-width="0.879169" stroke-linecap="round" stroke-linejoin="round"/>
<path d="M139.519 221.592H141.967" stroke="#263238" stroke-width="0.879169" stroke-linecap="round" stroke-linejoin="round"/>
<path d="M139.519 216.416H141.967" stroke="#263238" stroke-width="0.879169" stroke-linecap="round" stroke-linejoin="round"/>
<path d="M139.519 211.233H141.967" stroke="#263238" stroke-width="0.879169" stroke-linecap="round" stroke-linejoin="round"/>
<path d="M139.519 206.05H141.967" stroke="#263238" stroke-width="0.879169" stroke-linecap="round" stroke-linejoin="round"/>
<path d="M139.519 200.867H141.967" stroke="#263238" stroke-width="0.879169" stroke-linecap="round" stroke-linejoin="round"/>
<path d="M139.519 195.684H141.967" stroke="#263238" stroke-width="0.879169" stroke-linecap="round" stroke-linejoin="round"/>
<path d="M141.321 232.339H226.457" stroke="#263238" stroke-width="0.879169" stroke-linecap="round" stroke-linejoin="round"/>
<path opacity="0.3" d="M158.763 218.111H154.386V232.332H158.763V218.111Z" fill="black"/>
<path opacity="0.3" d="M184.586 223.336H180.208V232.339H184.586V223.336Z" fill="black"/>
<path opacity="0.3" d="M216.036 200.023H211.659V232.332H216.036V200.023Z" fill="black"/>
<path d="M136.043 186.639C134.576 186.641 133.17 187.116 132.132 187.961C131.095 188.805 130.512 189.95 130.509 191.144V232.325C130.512 233.52 131.095 234.666 132.132 235.511C133.169 236.357 134.575 236.833 136.043 236.837H229.925C231.394 236.833 232.801 236.357 233.839 235.511C234.877 234.666 235.463 233.521 235.467 232.325V191.13C235.465 189.934 234.88 188.788 233.842 187.942C232.803 187.096 231.394 186.62 229.925 186.619L136.043 186.639Z" stroke="#263238" stroke-linejoin="round"/>
<path d="M61.7523 278.696C61.7523 278.696 63.7159 289.367 58.9644 290.46C54.2128 291.553 50.9148 290.114 50.3198 288.516C49.7248 286.917 53.9323 275.499 53.9323 275.499L61.7523 278.696Z" fill="white"/>
<path d="M144.398 281.056L165.053 285.042C165.053 285.042 166.617 285.734 166.447 286.876C166.277 288.017 156.85 290.944 154.207 291.311C151.563 291.678 136.306 293.297 134.138 291.782C131.971 290.266 136.552 278.184 136.552 278.184L144.398 281.056Z" fill="white"/>
<path d="M106.998 86.4446C106.998 86.4446 109.905 90.0154 109.948 91.8215C109.99 93.6276 109.718 95.6898 111.078 96.7554C112.438 97.8211 113.484 98.9837 112.923 99.5234C112.362 100.063 111.282 101.115 111.282 101.115C111.282 101.115 112.685 107.198 110.866 108.298C109.047 109.398 103.581 108.298 103.581 108.298V112.229C103.581 112.229 95.8121 110.153 90.4486 110.54L89.4966 102.118C89.4966 102.118 101.15 83.8773 106.998 86.4446Z" fill="white"/>
<path d="M154.785 111.329C154.785 111.329 154.088 107.011 156.672 104.409C156.672 104.409 153.578 103.98 153.952 103.066C154.326 102.153 159.052 103.35 159.052 103.35L157.777 101.274C157.777 101.274 153.314 100.07 153.867 98.9422C154.419 97.8142 160.964 100.589 160.964 100.589C160.964 100.589 157.08 97.9457 157.624 96.8454C158.168 95.7451 162.12 95.7659 164.228 101.468L165.299 100.382C165.299 100.382 165.682 93.8906 166.778 93.5376C166.778 93.5376 168.478 94.2988 168.478 98.0287C168.478 98.0287 170.178 99.6964 169.099 101.108C168.019 102.52 165.478 105.696 163.319 106.886C161.16 108.077 161.168 112.72 161.168 112.72L154.785 111.329Z" fill="white"/>
<path d="M86.3768 75.8363L87.3543 74.7706C87.3543 74.7706 98.2938 70.7985 98.0218 69.5598C97.7498 68.3212 91.5533 70.0304 90.3718 69.373C90.3718 69.373 91.5023 57.6505 90.3718 57.2699C89.2413 56.8893 87.9833 62.7713 87.9833 62.7713C87.9833 62.7713 86.3938 56.7371 85.1698 56.9101C83.9458 57.0831 84.4558 63.1381 84.4558 63.1381C84.4558 63.1381 82.1183 59.256 81.2088 59.6158C80.2993 59.9756 81.6593 64.7089 81.6593 64.7089C81.6593 64.7089 79.9593 63.0827 79.2793 63.574C79.5033 66.019 80.327 68.4026 81.7018 70.584L79.3388 73.8364L86.3768 75.8363Z" fill="white"/>
<path d="M153.603 111.357L161.143 112.215C161.143 112.215 155.626 150.275 154.003 154.973C152.379 159.672 150.917 163.049 145.375 163.277C139.833 163.506 120.088 149.991 120.088 149.991L119.17 168.675L120.453 176.425C120.453 176.425 96.3047 186.757 71.7482 177.768L72.3007 168.675L63.4522 127.086L56.4907 107.336L78.9562 72.66L87.0992 76.12L72.7342 107.682L76.7547 118.221L81.2512 116.754L86.2237 111.592C86.2237 111.592 94.6557 108.028 105.323 112.976L107.023 117.308C107.023 117.308 119.535 118.076 140.658 141.915L153.603 111.357Z" fill="#3A4753"/>
<path opacity="0.2" d="M99.7051 111.357L100.657 116.685C100.657 116.685 107.678 120.477 110.5 121.792C110.5 121.792 117.402 157.278 112.294 164.26L106.913 171.118C106.913 171.118 112.413 171.118 114.946 167.983C114.946 167.983 111.792 176.55 103.615 178.854C103.615 178.854 116.17 177.789 120.488 176.432L119.204 168.682L121.27 125.467C121.27 125.467 123.216 122.574 107.032 117.391L104.644 112.72L99.7051 111.357Z" fill="black"/>
<path d="M106.998 86.929C106.998 86.929 109.633 90.0707 109.948 91.8215C110.262 93.5722 109.327 95.5029 111.078 96.7554C112.829 98.008 113.628 98.8314 112.923 99.5234C112.217 100.215 111.282 101.115 111.282 101.115C111.282 101.115 111.996 107.045 110.866 108.298C109.735 109.551 103.581 108.298 103.581 108.298V112.229" stroke="#263238" stroke-linecap="round" stroke-linejoin="round"/>
<path d="M103.581 100.852C103.581 100.852 101.116 95.669 99.2713 96.9215C97.4268 98.174 99.0673 105.025 103.581 103.523" stroke="#263238" stroke-linecap="round" stroke-linejoin="round"/>
<path d="M102.909 99.648C102.909 99.648 105.842 99.4542 103.989 93.856C102.136 88.2577 106.148 89.012 110.457 87.4204C114.767 85.8288 115.795 82.9085 114.869 81.1578C113.942 79.407 112.404 78.4797 106.964 79.317C106.964 79.317 101.014 73.7188 95.2678 79.9052C95.2678 79.9052 82.3308 79.7392 78.8458 84.7492C75.3608 89.7593 79.9763 102.547 86.7508 106.81C93.5253 111.073 100.147 107.661 101.524 103.655C101.524 103.655 96.9083 101.627 99.2713 96.9492C99.2713 96.9215 101.422 96.2987 102.909 99.648Z" fill="#263238"/>
<path d="M62.7808 123.93C62.7808 123.93 94.0863 105.447 121.371 123.93L119.17 168.647L120.453 176.398C120.453 176.398 97.3843 185.193 71.7483 177.74L72.3008 168.647L62.7808 123.93Z" stroke="#263238" stroke-linecap="round" stroke-linejoin="round"/>
<path d="M80.835 117.211L86.224 111.62C86.224 111.62 96.7895 108.644 105.323 113.004L107.023 117.336" stroke="#263238" stroke-linecap="round" stroke-linejoin="round"/>
<path d="M121.372 123.93L148.631 149.451" stroke="#263238" stroke-linecap="round" stroke-linejoin="round"/>
<path d="M120.113 149.472C120.113 149.472 138.176 163.153 145.375 163.312C152.575 163.471 153.773 156.392 153.773 156.392L161.143 112.242L153.603 111.384L140.632 141.991" stroke="#263238" stroke-linecap="round" stroke-linejoin="round"/>
<path d="M161.015 112.104C161.015 112.104 161.959 107.115 164.415 105.98C166.872 104.845 169.787 100.444 168.852 99.1774C167.917 97.9111 165.061 102.028 162.486 102.817C159.91 103.606 157.819 107.481 157.462 109.163" stroke="#263238" stroke-linecap="round" stroke-linejoin="round"/>
<path d="M168.062 98.9975C168.062 98.9975 168.062 93.2331 166.761 93.503C165.461 93.7729 165.282 101.074 165.282 101.074" stroke="#263238" stroke-linecap="round" stroke-linejoin="round"/>
<path d="M164.33 101.814C164.33 101.814 163.48 98.5823 161.143 97.0045C158.805 95.4268 157.343 96.2779 157.607 96.8108C157.87 97.3436 161.857 101.655 161.763 103.122" stroke="#263238" stroke-linecap="round" stroke-linejoin="round"/>
<path d="M160.284 100.215C160.284 100.215 153.867 97.8211 153.85 99.2536C153.833 100.686 157.76 101.24 157.76 101.24L159.035 103.316C159.035 103.316 153.629 101.932 153.935 103.032C154.241 104.132 156.655 104.374 156.655 104.374C156.655 104.374 154.028 106.492 154.768 111.294" stroke="#263238" stroke-linecap="round" stroke-linejoin="round"/>
<path d="M116.739 176.917L118.379 186.273C118.379 186.273 133.484 223.163 135.779 230.374C138.074 237.584 139.391 253.902 140.029 261.382C140.666 268.863 145.979 281.45 145.979 281.45C145.979 281.45 145.324 286.53 134.164 285.727C134.164 285.727 129.565 270.759 124.644 261.936C119.722 253.113 119 239.73 119 239.73L95.0299 203.912C95.0299 203.912 90.1254 224.769 86.8274 232.512C83.4274 240.498 60.2479 284.806 61.8714 281.699C61.8714 281.699 58.5904 283.305 51.6714 279.291C51.6714 279.291 56.5929 265.929 57.9019 258.711C59.2109 251.494 66.1129 234.92 66.1129 234.92C66.1129 234.92 67.7534 203.649 70.3629 194.023C70.3629 194.023 68.6629 183.422 72.2924 175.934C86.6783 179.759 102.119 180.1 116.739 176.917Z" fill="#263238"/>
<path d="M81.8975 197.628L92.6585 200.175L94.2225 203.282" stroke="white" stroke-linecap="round" stroke-linejoin="round"/>
<path d="M134.402 284.633C134.402 284.633 132.948 290.564 134.138 291.782C134.767 292.418 136.637 292.301 137.538 292.315C139.612 292.349 141.695 292.239 143.769 292.128C147.917 291.906 152.167 291.941 156.17 290.896C159.543 290.071 162.765 288.881 165.75 287.36C167.382 286.474 165.75 285.042 165.75 285.042L145.987 281.43" stroke="#263238" stroke-linecap="round" stroke-linejoin="round"/>
<path d="M134.3 289.692C134.3 289.692 156.51 292.661 165.75 285.042" stroke="#263238" stroke-linecap="round" stroke-linejoin="round"/>
<path d="M52.5299 278.696C52.5299 278.696 49.9799 285.817 50.3539 288.059C50.7279 290.301 53.4904 290.827 56.7204 290.765C59.9504 290.702 61.2764 289.526 61.7524 287.747C62.2284 285.969 61.7524 280.218 61.7524 280.218" stroke="#263238" stroke-linecap="round" stroke-linejoin="round"/>
<path d="M50.3198 286.972L61.7523 287.747" stroke="#263238" stroke-linecap="round" stroke-linejoin="round"/>
<path d="M80.1636 72.8814C81.1326 71.4421 81.7021 70.5632 81.7021 70.5632C81.7021 70.5632 78.5486 64.356 79.3391 63.5948C80.1296 62.8336 81.9571 64.9788 81.9571 64.9788C81.9571 64.9788 80.0871 60.0448 81.2686 59.6227C82.4501 59.2006 84.5581 63.7747 84.5581 63.7747C84.5581 63.7747 84.0056 57.1661 85.2296 56.8547C86.4536 56.5433 87.9241 63.1381 87.9241 63.1381C87.9241 63.1381 89.5051 57.2699 90.4741 57.2146C91.4431 57.1592 90.4741 69.3176 90.4741 69.3176C92.4291 70.0996 98.1751 68.1897 98.1241 69.7328C98.0731 71.276 87.0741 74.826 87.0741 74.826C86.8817 75.0292 86.7137 75.247 86.5726 75.4764" stroke="#263238" stroke-linecap="round" stroke-linejoin="round"/>
<path d="M62.7807 123.93L56.4907 107.336L78.9562 72.6808L87.0992 76.1477L72.7342 107.71L76.7547 118.249" stroke="#263238" stroke-linecap="round" stroke-linejoin="round"/>
<path d="M63.5118 104.713C63.5118 104.713 71.5698 104.658 72.7343 107.71C69.2044 107.55 65.7077 108.338 62.7808 109.952" stroke="#263238" stroke-linecap="round" stroke-linejoin="round"/>
<path d="M90.1338 110.9V106.091" stroke="#263238" stroke-linecap="round" stroke-linejoin="round"/>
<path opacity="0.2" d="M121.235 137.314L123.25 148.226C123.25 148.226 124.899 141.106 125.927 141.106C126.956 141.106 125.927 149.451 125.927 149.451C125.927 149.451 142.825 161.907 150.135 161.976C150.135 161.976 146.072 164.302 142.001 162.572C137.929 160.842 120.079 149.424 120.079 149.424L121.235 137.314Z" fill="black"/>
<path opacity="0.2" d="M85.6543 75.5318L70.2013 106.091C70.2013 106.091 64.8208 106.021 62.7808 109.952L71.0428 108.748L73.8223 119.128L76.7548 118.221L72.7343 107.682L87.0993 76.12L85.6543 75.5318Z" fill="black"/>
<path d="M298.613 129.273L292.527 118.692L268.608 131.556L288.345 160.025L303.739 152.911L298.613 129.273Z" fill="white"/>
<path d="M318.325 220.789C318.325 220.789 322.192 229.529 322.762 233.785C323.331 238.041 321.589 255.964 321.963 260.905C322.337 265.846 325.618 280.592 325.618 280.592C325.618 280.592 309.527 290.114 304.419 287.049C304.419 287.049 315.758 279.575 316.905 276.599L313.233 256.4L309.587 232.512C309.587 232.512 308.66 227.523 307.368 224.955C306.076 222.388 306.272 216.942 306.272 216.942L318.325 220.789Z" fill="white"/>
<path d="M317.985 220.014C317.985 220.014 322.167 229.218 323.144 235.827C324.122 242.435 321.181 257.424 322.15 264.642C323.119 271.859 324.113 275.852 325.83 279.651L324.98 290.799H322.779L321.929 284.474C321.929 284.474 318.478 283.305 316.387 287.353C314.296 291.401 306.569 291.934 302.906 289.588C302.906 289.588 302.906 287.775 305.66 286.177C308.414 284.578 315.605 279.582 316.914 276.599C316.914 276.599 312.987 255.839 312.069 249.113C311.151 242.387 309.714 230.159 307.878 226.215C306.042 222.27 306.051 216.631 306.051 216.631" stroke="#263238" stroke-linecap="round" stroke-linejoin="round"/>
<path d="M324.989 277.561C324.989 277.561 314.202 287.111 305.15 287.048" stroke="#263238" stroke-linecap="round" stroke-linejoin="round"/>
<path d="M304.419 287.049C305.915 287.184 307.43 287.03 308.839 286.599C311.278 285.907 320.059 282.447 324.377 278.08L325.703 279.305L325.006 290.543L322.787 290.799L321.937 284.474C321.937 284.474 319.098 283.416 317.271 286.017C315.443 288.619 314.126 290.405 310.93 290.979C307.734 291.553 302.914 289.595 302.914 289.595C302.914 289.595 302.073 288.564 304.419 287.049Z" fill="#263238"/>
<path d="M325.848 221.087C326.861 224.121 328.093 227.104 329.537 230.021C331.466 233.626 348.135 270.088 348.135 270.088C348.135 270.088 349.401 289.823 356.499 289.761C363.596 289.699 356.218 275.97 356.218 275.97L351.9 268.448C351.9 268.448 350.251 246.352 348.211 238.228L339.524 219.177L325.848 221.087Z" fill="white"/>
<path d="M339.618 219.814C339.618 219.814 346.749 233.024 348.22 238.228C349.69 243.432 351.169 266.842 351.909 268.448C352.648 270.053 364.446 287.055 357.315 290.46C350.183 293.865 348.5 270.849 348.5 270.849C348.5 270.849 332.036 233.619 329.571 230.021C327.106 226.422 324.411 216.008 324.411 216.008L339.618 219.814Z" stroke="#263238" stroke-linecap="round" stroke-linejoin="round"/>
<path d="M358.7 281.734C358.7 281.734 358.207 286.343 356.337 286.993C354.467 287.644 350.336 282.447 350.336 282.447" stroke="#263238" stroke-linecap="round" stroke-linejoin="round"/>
<path d="M350.353 283.243C350.353 283.243 352.903 291.104 356.303 290.771C359.703 290.439 360.315 286.073 358.709 282.703C358.709 282.703 358.139 286.163 356.346 286.993C354.535 287.014 350.353 283.243 350.353 283.243Z" fill="#263238"/>
<path d="M320.254 151.098C320.254 151.098 328.848 160.648 334.806 176.01C340.765 191.373 340.153 220.796 340.153 220.796C340.153 220.796 317.976 226.602 296.48 219.226L300.415 152.932C300.415 152.932 314.245 153.14 320.254 151.098Z" fill="#263238"/>
<path d="M309.153 81.8428C309.153 81.8428 302.472 86.936 301.69 90.2714C301.045 92.606 300.01 94.8575 298.613 96.963C299.332 97.8484 300.385 98.5189 301.614 98.873C301.614 98.873 302.047 105.703 304.487 106.229L310.318 104.983L310.938 107.91L319.302 105.322V101.378L325.677 97.9872L323.408 89.1227L313.038 85.1783L309.153 81.8428Z" fill="white"/>
<path d="M300.373 152.399L299.634 142.822C299.634 142.822 294.194 134.518 295.919 131.501C297.823 128.186 309.264 115.91 309.264 115.91L308.142 109.211L324.173 103.62L324.938 109.211L323 110.381L325.151 114.132C325.151 114.132 325.287 113.017 329.01 118.671C332.733 124.325 346.758 144.441 347.863 148.303C348.968 152.164 326.052 165.769 318.317 168.979C318.317 168.979 317.424 167.422 308.236 173.131C305.898 172.799 302.668 171.09 301.98 170.031C301.291 168.973 304.623 166.454 304.623 166.454C304.623 166.454 306.629 163.367 310.174 165.838H313.948L335.546 149.472L324.598 136.428L320.255 151.077C320.255 151.077 306.204 154.551 300.373 152.399Z" fill="white"/>
<path d="M308.142 109.211L309.29 116.055L324.938 109.211L324.173 103.62L308.142 109.211Z" stroke="#263238" stroke-linecap="round" stroke-linejoin="round"/>
<path d="M309.289 116.055C309.289 116.055 295.052 130.234 295.434 133.03C295.817 135.826 299.633 142.822 299.633 142.822L300.415 152.925C300.415 152.925 311.933 153.181 320.254 151.098L324.598 136.449" stroke="#263238" stroke-linecap="round" stroke-linejoin="round"/>
<path d="M335.546 149.472L313.488 122.401C313.488 122.401 311.321 116.173 316.54 113.952C321.759 111.73 326.298 114.547 327.921 116.028C329.545 117.509 347.055 144.974 347.871 148.275C348.687 151.576 330.191 164.779 319.489 168.343C319.489 168.343 314.619 170.723 314.619 165.838L335.546 149.472Z" stroke="#263238" stroke-linecap="round" stroke-linejoin="round"/>
<path d="M324.938 114.132L322.873 110.118" stroke="#263238" stroke-linecap="round" stroke-linejoin="round"/>
<path d="M314.619 165.865H310.182C310.182 165.865 306.723 163.347 305.082 165.865C303.442 168.384 301.367 168.883 301.988 170.059C302.608 171.235 306.162 173.581 308.244 173.159C310.327 172.737 316.2 168.848 316.2 168.848" stroke="#263238" stroke-linecap="round" stroke-linejoin="round"/>
<path d="M307.555 83.6351C307.555 83.6351 302.345 87.3442 301.767 89.3995C301.189 91.4547 301.435 94.9355 298.613 96.963C298.613 96.963 298.758 98.6238 301.614 98.873C301.614 98.873 303.076 105.426 304.487 106.229C305.898 107.032 314.534 103.406 317.917 101.911C318.78 101.429 319.408 100.717 319.693 99.8971" stroke="#263238" stroke-linecap="round" stroke-linejoin="round"/>
<path d="M303.509 100.873C305.107 100.653 306.548 99.9608 307.555 98.9283" stroke="#263238" stroke-linecap="round" stroke-linejoin="round"/>
<path d="M303.509 91.3924C303.509 91.3924 305.566 90.4167 306.697 92.036" stroke="#263238" stroke-linecap="round" stroke-linejoin="round"/>
<path d="M304.92 94.8732C304.92 95.4337 304.725 95.8904 304.41 95.9043C304.096 95.9181 303.807 95.4752 303.773 94.9216C303.739 94.368 303.968 93.8975 304.283 93.8836C304.597 93.8698 304.886 94.3127 304.92 94.8732Z" fill="#263238"/>
<path d="M310.318 104.983L311.006 108.215" stroke="#263238" stroke-linecap="round" stroke-linejoin="round"/>
<path d="M316.999 94.4441C316.999 94.4441 318.274 92.4304 319.693 93.6068C321.113 94.7832 323.807 100.222 316.54 98.9283C316.54 98.9283 316.055 102.25 319.693 103.08C323.331 103.911 330.242 99.3297 330.471 91.517C330.701 83.7043 321.436 78.4313 316.54 79.9398C316.54 79.9398 309.442 70.8816 302.404 74.7429C295.366 78.6043 300.109 84.5486 298.613 85.891C297.117 87.2335 293.921 85.9741 293.819 89.5794C293.717 93.1847 301.121 92.818 301.121 92.818L302.013 88.8459L308.142 83.6351C308.142 83.6351 306.697 87.3996 309.153 90.6728C311.372 93.6207 316.999 94.4441 316.999 94.4441Z" fill="#263238"/>
<path d="M330.471 91.517C330.471 91.517 333.871 92.1398 333.497 95.8835C333.123 99.6272 325.448 108.831 326.026 114.132L345.839 144.192C345.839 144.192 354.756 142.808 354.339 135.334C353.923 127.861 343.043 121.564 345.142 116.055C347.242 110.547 355.487 96.5202 343.808 88.4791C332.129 80.4381 313.922 92.7626 313.922 92.7626L322.838 90.4236L330.471 91.517Z" fill="#263238"/>
<path d="M297.848 128.657L292.527 118.692L268.608 131.556L288.345 160.025L300.313 154.662" stroke="#263238" stroke-linecap="round" stroke-linejoin="round"/>
<path d="M276.054 145.638C276.054 145.638 274.762 143.465 276.488 142.268C278.213 141.071 284.138 137.521 284.138 138.393C284.177 138.605 284.161 138.821 284.091 139.027C284.02 139.233 283.897 139.425 283.73 139.59C282.03 141.445 277.958 144.434 278.222 144.676C278.222 144.676 285.651 140.663 286.365 141.043C286.543 141.14 286.441 141.659 285.821 142.164C283.785 143.64 281.636 145.008 279.386 146.261C279.386 146.261 287.223 143.791 288.235 144.185C288.524 144.296 288.464 144.656 287.555 145.105C285.279 146.112 282.938 147.018 280.542 147.818L282.506 150.489C282.506 150.489 278.8 151.015 276.054 145.638Z" fill="white" stroke="#263238" stroke-linecap="round" stroke-linejoin="round"/>
<path d="M318.758 100.873L319.302 105.322" stroke="#263238" stroke-linejoin="round"/>
</svg>
