<svg width="425" height="346" viewBox="0 0 425 346" fill="none" xmlns="http://www.w3.org/2000/svg">
<g clip-path="url(#clip0)">
<path d="M245.14 271.264C245.14 271.264 311.321 273.783 353.184 212.894C395.046 152.005 345.789 95.9942 269.697 83.8912C193.605 71.7881 155.695 26.3444 87.8731 61.1313C20.0516 95.9181 57.7406 281.18 245.14 271.264Z" fill="#3A4753"/>
<path opacity="0.4" d="M245.14 271.264C245.14 271.264 311.321 273.783 353.184 212.894C395.046 152.005 345.789 95.9942 269.697 83.8912C193.605 71.7881 155.695 26.3444 87.8731 61.1313C20.0516 95.9181 57.7406 281.18 245.14 271.264Z" fill="white"/>
<path d="M212.509 298.404C300.576 298.404 371.969 294.801 371.969 290.356C371.969 285.912 300.576 282.308 212.509 282.308C124.441 282.308 53.0486 285.912 53.0486 290.356C53.0486 294.801 124.441 298.404 212.509 298.404Z" fill="#3A4753"/>
<path opacity="0.7" d="M212.509 298.404C300.576 298.404 371.969 294.801 371.969 290.356C371.969 285.912 300.576 282.308 212.509 282.308C124.441 282.308 53.0486 285.912 53.0486 290.356C53.0486 294.801 124.441 298.404 212.509 298.404Z" fill="white"/>
<path d="M247.418 78.3621L246.959 81.5314L249.067 82.1404C249.098 83.2268 249.283 84.3066 249.619 85.3582L247.792 86.4377L249.33 89.3787L251.549 89.0396C252.24 89.9676 253.062 90.8268 253.997 91.6L253.07 93.2885L256.215 95.1984L257.915 94.022C259.084 94.5463 260.325 94.9551 261.613 95.24L261.851 97.0738L265.735 97.4544L266.492 95.7313C267.826 95.7064 269.153 95.5554 270.444 95.2815L271.779 96.7624L275.4 95.496L275 93.6968C276.137 93.1335 277.19 92.4647 278.137 91.7038L280.211 92.4581L282.557 89.8977L281.103 88.5137C281.749 87.5653 282.251 86.5569 282.599 85.5104L284.852 85.3167L285.32 82.1473L283.203 81.5314C283.177 80.447 282.991 79.3691 282.65 78.3206L284.486 77.2341L282.939 74.2931L280.729 74.6253C280.035 73.6997 279.21 72.8428 278.273 72.0718L279.191 70.3902L276.02 68.508L274.32 69.6913C273.157 69.173 271.925 68.7644 270.648 68.4734L270.41 66.6396L266.517 66.2659L265.761 67.9821C264.429 68.0088 263.105 68.1621 261.817 68.4388L260.482 66.951L256.87 68.2035L257.278 70.0027C256.146 70.5576 255.096 71.2171 254.15 71.968L252.084 71.2206L249.73 73.781L251.183 75.165C250.54 76.1167 250.038 77.1272 249.687 78.1752L247.418 78.3621ZM256.453 80.9017C256.681 79.3435 257.472 77.8752 258.725 76.6828C259.978 75.4904 261.637 74.6275 263.493 74.2032C265.349 73.779 267.317 73.8125 269.15 74.2996C270.982 74.7867 272.596 75.7053 273.786 76.9394C274.977 78.1734 275.691 79.6673 275.839 81.232C275.986 82.7966 275.56 84.3617 274.614 85.7291C273.669 87.0965 272.246 88.2047 270.526 88.9135C268.806 89.6223 266.867 89.8998 264.953 89.7109V89.7109C262.393 89.458 260.06 88.3886 258.466 86.7371C256.873 85.0857 256.149 82.9871 256.453 80.9017Z" stroke="#263238" stroke-width="1.57112" stroke-linejoin="round"/>
<path d="M145.869 156.35L145.452 159.222L147.365 159.776C147.391 160.76 147.56 161.737 147.866 162.689L146.166 163.672L147.56 166.336L149.566 166.025C150.194 166.864 150.938 167.642 151.785 168.343L150.935 169.872L153.85 171.616L155.389 170.543C156.446 171.021 157.571 171.392 158.738 171.651L158.95 173.311L162.478 173.657L163.158 172.093C164.366 172.073 165.567 171.936 166.736 171.685L167.943 173.035L171.207 171.893L170.85 170.232C171.881 169.721 172.837 169.115 173.698 168.426L175.576 169.118L177.701 166.807L176.384 165.54C176.968 164.681 177.424 163.768 177.744 162.821L179.784 162.641L180.2 159.769L178.288 159.215C178.261 158.232 178.093 157.254 177.786 156.302L179.486 155.319L178.084 152.655L176.086 152.953C175.452 152.117 174.702 151.344 173.851 150.648L174.701 149.119L171.785 147.396L170.238 148.469C169.185 147.995 168.067 147.626 166.906 147.368L166.694 145.708L163.166 145.362L162.486 146.925C161.278 146.947 160.077 147.084 158.908 147.334L157.701 146.012L154.428 147.147L154.794 148.78C153.762 149.291 152.806 149.897 151.946 150.586L150.068 149.894L147.943 152.212L149.26 153.472C148.678 154.334 148.221 155.249 147.9 156.198L145.869 156.35ZM154.054 158.648C154.261 157.237 154.978 155.909 156.112 154.83C157.247 153.751 158.749 152.97 160.429 152.586C162.109 152.201 163.891 152.231 165.55 152.672C167.208 153.112 168.67 153.943 169.749 155.059C170.828 156.176 171.476 157.527 171.611 158.944C171.747 160.36 171.363 161.777 170.509 163.016C169.656 164.254 168.37 165.259 166.815 165.903C165.26 166.547 163.505 166.801 161.772 166.634C159.449 166.407 157.331 165.438 155.884 163.941C154.436 162.444 153.778 160.54 154.054 158.648Z" fill="#263238"/>
<path d="M325.618 226.803V220.291L321.155 219.468C320.778 217.273 320.081 215.122 319.081 213.06L322.481 210.506L318.469 204.832L314.083 205.96C312.404 204.218 310.482 202.641 308.354 201.261L309.74 197.656L302.795 194.397L299.693 197.116C297.168 196.287 294.532 195.703 291.839 195.379L290.819 191.712H282.82L281.8 195.352C279.103 195.657 276.461 196.224 273.929 197.04L270.793 194.272L263.865 197.524L265.217 201.095C263.078 202.46 261.141 204.023 259.445 205.752L255.025 204.638L251.03 210.271L254.379 212.811C253.361 214.864 252.645 217.008 252.246 219.198L247.741 220.035V226.547L252.203 227.377C252.586 229.569 253.283 231.718 254.277 233.778L250.877 236.339L254.881 241.992L259.258 240.892C260.942 242.629 262.871 244.199 265.004 245.57L263.636 249.175L270.589 252.435L273.691 249.667C276.201 250.498 278.824 251.083 281.503 251.411L282.523 255.078H290.53L291.541 251.445C294.24 251.13 296.885 250.558 299.421 249.743L302.557 252.511L309.502 249.251L308.15 245.688C310.292 244.325 312.229 242.762 313.922 241.031L318.342 242.145L322.345 236.484L318.988 233.951C320.006 231.895 320.725 229.749 321.13 227.557L325.618 226.803ZM311.788 223.44C311.788 227.483 310.316 231.435 307.557 234.797C304.798 238.158 300.876 240.778 296.288 242.326C291.7 243.873 286.652 244.278 281.781 243.489C276.91 242.7 272.436 240.753 268.925 237.894C265.413 235.035 263.022 231.393 262.053 227.428C261.084 223.463 261.581 219.352 263.482 215.617C265.382 211.882 268.601 208.689 272.73 206.443C276.859 204.197 281.713 202.998 286.679 202.998C293.339 202.998 299.725 205.152 304.434 208.985C309.143 212.819 311.788 218.018 311.788 223.44Z" fill="white"/>
<path d="M186.643 65.1518H166.039V69.0201H186.643V65.1518Z" fill="#3A4753"/>
<path d="M179.58 70.7432H166.039V74.6114H179.58V70.7432Z" fill="#3A4753"/>
<path d="M173.834 76.3345H166.039V80.2028H173.834V76.3345Z" fill="#3A4753"/>
<path opacity="0.2" d="M186.643 65.1518H166.039V69.0201H186.643V65.1518Z" fill="black"/>
<path opacity="0.2" d="M179.58 70.7432H166.039V74.6114H179.58V70.7432Z" fill="black"/>
<path opacity="0.2" d="M173.834 76.3345H166.039V80.2028H173.834V76.3345Z" fill="black"/>
<path d="M137.25 108H130.263V119.654H137.25V108Z" fill="#3A4753"/>
<path d="M147.339 112.007H140.352V119.661H147.339V112.007Z" fill="#3A4753"/>
<path d="M157.437 115.253H150.45V119.661H157.437V115.253Z" fill="#3A4753"/>
<path opacity="0.2" d="M137.25 108H130.263V119.654H137.25V108Z" fill="black"/>
<path opacity="0.2" d="M147.339 112.007H140.352V119.661H147.339V112.007Z" fill="black"/>
<path opacity="0.2" d="M157.437 115.253H150.45V119.661H157.437V115.253Z" fill="black"/>
<path d="M213.299 128.477H128.699C127.537 128.479 126.387 128.294 125.314 127.933C124.24 127.573 123.265 127.044 122.443 126.376C121.621 125.708 120.969 124.915 120.524 124.041C120.079 123.168 119.85 122.232 119.85 121.287V64.4252C119.855 62.5194 120.786 60.6928 122.442 59.3452C124.097 57.9977 126.341 57.239 128.682 57.2353H213.282C214.443 57.2344 215.593 57.4197 216.666 57.7805C217.739 58.1413 218.714 58.6707 219.535 59.3383C220.357 60.006 221.009 60.7988 221.454 61.6716C221.9 62.5444 222.129 63.4801 222.131 64.4252V121.287C222.131 123.194 221.2 125.022 219.544 126.371C217.888 127.719 215.641 128.477 213.299 128.477ZM128.699 57.8927C126.563 57.8964 124.516 58.5887 123.006 59.8182C121.495 61.0477 120.645 62.7141 120.641 64.4529V121.315C120.645 123.053 121.495 124.72 123.006 125.949C124.516 127.179 126.563 127.871 128.699 127.875H213.299C215.435 127.871 217.482 127.179 218.992 125.949C220.502 124.72 221.353 123.053 221.357 121.315V64.4252C221.353 62.6865 220.502 61.02 218.992 59.7905C217.482 58.561 215.435 57.8687 213.299 57.865L128.699 57.8927Z" fill="#263238"/>
<path d="M212.211 108.319H182.045V108.948H212.211V108.319Z" fill="#263238"/>
<path d="M212.211 110.955H182.045V111.585H212.211V110.955Z" fill="#263238"/>
<path d="M212.211 113.585H182.045V114.215H212.211V113.585Z" fill="#263238"/>
<path d="M212.211 116.214H182.045V116.844H212.211V116.214Z" fill="#263238"/>
<path d="M212.211 118.844H182.045V119.474H212.211V118.844Z" fill="#263238"/>
<path d="M159.503 65.4148H129.336V66.0445H159.503V65.4148Z" fill="#263238"/>
<path d="M159.503 68.0444H129.336V68.6741H159.503V68.0444Z" fill="#263238"/>
<path d="M159.503 70.674H129.336V71.3037H159.503V70.674Z" fill="#263238"/>
<path d="M159.503 73.3036H129.336V73.9333H159.503V73.3036Z" fill="#263238"/>
<path d="M159.503 75.9332H129.336V76.5629H159.503V75.9332Z" fill="#263238"/>
<path d="M206.253 86.6592L211.659 88.9704L211.038 76.556L198.144 83.1992L203.55 85.5035L199.478 91.8076C198.761 91.8069 198.063 92.0018 197.498 92.3612L190.315 89.6555V89.6209C190.346 88.9155 190.034 88.2285 189.448 87.7087C188.861 87.1889 188.047 86.878 187.181 86.8434C186.315 86.8089 185.467 87.0534 184.821 87.524C184.174 87.9946 183.782 88.6534 183.728 89.358C183.719 89.4455 183.719 89.5334 183.728 89.6209C183.732 90.005 183.833 90.3842 184.025 90.735L174.675 99.039C174.375 98.9623 174.063 98.9227 173.749 98.9214C173.586 98.9215 173.423 98.9354 173.264 98.9629L159.8 85.0468C160.108 84.4034 160.098 83.688 159.774 83.0502C159.449 82.4123 158.834 81.9012 158.058 81.6235C157.281 81.3458 156.403 81.323 155.606 81.5599C154.81 81.7967 154.156 82.2749 153.782 82.8947C153.596 83.2295 153.5 83.5929 153.502 83.9604C153.512 84.2354 153.569 84.5078 153.672 84.77L138.329 97.572C137.719 97.3927 137.057 97.3644 136.427 97.4906C135.797 97.6168 135.227 97.8919 134.788 98.2812C134.35 98.6705 134.063 99.1567 133.963 99.6786C133.863 100.2 133.955 100.735 134.227 101.214C134.499 101.694 134.939 102.097 135.492 102.373C136.045 102.65 136.686 102.787 137.334 102.767C137.983 102.748 138.609 102.573 139.136 102.264C139.662 101.955 140.065 101.527 140.293 101.032C140.421 100.736 140.487 100.425 140.488 100.112C140.489 99.8917 140.452 99.6727 140.378 99.4612L155.89 86.5C156.194 86.5823 156.513 86.6243 156.834 86.6246C157.036 86.6256 157.239 86.6094 157.437 86.5761L170.825 100.416C170.404 101.047 170.309 101.789 170.56 102.477C170.811 103.166 171.388 103.745 172.163 104.087C172.939 104.429 173.85 104.507 174.695 104.303C175.541 104.098 176.252 103.629 176.673 102.997C176.91 102.646 177.047 102.256 177.072 101.855C177.081 101.766 177.081 101.675 177.072 101.586C177.067 101.306 177.01 101.028 176.902 100.762L186.473 92.2782C186.655 92.3057 186.84 92.3196 187.026 92.3197C187.68 92.3195 188.319 92.1605 188.862 91.863L196.172 94.631C196.185 94.9864 196.285 95.3361 196.466 95.6596C196.647 95.9832 196.906 96.2741 197.227 96.5155C197.547 96.7569 197.924 96.9439 198.334 97.0655C198.745 97.1872 199.181 97.2411 199.617 97.2241C200.053 97.2071 200.481 97.1195 200.875 96.9665C201.269 96.8135 201.622 96.5981 201.913 96.3329C202.204 96.0677 202.427 95.758 202.57 95.4218C202.712 95.0856 202.771 94.7298 202.742 94.375C202.71 93.8779 202.507 93.3983 202.156 92.991L206.253 86.6592Z" fill="#263238"/>
<path d="M213.494 135.819C212.164 135.821 210.888 136.252 209.948 137.019C209.008 137.786 208.479 138.825 208.479 139.909V175.346C208.479 176.429 209.008 177.467 209.948 178.233C210.889 178.999 212.164 179.429 213.494 179.429H266.195C267.525 179.429 268.802 178.999 269.744 178.233C270.685 177.468 271.216 176.429 271.218 175.346V139.888C271.216 138.804 270.685 137.766 269.744 137C268.802 136.235 267.525 135.805 266.195 135.805L213.494 135.819Z" stroke="#263238" stroke-linejoin="round"/>
<path d="M216.639 140.649H212.636V141.085H216.639V140.649Z" fill="#263238"/>
<path d="M216.639 144.206H212.636V144.642H216.639V144.206Z" fill="#263238"/>
<path d="M216.639 147.763H212.636V148.199H216.639V147.763Z" fill="#263238"/>
<path d="M216.639 151.327H212.636V151.763H216.639V151.327Z" fill="#263238"/>
<path d="M216.486 144.206H212.483V144.642H216.486V144.206Z" fill="#263238"/>
<path d="M216.639 154.883H212.636V155.319H216.639V154.883Z" fill="#263238"/>
<path d="M242.896 174.135C246.695 174.199 250.432 173.344 253.633 171.678C256.835 170.012 259.357 167.61 260.881 164.777C262.406 161.943 262.863 158.805 262.195 155.76C261.528 152.715 259.766 149.899 257.132 147.67C254.498 145.44 251.111 143.897 247.4 143.235C243.688 142.574 239.819 142.823 236.282 143.953C232.744 145.082 229.698 147.041 227.529 149.58C225.359 152.12 224.164 155.126 224.094 158.219C223.999 162.358 225.925 166.36 229.45 169.344C232.976 172.328 237.812 174.051 242.896 174.135ZM243.568 147.465C246.257 147.509 248.87 148.202 251.076 149.455C253.282 150.709 254.982 152.466 255.961 154.506C256.939 156.546 257.153 158.776 256.575 160.915C255.997 163.054 254.653 165.005 252.712 166.521C250.772 168.038 248.323 169.052 245.674 169.436C243.026 169.819 240.297 169.555 237.834 168.676C235.37 167.797 233.282 166.342 231.833 164.497C230.385 162.652 229.641 160.498 229.696 158.309C229.769 155.373 231.272 152.582 233.874 150.548C236.475 148.515 239.962 147.406 243.568 147.465Z" fill="#3A4753"/>
<path opacity="0.2" d="M242.896 174.135C246.695 174.199 250.432 173.344 253.633 171.678C256.835 170.012 259.357 167.61 260.881 164.777C262.406 161.943 262.863 158.805 262.195 155.76C261.528 152.715 259.766 149.899 257.132 147.67C254.498 145.44 251.111 143.897 247.4 143.235C243.688 142.574 239.819 142.823 236.282 143.953C232.744 145.082 229.698 147.041 227.529 149.58C225.359 152.12 224.164 155.126 224.094 158.219C223.999 162.358 225.925 166.36 229.45 169.344C232.976 172.328 237.812 174.051 242.896 174.135ZM243.568 147.465C246.257 147.509 248.87 148.202 251.076 149.455C253.282 150.709 254.982 152.466 255.961 154.506C256.939 156.546 257.153 158.776 256.575 160.915C255.997 163.054 254.653 165.005 252.712 166.521C250.772 168.038 248.323 169.052 245.674 169.436C243.026 169.819 240.297 169.555 237.834 168.676C235.37 167.797 233.282 166.342 231.833 164.497C230.385 162.652 229.641 160.498 229.696 158.309C229.769 155.373 231.272 152.582 233.874 150.548C236.475 148.515 239.962 147.406 243.568 147.465Z" fill="black"/>
<path d="M229.5 169.692C231.308 171.177 233.457 172.357 235.825 173.165C238.193 173.974 240.733 174.394 243.301 174.403C245.868 174.412 248.413 174.01 250.789 173.218C253.166 172.426 255.327 171.261 257.15 169.789C257.217 169.728 257.254 169.649 257.254 169.568C257.254 169.486 257.217 169.407 257.15 169.346L253.164 166.08C253.129 166.05 253.087 166.026 253.04 166.009C252.993 165.993 252.943 165.984 252.892 165.983C252.789 165.988 252.691 166.02 252.611 166.073C251.358 167.097 249.861 167.901 248.213 168.438C246.564 168.975 244.798 169.232 243.023 169.194H242.08C239.195 169.063 236.443 168.16 234.251 166.627C234.056 166.481 233.852 166.336 233.665 166.184C231.426 164.364 230.049 161.958 229.776 159.391C229.504 156.825 230.355 154.263 232.177 152.157C232.195 152.138 232.209 152.117 232.22 152.095C232.305 151.998 232.398 151.915 232.5 151.818C233.808 150.47 235.494 149.398 237.417 148.692C239.341 147.986 241.444 147.667 243.55 147.763C243.601 147.764 243.651 147.757 243.698 147.742C243.744 147.727 243.787 147.705 243.823 147.676C243.86 147.648 243.889 147.614 243.909 147.577C243.929 147.539 243.94 147.499 243.941 147.458L244.052 142.87C244.054 142.787 244.016 142.706 243.947 142.646C243.877 142.585 243.78 142.549 243.678 142.545C239.787 142.492 235.965 143.385 232.701 145.111C229.438 146.836 226.881 149.316 225.358 152.231C223.836 155.147 223.416 158.366 224.154 161.477C224.892 164.587 226.753 167.448 229.5 169.692Z" fill="#263238"/>
<path d="M243.687 142.552C248.985 142.557 254.064 144.274 257.807 147.326C261.55 150.379 263.652 154.516 263.649 158.83C263.646 163.143 261.539 167.279 257.792 170.328C254.045 173.377 248.963 175.09 243.665 175.09C238.367 175.09 233.286 173.377 229.539 170.328C225.791 167.279 223.685 163.143 223.682 158.83C223.679 154.516 225.78 150.379 229.524 147.326C233.267 144.274 238.346 142.557 243.644 142.552H243.687ZM242.905 173.81C246.626 173.872 250.287 173.034 253.424 171.403C256.561 169.771 259.033 167.419 260.527 164.643C262.022 161.868 262.472 158.794 261.82 155.81C261.169 152.826 259.445 150.067 256.867 147.881C254.289 145.695 250.972 144.181 247.337 143.529C243.701 142.878 239.91 143.119 236.443 144.222C232.976 145.325 229.988 147.24 227.858 149.725C225.728 152.211 224.551 155.154 224.477 158.184C224.376 162.246 226.261 166.174 229.717 169.106C233.172 172.037 237.915 173.731 242.905 173.817V173.81ZM243.576 147.14C246.336 147.186 249.017 147.897 251.281 149.183C253.545 150.469 255.289 152.273 256.293 154.367C257.298 156.46 257.517 158.749 256.923 160.944C256.33 163.138 254.95 165.141 252.958 166.697C250.967 168.254 248.453 169.294 245.735 169.688C243.017 170.081 240.217 169.809 237.689 168.907C235.161 168.004 233.018 166.512 231.532 164.618C230.045 162.724 229.282 160.514 229.339 158.267C229.415 155.255 230.957 152.39 233.627 150.303C236.297 148.217 239.876 147.079 243.576 147.14ZM243.024 169.222C245.631 169.265 248.195 168.678 250.392 167.535C252.589 166.392 254.321 164.744 255.368 162.799C256.414 160.855 256.729 158.702 256.273 156.612C255.816 154.522 254.608 152.589 252.802 151.057C250.996 149.526 248.673 148.465 246.127 148.009C243.58 147.553 240.924 147.721 238.496 148.494C236.067 149.266 233.974 150.608 232.482 152.349C230.989 154.09 230.165 156.152 230.112 158.274C230.044 161.119 231.365 163.869 233.786 165.92C236.207 167.972 239.53 169.157 243.024 169.215V169.222Z" fill="#263238"/>
<path d="M144.22 192.466V234.443" stroke="#263238" stroke-width="0.879169" stroke-linecap="round" stroke-linejoin="round"/>
<path d="M152.507 208.306H148.13V232.339H152.507V208.306Z" fill="#263238"/>
<path d="M158.763 218.111H154.386V232.332H158.763V218.111Z" fill="#3A4753"/>
<path d="M166.116 200.535H161.738V232.339H166.116V200.535Z" fill="white" stroke="#263238" stroke-width="0.879169" stroke-linejoin="round"/>
<path d="M178.322 195.947H173.944V232.332H178.322V195.947Z" fill="#263238"/>
<path d="M184.586 223.336H180.208V232.339H184.586V223.336Z" fill="#3A4753"/>
<path d="M191.939 210.852H187.561V232.339H191.939V210.852Z" fill="white" stroke="#263238" stroke-width="0.879169" stroke-linejoin="round"/>
<path d="M209.772 214.139H205.394V232.332H209.772V214.139Z" fill="#263238"/>
<path d="M216.036 200.023H211.659V232.332H216.036V200.023Z" fill="#3A4753"/>
<path d="M223.389 207.157H219.011V232.332H223.389V207.157Z" fill="white" stroke="#263238" stroke-width="0.879169" stroke-linejoin="round"/>
<path d="M139.519 226.775H141.967" stroke="#263238" stroke-width="0.879169" stroke-linecap="round" stroke-linejoin="round"/>
<path d="M139.519 221.592H141.967" stroke="#263238" stroke-width="0.879169" stroke-linecap="round" stroke-linejoin="round"/>
<path d="M139.519 216.416H141.967" stroke="#263238" stroke-width="0.879169" stroke-linecap="round" stroke-linejoin="round"/>
<path d="M139.519 211.233H141.967" stroke="#263238" stroke-width="0.879169" stroke-linecap="round" stroke-linejoin="round"/>
<path d="M139.519 206.05H141.967" stroke="#263238" stroke-width="0.879169" stroke-linecap="round" stroke-linejoin="round"/>
<path d="M139.519 200.867H141.967" stroke="#263238" stroke-width="0.879169" stroke-linecap="round" stroke-linejoin="round"/>
<path d="M139.519 195.684H141.967" stroke="#263238" stroke-width="0.879169" stroke-linecap="round" stroke-linejoin="round"/>
<path d="M141.321 232.339H226.457" stroke="#263238" stroke-width="0.879169" stroke-linecap="round" stroke-linejoin="round"/>
<path opacity="0.3" d="M158.763 218.111H154.386V232.332H158.763V218.111Z" fill="black"/>
<path opacity="0.3" d="M184.586 223.336H180.208V232.339H184.586V223.336Z" fill="black"/>
<path opacity="0.3" d="M216.036 200.023H211.659V232.332H216.036V200.023Z" fill="black"/>
<path d="M136.043 186.639C134.576 186.641 133.169 187.116 132.132 187.961C131.095 188.805 130.511 189.95 130.509 191.144V232.325C130.511 233.52 131.095 234.666 132.132 235.511C133.169 236.357 134.575 236.833 136.043 236.837H229.925C231.393 236.833 232.801 236.357 233.839 235.511C234.877 234.666 235.463 233.521 235.467 232.325V191.13C235.465 189.934 234.88 188.788 233.841 187.942C232.802 187.096 231.394 186.62 229.925 186.619L136.043 186.639Z" stroke="#263238" stroke-linejoin="round"/>
<path d="M61.7526 278.696C61.7526 278.696 63.7161 289.367 58.9646 290.46C54.2131 291.553 50.9151 290.114 50.3201 288.516C49.7251 286.917 53.9326 275.499 53.9326 275.499L61.7526 278.696Z" fill="white"/>
<path d="M144.398 281.056L165.053 285.042C165.053 285.042 166.617 285.734 166.447 286.876C166.277 288.017 156.851 290.944 154.207 291.311C151.564 291.678 136.306 293.297 134.139 291.782C131.971 290.266 136.553 278.184 136.553 278.184L144.398 281.056Z" fill="white"/>
<path d="M106.998 86.4446C106.998 86.4446 109.905 90.0154 109.948 91.8215C109.99 93.6276 109.718 95.6898 111.078 96.7554C112.438 97.8211 113.484 98.9837 112.923 99.5234C112.362 100.063 111.282 101.115 111.282 101.115C111.282 101.115 112.685 107.198 110.866 108.298C109.047 109.398 103.581 108.298 103.581 108.298V112.229C103.581 112.229 95.8121 110.153 90.4486 110.54L89.4966 102.118C89.4966 102.118 101.15 83.8773 106.998 86.4446Z" fill="white"/>
<path d="M154.785 111.329C154.785 111.329 154.088 107.011 156.672 104.409C156.672 104.409 153.578 103.98 153.952 103.066C154.326 102.153 159.052 103.35 159.052 103.35L157.777 101.274C157.777 101.274 153.315 100.07 153.867 98.9422C154.42 97.8142 160.965 100.589 160.965 100.589C160.965 100.589 157.08 97.9457 157.624 96.8454C158.168 95.7451 162.121 95.7659 164.229 101.468L165.3 100.382C165.3 100.382 165.682 93.8906 166.779 93.5376C166.779 93.5376 168.479 94.2988 168.479 98.0287C168.479 98.0287 170.179 99.6964 169.099 101.108C168.02 102.52 165.478 105.696 163.319 106.886C161.16 108.077 161.169 112.72 161.169 112.72L154.785 111.329Z" fill="white"/>
<path d="M86.377 75.8363L87.3545 74.7706C87.3545 74.7706 98.294 70.7985 98.022 69.5598C97.75 68.3212 91.5535 70.0304 90.372 69.373C90.372 69.373 91.5025 57.6505 90.372 57.2699C89.2415 56.8893 87.9835 62.7713 87.9835 62.7713C87.9835 62.7713 86.394 56.7371 85.17 56.9101C83.946 57.0831 84.456 63.1381 84.456 63.1381C84.456 63.1381 82.1185 59.256 81.209 59.6158C80.2995 59.9756 81.6595 64.7089 81.6595 64.7089C81.6595 64.7089 79.9595 63.0827 79.2795 63.574C79.5035 66.019 80.3273 68.4026 81.702 70.584L79.339 73.8364L86.377 75.8363Z" fill="white"/>
<path d="M153.603 111.357L161.143 112.215C161.143 112.215 155.626 150.275 154.003 154.973C152.379 159.672 150.917 163.049 145.375 163.277C139.833 163.506 120.088 149.991 120.088 149.991L119.17 168.675L120.453 176.425C120.453 176.425 96.305 186.757 71.7485 177.768L72.301 168.675L63.4525 127.086L56.491 107.336L78.9565 72.66L87.0995 76.12L72.7345 107.682L76.755 118.221L81.2515 116.754L86.224 111.592C86.224 111.592 94.656 108.028 105.323 112.976L107.023 117.308C107.023 117.308 119.535 118.076 140.658 141.915L153.603 111.357Z" fill="#3A4753"/>
<path opacity="0.2" d="M99.7051 111.357L100.657 116.685C100.657 116.685 107.678 120.477 110.5 121.792C110.5 121.792 117.402 157.278 112.294 164.26L106.913 171.118C106.913 171.118 112.413 171.118 114.946 167.983C114.946 167.983 111.792 176.55 103.615 178.854C103.615 178.854 116.17 177.789 120.488 176.432L119.204 168.682L121.27 125.467C121.27 125.467 123.216 122.574 107.032 117.391L104.644 112.72L99.7051 111.357Z" fill="black"/>
<path d="M106.998 86.929C106.998 86.929 109.633 90.0707 109.948 91.8215C110.262 93.5722 109.327 95.5029 111.078 96.7554C112.829 98.008 113.628 98.8314 112.923 99.5234C112.217 100.215 111.282 101.115 111.282 101.115C111.282 101.115 111.996 107.045 110.866 108.298C109.735 109.551 103.581 108.298 103.581 108.298V112.229" stroke="#263238" stroke-linecap="round" stroke-linejoin="round"/>
<path d="M103.581 100.852C103.581 100.852 101.116 95.669 99.2715 96.9215C97.427 98.174 99.0675 105.025 103.581 103.523" stroke="#263238" stroke-linecap="round" stroke-linejoin="round"/>
<path d="M102.91 99.648C102.91 99.648 105.842 99.4542 103.989 93.856C102.136 88.2577 106.148 89.012 110.458 87.4204C114.767 85.8288 115.796 82.9085 114.869 81.1578C113.943 79.407 112.404 78.4797 106.964 79.317C106.964 79.317 101.014 73.7188 95.268 79.9052C95.268 79.9052 82.331 79.7392 78.846 84.7492C75.361 89.7593 79.9765 102.547 86.751 106.81C93.5255 111.073 100.147 107.661 101.524 103.655C101.524 103.655 96.9085 101.627 99.2715 96.9492C99.2715 96.9215 101.422 96.2987 102.91 99.648Z" fill="#263238"/>
<path d="M62.781 123.93C62.781 123.93 94.0865 105.447 121.371 123.93L119.17 168.647L120.454 176.398C120.454 176.398 97.3845 185.193 71.7485 177.74L72.301 168.647L62.781 123.93Z" stroke="#263238" stroke-linecap="round" stroke-linejoin="round"/>
<path d="M80.8352 117.211L86.2242 111.62C86.2242 111.62 96.7897 108.644 105.324 113.004L107.024 117.336" stroke="#263238" stroke-linecap="round" stroke-linejoin="round"/>
<path d="M121.372 123.93L148.631 149.451" stroke="#263238" stroke-linecap="round" stroke-linejoin="round"/>
<path d="M120.114 149.472C120.114 149.472 138.176 163.153 145.376 163.312C152.575 163.471 153.774 156.392 153.774 156.392L161.143 112.242L153.604 111.384L140.633 141.991" stroke="#263238" stroke-linecap="round" stroke-linejoin="round"/>
<path d="M161.016 112.104C161.016 112.104 161.959 107.115 164.416 105.98C166.872 104.845 169.788 100.444 168.853 99.1774C167.918 97.9111 165.062 102.028 162.486 102.817C159.911 103.606 157.82 107.481 157.463 109.163" stroke="#263238" stroke-linecap="round" stroke-linejoin="round"/>
<path d="M168.062 98.9975C168.062 98.9975 168.062 93.2331 166.761 93.503C165.461 93.7729 165.282 101.074 165.282 101.074" stroke="#263238" stroke-linecap="round" stroke-linejoin="round"/>
<path d="M164.33 101.814C164.33 101.814 163.48 98.5823 161.143 97.0045C158.805 95.4268 157.343 96.2779 157.607 96.8108C157.87 97.3436 161.857 101.655 161.763 103.122" stroke="#263238" stroke-linecap="round" stroke-linejoin="round"/>
<path d="M160.285 100.215C160.285 100.215 153.867 97.8211 153.85 99.2536C153.833 100.686 157.76 101.24 157.76 101.24L159.035 103.316C159.035 103.316 153.629 101.932 153.935 103.032C154.241 104.132 156.655 104.374 156.655 104.374C156.655 104.374 154.029 106.492 154.768 111.294" stroke="#263238" stroke-linecap="round" stroke-linejoin="round"/>
<path d="M116.739 176.917L118.38 186.273C118.38 186.273 133.484 223.163 135.779 230.374C138.074 237.584 139.392 253.902 140.029 261.382C140.667 268.863 145.979 281.45 145.979 281.45C145.979 281.45 145.325 286.53 134.164 285.727C134.164 285.727 129.566 270.759 124.644 261.936C119.723 253.113 119 239.73 119 239.73L95.0301 203.912C95.0301 203.912 90.1256 224.769 86.8276 232.512C83.4276 240.498 60.2481 284.806 61.8716 281.699C61.8716 281.699 58.5906 283.305 51.6716 279.291C51.6716 279.291 56.5931 265.929 57.9021 258.711C59.2111 251.494 66.1131 234.92 66.1131 234.92C66.1131 234.92 67.7536 203.649 70.3631 194.023C70.3631 194.023 68.6631 183.422 72.2926 175.934C86.6786 179.759 102.119 180.1 116.739 176.917Z" fill="#263238"/>
<path d="M81.8977 197.628L92.6587 200.175L94.2227 203.282" stroke="white" stroke-linecap="round" stroke-linejoin="round"/>
<path d="M134.402 284.633C134.402 284.633 132.949 290.564 134.139 291.782C134.768 292.418 136.638 292.301 137.539 292.315C139.613 292.349 141.695 292.239 143.769 292.128C147.917 291.906 152.167 291.941 156.171 290.896C159.543 290.071 162.765 288.881 165.75 287.36C167.382 286.474 165.75 285.042 165.75 285.042L145.988 281.43" stroke="#263238" stroke-linecap="round" stroke-linejoin="round"/>
<path d="M134.3 289.692C134.3 289.692 156.511 292.661 165.75 285.042" stroke="#263238" stroke-linecap="round" stroke-linejoin="round"/>
<path d="M52.5301 278.696C52.5301 278.696 49.9801 285.817 50.3541 288.059C50.7281 290.301 53.4906 290.827 56.7206 290.765C59.9506 290.702 61.2766 289.526 61.7526 287.747C62.2286 285.969 61.7526 280.218 61.7526 280.218" stroke="#263238" stroke-linecap="round" stroke-linejoin="round"/>
<path d="M50.3201 286.972L61.7526 287.747" stroke="#263238" stroke-linecap="round" stroke-linejoin="round"/>
<path d="M80.1636 72.8814C81.1326 71.4421 81.7021 70.5632 81.7021 70.5632C81.7021 70.5632 78.5486 64.356 79.3391 63.5948C80.1296 62.8336 81.9571 64.9788 81.9571 64.9788C81.9571 64.9788 80.0871 60.0448 81.2686 59.6227C82.4501 59.2006 84.5581 63.7747 84.5581 63.7747C84.5581 63.7747 84.0056 57.1661 85.2296 56.8547C86.4536 56.5433 87.9241 63.1381 87.9241 63.1381C87.9241 63.1381 89.5051 57.2699 90.4741 57.2146C91.4431 57.1592 90.4741 69.3176 90.4741 69.3176C92.4291 70.0996 98.1751 68.1897 98.1241 69.7328C98.0731 71.276 87.0741 74.826 87.0741 74.826C86.8817 75.0292 86.7137 75.247 86.5726 75.4764" stroke="#263238" stroke-linecap="round" stroke-linejoin="round"/>
<path d="M62.781 123.93L56.491 107.336L78.9565 72.6808L87.0995 76.1477L72.7345 107.71L76.755 118.249" stroke="#263238" stroke-linecap="round" stroke-linejoin="round"/>
<path d="M63.512 104.713C63.512 104.713 71.57 104.658 72.7345 107.71C69.2047 107.55 65.708 108.338 62.781 109.952" stroke="#263238" stroke-linecap="round" stroke-linejoin="round"/>
<path d="M90.134 110.9V106.091" stroke="#263238" stroke-linecap="round" stroke-linejoin="round"/>
<path opacity="0.2" d="M121.236 137.314L123.25 148.226C123.25 148.226 124.899 141.106 125.928 141.106C126.956 141.106 125.928 149.451 125.928 149.451C125.928 149.451 142.826 161.907 150.136 161.976C150.136 161.976 146.073 164.302 142.001 162.572C137.93 160.842 120.08 149.424 120.08 149.424L121.236 137.314Z" fill="black"/>
<path opacity="0.2" d="M85.6545 75.5318L70.2015 106.091C70.2015 106.091 64.821 106.021 62.781 109.952L71.043 108.748L73.8225 119.128L76.755 118.221L72.7345 107.682L87.0995 76.12L85.6545 75.5318Z" fill="black"/>
<path d="M298.613 129.273L292.527 118.692L268.608 131.556L288.345 160.025L303.739 152.911L298.613 129.273Z" fill="white"/>
<path d="M318.325 220.789C318.325 220.789 322.192 229.529 322.762 233.785C323.331 238.041 321.589 255.964 321.963 260.905C322.337 265.846 325.618 280.592 325.618 280.592C325.618 280.592 309.527 290.114 304.419 287.049C304.419 287.049 315.758 279.575 316.905 276.599L313.233 256.4L309.587 232.512C309.587 232.512 308.66 227.523 307.368 224.955C306.076 222.388 306.272 216.942 306.272 216.942L318.325 220.789Z" fill="white"/>
<path d="M317.985 220.014C317.985 220.014 322.167 229.218 323.145 235.827C324.122 242.435 321.181 257.424 322.15 264.642C323.119 271.859 324.114 275.852 325.831 279.651L324.981 290.799H322.779L321.929 284.474C321.929 284.474 318.478 283.305 316.387 287.353C314.296 291.401 306.57 291.934 302.906 289.588C302.906 289.588 302.906 287.775 305.66 286.177C308.414 284.578 315.605 279.582 316.914 276.599C316.914 276.599 312.987 255.839 312.069 249.113C311.151 242.387 309.715 230.159 307.879 226.215C306.043 222.27 306.051 216.631 306.051 216.631" stroke="#263238" stroke-linecap="round" stroke-linejoin="round"/>
<path d="M324.989 277.561C324.989 277.561 314.202 287.111 305.15 287.048" stroke="#263238" stroke-linecap="round" stroke-linejoin="round"/>
<path d="M304.419 287.049C305.915 287.184 307.43 287.03 308.839 286.599C311.278 285.907 320.059 282.447 324.377 278.08L325.703 279.305L325.006 290.543L322.787 290.799L321.937 284.474C321.937 284.474 319.098 283.416 317.271 286.017C315.443 288.619 314.126 290.405 310.93 290.979C307.734 291.553 302.914 289.595 302.914 289.595C302.914 289.595 302.073 288.564 304.419 287.049Z" fill="#263238"/>
<path d="M325.847 221.087C326.861 224.121 328.093 227.104 329.536 230.021C331.466 233.626 348.134 270.088 348.134 270.088C348.134 270.088 349.401 289.823 356.498 289.761C363.596 289.699 356.218 275.97 356.218 275.97L351.9 268.448C351.9 268.448 350.251 246.352 348.211 238.228L339.524 219.177L325.847 221.087Z" fill="white"/>
<path d="M339.617 219.814C339.617 219.814 346.749 233.024 348.219 238.228C349.69 243.432 351.169 266.842 351.908 268.448C352.648 270.053 364.446 287.055 357.314 290.46C350.183 293.865 348.5 270.849 348.5 270.849C348.5 270.849 332.035 233.619 329.57 230.021C327.105 226.422 324.411 216.008 324.411 216.008L339.617 219.814Z" stroke="#263238" stroke-linecap="round" stroke-linejoin="round"/>
<path d="M358.7 281.734C358.7 281.734 358.207 286.343 356.337 286.993C354.467 287.644 350.336 282.447 350.336 282.447" stroke="#263238" stroke-linecap="round" stroke-linejoin="round"/>
<path d="M350.353 283.243C350.353 283.243 352.903 291.104 356.303 290.771C359.703 290.439 360.315 286.073 358.709 282.703C358.709 282.703 358.139 286.163 356.346 286.993C354.535 287.014 350.353 283.243 350.353 283.243Z" fill="#263238"/>
<path d="M320.254 151.098C320.254 151.098 328.848 160.648 334.806 176.01C340.765 191.373 340.153 220.796 340.153 220.796C340.153 220.796 317.976 226.602 296.48 219.226L300.415 152.932C300.415 152.932 314.245 153.14 320.254 151.098Z" fill="#263238"/>
<path d="M309.153 81.8428C309.153 81.8428 302.472 86.936 301.69 90.2714C301.045 92.606 300.01 94.8575 298.613 96.963C299.332 97.8484 300.385 98.5189 301.614 98.873C301.614 98.873 302.047 105.703 304.487 106.229L310.318 104.983L310.938 107.91L319.302 105.322V101.378L325.677 97.9872L323.408 89.1227L313.038 85.1783L309.153 81.8428Z" fill="white"/>
<path d="M300.373 152.399L299.633 142.822C299.633 142.822 294.193 134.518 295.919 131.501C297.823 128.186 309.264 115.91 309.264 115.91L308.142 109.211L324.173 103.62L324.938 109.211L323 110.381L325.15 114.132C325.15 114.132 325.286 113.017 329.009 118.671C332.732 124.325 346.757 144.441 347.862 148.303C348.967 152.164 326.051 165.769 318.316 168.979C318.316 168.979 317.424 167.422 308.235 173.131C305.898 172.799 302.668 171.09 301.979 170.031C301.291 168.973 304.623 166.454 304.623 166.454C304.623 166.454 306.629 163.367 310.173 165.838H313.947L335.546 149.472L324.598 136.428L320.254 151.077C320.254 151.077 306.204 154.551 300.373 152.399Z" fill="white"/>
<path d="M308.142 109.211L309.289 116.055L324.938 109.211L324.173 103.62L308.142 109.211Z" stroke="#263238" stroke-linecap="round" stroke-linejoin="round"/>
<path d="M309.289 116.055C309.289 116.055 295.052 130.234 295.434 133.03C295.817 135.826 299.633 142.822 299.633 142.822L300.415 152.925C300.415 152.925 311.933 153.181 320.254 151.098L324.598 136.449" stroke="#263238" stroke-linecap="round" stroke-linejoin="round"/>
<path d="M335.546 149.472L313.488 122.401C313.488 122.401 311.321 116.173 316.54 113.952C321.759 111.73 326.298 114.547 327.921 116.028C329.545 117.509 347.055 144.974 347.871 148.275C348.687 151.576 330.191 164.779 319.489 168.343C319.489 168.343 314.619 170.723 314.619 165.838L335.546 149.472Z" stroke="#263238" stroke-linecap="round" stroke-linejoin="round"/>
<path d="M324.938 114.132L322.872 110.118" stroke="#263238" stroke-linecap="round" stroke-linejoin="round"/>
<path d="M314.619 165.865H310.182C310.182 165.865 306.723 163.347 305.082 165.865C303.442 168.384 301.367 168.883 301.988 170.059C302.608 171.235 306.162 173.581 308.244 173.159C310.327 172.737 316.2 168.848 316.2 168.848" stroke="#263238" stroke-linecap="round" stroke-linejoin="round"/>
<path d="M307.555 83.6351C307.555 83.6351 302.345 87.3442 301.767 89.3995C301.189 91.4547 301.435 94.9355 298.613 96.963C298.613 96.963 298.758 98.6238 301.614 98.873C301.614 98.873 303.076 105.426 304.487 106.229C305.898 107.032 314.534 103.406 317.917 101.911C318.78 101.429 319.408 100.717 319.693 99.8971" stroke="#263238" stroke-linecap="round" stroke-linejoin="round"/>
<path d="M303.509 100.873C305.107 100.653 306.548 99.9608 307.555 98.9283" stroke="#263238" stroke-linecap="round" stroke-linejoin="round"/>
<path d="M303.509 91.3924C303.509 91.3924 305.566 90.4167 306.697 92.036" stroke="#263238" stroke-linecap="round" stroke-linejoin="round"/>
<path d="M304.92 94.8732C304.92 95.4337 304.725 95.8904 304.41 95.9043C304.096 95.9181 303.807 95.4752 303.773 94.9216C303.739 94.368 303.968 93.8975 304.283 93.8836C304.597 93.8698 304.886 94.3127 304.92 94.8732Z" fill="#263238"/>
<path d="M310.318 104.983L311.006 108.215" stroke="#263238" stroke-linecap="round" stroke-linejoin="round"/>
<path d="M316.999 94.4441C316.999 94.4441 318.274 92.4304 319.693 93.6068C321.113 94.7832 323.807 100.222 316.54 98.9283C316.54 98.9283 316.055 102.25 319.693 103.08C323.331 103.911 330.242 99.3297 330.471 91.517C330.701 83.7043 321.436 78.4313 316.54 79.9398C316.54 79.9398 309.442 70.8816 302.404 74.7429C295.366 78.6043 300.109 84.5486 298.613 85.891C297.117 87.2335 293.921 85.9741 293.819 89.5794C293.717 93.1847 301.121 92.818 301.121 92.818L302.013 88.8459L308.142 83.6351C308.142 83.6351 306.697 87.3996 309.153 90.6728C311.372 93.6207 316.999 94.4441 316.999 94.4441Z" fill="#263238"/>
<path d="M330.471 91.517C330.471 91.517 333.871 92.1398 333.497 95.8835C333.123 99.6272 325.448 108.831 326.026 114.132L345.839 144.192C345.839 144.192 354.756 142.808 354.339 135.334C353.923 127.861 343.043 121.564 345.142 116.055C347.242 110.547 355.487 96.5202 343.808 88.4791C332.129 80.4381 313.922 92.7626 313.922 92.7626L322.838 90.4236L330.471 91.517Z" fill="#263238"/>
<path d="M297.848 128.657L292.527 118.692L268.608 131.556L288.345 160.025L300.313 154.662" stroke="#263238" stroke-linecap="round" stroke-linejoin="round"/>
<path d="M276.054 145.638C276.054 145.638 274.762 143.465 276.488 142.268C278.213 141.071 284.138 137.521 284.138 138.393C284.177 138.605 284.161 138.821 284.091 139.027C284.02 139.233 283.897 139.425 283.73 139.59C282.03 141.445 277.958 144.434 278.222 144.676C278.222 144.676 285.651 140.663 286.365 141.043C286.543 141.14 286.441 141.659 285.821 142.164C283.785 143.64 281.636 145.008 279.386 146.261C279.386 146.261 287.223 143.791 288.235 144.185C288.524 144.296 288.464 144.656 287.555 145.105C285.279 146.112 282.938 147.018 280.542 147.818L282.506 150.489C282.506 150.489 278.8 151.015 276.054 145.638Z" fill="white" stroke="#263238" stroke-linecap="round" stroke-linejoin="round"/>
<path d="M318.758 100.873L319.302 105.322" stroke="#263238" stroke-linejoin="round"/>
<path d="M64.7784 150.594C64.7784 150.594 51.1784 202.715 89.1394 248.132C127.1 293.55 193.375 311.212 246.619 326.754C299.863 342.296 349.732 324.345 368.441 284.339C387.149 244.332 349.358 222.779 341.028 170.529C332.698 118.279 339.328 103.231 300.483 63.4448C261.638 23.6588 181.866 24.6088 127.933 65.4512C74.0009 106.294 64.7784 150.594 64.7784 150.594Z" fill="#3A4753"/>
<path opacity="0.7" d="M64.7784 150.594C64.7784 150.594 51.1784 202.715 89.1394 248.132C127.1 293.55 193.375 311.212 246.619 326.754C299.863 342.296 349.732 324.345 368.441 284.339C387.149 244.332 349.358 222.779 341.028 170.529C332.698 118.279 339.328 103.231 300.483 63.4448C261.638 23.6588 181.866 24.6088 127.933 65.4512C74.0009 106.294 64.7784 150.594 64.7784 150.594Z" fill="white"/>
<path d="M279.31 192.014L275.8 187.006H244.894V192.014V193.815V277.119H372.096V192.014H279.31Z" fill="#263238"/>
<path d="M371.263 194.309H245.837V275.302H371.263V194.309Z" fill="white"/>
<path opacity="0.17" d="M371.875 193.618H368.959V275.918H371.875V193.618Z" fill="black"/>
<path opacity="0.17" d="M371.875 243.375H368.959V275.249H371.875V243.375Z" fill="black"/>
<path d="M371.424 193.215H245.335V197.623H371.424V193.215Z" fill="#3A4753" stroke="#263238" stroke-miterlimit="10"/>
<path d="M371.263 194.309H245.837V275.302H371.263V194.309Z" stroke="#263238" stroke-linecap="round" stroke-linejoin="round"/>
<g opacity="0.17">
<path opacity="0.17" d="M311.185 201.864H302.413C302.311 201.865 302.21 201.847 302.116 201.813C302.021 201.779 301.936 201.728 301.863 201.663C301.791 201.599 301.734 201.522 301.696 201.438C301.658 201.354 301.638 201.263 301.639 201.172C301.639 200.989 301.721 200.813 301.866 200.683C302.011 200.553 302.208 200.48 302.413 200.48H311.185C311.39 200.48 311.587 200.553 311.732 200.683C311.877 200.813 311.958 200.989 311.958 201.172C311.958 201.355 311.877 201.531 311.732 201.661C311.587 201.791 311.39 201.864 311.185 201.864Z" fill="black"/>
<path opacity="0.17" d="M328.738 201.864H319.957C319.752 201.864 319.555 201.791 319.41 201.661C319.265 201.531 319.184 201.355 319.184 201.172C319.184 200.989 319.265 200.813 319.41 200.683C319.555 200.553 319.752 200.48 319.957 200.48H328.738C328.839 200.48 328.94 200.498 329.034 200.533C329.127 200.568 329.213 200.619 329.285 200.683C329.356 200.747 329.413 200.823 329.452 200.907C329.491 200.991 329.511 201.081 329.511 201.172C329.511 201.263 329.491 201.353 329.452 201.437C329.413 201.521 329.356 201.597 329.285 201.661C329.213 201.725 329.127 201.776 329.034 201.811C328.94 201.846 328.839 201.864 328.738 201.864Z" fill="black"/>
<path opacity="0.17" d="M346.282 201.864H337.51C337.304 201.864 337.108 201.791 336.963 201.661C336.818 201.531 336.736 201.355 336.736 201.172C336.736 200.989 336.818 200.813 336.963 200.683C337.108 200.553 337.304 200.48 337.51 200.48H346.282C346.383 200.48 346.484 200.498 346.578 200.533C346.671 200.568 346.757 200.619 346.829 200.683C346.9 200.747 346.957 200.823 346.996 200.907C347.035 200.991 347.055 201.081 347.055 201.172C347.056 201.263 347.037 201.354 346.998 201.438C346.96 201.522 346.903 201.599 346.831 201.663C346.759 201.728 346.673 201.779 346.579 201.813C346.485 201.847 346.383 201.865 346.282 201.864Z" fill="black"/>
<path opacity="0.17" d="M363.8 201.864H355.062C354.96 201.865 354.858 201.847 354.763 201.813C354.669 201.779 354.582 201.728 354.51 201.664C354.437 201.599 354.379 201.523 354.34 201.438C354.3 201.354 354.28 201.263 354.28 201.172C354.282 200.988 354.366 200.812 354.512 200.683C354.658 200.553 354.856 200.48 355.062 200.48H363.8C363.902 200.48 364.002 200.498 364.096 200.533C364.19 200.568 364.275 200.619 364.347 200.683C364.419 200.747 364.476 200.823 364.515 200.907C364.554 200.991 364.574 201.081 364.574 201.172C364.574 201.263 364.554 201.353 364.515 201.437C364.476 201.521 364.419 201.597 364.347 201.661C364.275 201.725 364.19 201.776 364.096 201.811C364.002 201.846 363.902 201.864 363.8 201.864Z" fill="black"/>
</g>
<path d="M352.478 243.162H344.225V266.441H352.478V243.162Z" fill="#3A4753" stroke="#263238" stroke-miterlimit="10"/>
<path d="M343.307 258.225H335.053V266.441H343.307V258.225Z" fill="#263238" stroke="#263238" stroke-linecap="round" stroke-linejoin="round"/>
<path d="M334.135 212.344H325.882V266.433H334.135V212.344Z" fill="#3A4753" stroke="#263238" stroke-miterlimit="10"/>
<path d="M324.972 215.088H316.719V266.441H324.972V215.088Z" fill="white" stroke="#263238" stroke-linecap="round" stroke-linejoin="round"/>
<path d="M315.801 243.162H307.547V266.441H315.801V243.162Z" fill="#3A4753" stroke="#263238" stroke-miterlimit="10"/>
<path d="M306.629 235.63H298.375V266.441H306.629V235.63Z" fill="#263238" stroke="#263238" stroke-linecap="round" stroke-linejoin="round"/>
<path d="M297.466 262.329H289.213V266.441H297.466V262.329Z" fill="#3A4753" stroke="#263238" stroke-miterlimit="10"/>
<path d="M288.295 258.225H280.041V266.441H288.295V258.225Z" fill="white" stroke="#263238" stroke-linecap="round" stroke-linejoin="round"/>
<path d="M279.123 243.162H270.87V266.441H279.123V243.162Z" fill="#3A4753" stroke="#263238" stroke-miterlimit="10"/>
<path d="M281.299 222.262L284.248 237.242C281.802 237.629 279.29 237.533 276.889 236.959C274.489 236.385 272.258 235.347 270.355 233.919C268.451 232.491 266.921 230.707 265.872 228.693C264.823 226.679 264.28 224.484 264.282 222.262H281.299Z" stroke="#263238" stroke-width="0.75" stroke-linecap="round" stroke-linejoin="round"/>
<path d="M281.299 222.262L294.704 231.625C292.168 234.642 288.418 236.656 284.249 237.242L281.299 222.262Z" stroke="#263238" stroke-width="0.75" stroke-miterlimit="10"/>
<path d="M281.299 222.262L272.799 209.091C274.733 208.091 276.869 207.441 279.084 207.179C281.299 206.918 283.55 207.049 285.708 207.565C287.867 208.082 289.89 208.974 291.662 210.191C293.435 211.407 294.922 212.924 296.038 214.654C297.769 217.269 298.57 220.293 298.333 223.325C298.096 226.356 296.833 229.251 294.712 231.625L281.299 222.262Z" stroke="#263238" stroke-width="0.75" stroke-linecap="round" stroke-linejoin="round"/>
<path d="M287.168 227.502C290.408 224.605 290.408 219.909 287.168 217.012C283.928 214.115 278.676 214.115 275.436 217.012C272.196 219.909 272.196 224.605 275.436 227.502C278.676 230.399 283.928 230.399 287.168 227.502Z" fill="white" stroke="#263238" stroke-width="0.75" stroke-linecap="round" stroke-linejoin="round"/>
<path d="M305.388 282.279H325.609" stroke="#263238" stroke-miterlimit="10"/>
<path d="M305.388 285.357H325.609" stroke="#263238" stroke-miterlimit="10"/>
<path d="M305.388 288.435H325.609" stroke="#263238" stroke-miterlimit="10"/>
<path d="M305.388 291.506H325.609" stroke="#263238" stroke-miterlimit="10"/>
<path d="M348.763 263.576V288.519H329.001" stroke="#263238" stroke-miterlimit="10"/>
<path d="M118.286 62.7152L113.314 55.6244H69.53V62.7152V65.2688V183.289H249.756V62.7152H118.286Z" fill="#263238"/>
<path d="M248.565 65.968H70.8645V180.72H248.565V65.968Z" fill="white"/>
<path opacity="0.17" d="M249.441 64.98H245.318V181.587H249.441V64.98Z" fill="black"/>
<path opacity="0.17" d="M249.441 135.485H245.318V180.644H249.441V135.485Z" fill="black"/>
<path d="M248.803 64.4176H70.1589V70.6572H248.803V64.4176Z" fill="#3A4753" stroke="#263238" stroke-miterlimit="10"/>
<path d="M248.565 65.968H70.8645V180.72H248.565V65.968Z" stroke="#263238" stroke-linecap="round" stroke-linejoin="round"/>
<g opacity="0.17">
<path opacity="0.17" d="M163.455 76.6764H151.02C150.729 76.6764 150.45 76.5731 150.244 76.3893C150.039 76.2054 149.923 75.956 149.923 75.696C149.923 75.5673 149.951 75.4398 150.007 75.3208C150.062 75.2019 150.142 75.0938 150.244 75.0028C150.346 74.9117 150.467 74.8395 150.6 74.7902C150.733 74.741 150.876 74.7156 151.02 74.7156H163.455C163.599 74.7156 163.742 74.741 163.875 74.7902C164.008 74.8395 164.129 74.9117 164.23 75.0028C164.332 75.0938 164.413 75.2019 164.468 75.3208C164.523 75.4398 164.552 75.5673 164.552 75.696C164.552 75.956 164.436 76.2054 164.23 76.3893C164.025 76.5731 163.746 76.6764 163.455 76.6764Z" fill="black"/>
<path opacity="0.17" d="M188.318 76.6764H175.891C175.6 76.6764 175.321 76.5731 175.115 76.3893C174.91 76.2054 174.794 75.956 174.794 75.696C174.794 75.5673 174.823 75.4398 174.878 75.3208C174.933 75.2019 175.014 75.0938 175.115 75.0028C175.217 74.9117 175.338 74.8395 175.471 74.7902C175.604 74.741 175.747 74.7156 175.891 74.7156H188.318C188.462 74.7156 188.604 74.741 188.737 74.7902C188.87 74.8395 188.991 74.9117 189.093 75.0028C189.195 75.0938 189.276 75.2019 189.331 75.3208C189.386 75.4398 189.414 75.5673 189.414 75.696C189.414 75.956 189.299 76.2054 189.093 76.3893C188.887 76.5731 188.608 76.6764 188.318 76.6764Z" fill="black"/>
<path opacity="0.17" d="M213.18 76.6764H200.753C200.462 76.6764 200.183 76.5731 199.978 76.3893C199.772 76.2054 199.656 75.956 199.656 75.696C199.656 75.5673 199.685 75.4398 199.74 75.3208C199.795 75.2019 199.876 75.0938 199.978 75.0028C200.079 74.9117 200.2 74.8395 200.333 74.7902C200.466 74.741 200.609 74.7156 200.753 74.7156H213.18C213.324 74.7156 213.467 74.741 213.6 74.7902C213.733 74.8395 213.854 74.9117 213.955 75.0028C214.057 75.0938 214.138 75.2019 214.193 75.3208C214.248 75.4398 214.276 75.5673 214.276 75.696C214.276 75.956 214.161 76.2054 213.955 76.3893C213.75 76.5731 213.471 76.6764 213.18 76.6764Z" fill="black"/>
<path opacity="0.17" d="M238.051 76.6764H225.616C225.325 76.6764 225.046 76.5731 224.84 76.3893C224.635 76.2054 224.519 75.956 224.519 75.696C224.519 75.5673 224.547 75.4398 224.602 75.3208C224.658 75.2019 224.738 75.0938 224.84 75.0028C224.942 74.9117 225.063 74.8395 225.196 74.7902C225.329 74.741 225.472 74.7156 225.616 74.7156H238.051C238.195 74.7156 238.338 74.741 238.471 74.7902C238.604 74.8395 238.725 74.9117 238.826 75.0028C238.928 75.0938 239.009 75.2019 239.064 75.3208C239.119 75.4398 239.148 75.5673 239.148 75.696C239.148 75.956 239.032 76.2054 238.826 76.3893C238.621 76.5731 238.342 76.6764 238.051 76.6764Z" fill="black"/>
</g>
<path d="M80.563 131.913H240.635" stroke="#263238" stroke-width="0.5" stroke-miterlimit="10"/>
<path d="M80.563 131.913V130.804" stroke="#263238" stroke-width="0.5" stroke-miterlimit="10"/>
<path d="M100.572 131.913V130.804" stroke="#263238" stroke-width="0.5" stroke-miterlimit="10"/>
<path d="M120.581 131.913V130.804" stroke="#263238" stroke-width="0.5" stroke-miterlimit="10"/>
<path d="M140.59 131.913V130.804" stroke="#263238" stroke-width="0.5" stroke-miterlimit="10"/>
<path d="M160.599 131.913V130.804" stroke="#263238" stroke-width="0.5" stroke-miterlimit="10"/>
<path d="M180.608 131.913V130.804" stroke="#263238" stroke-width="0.5" stroke-miterlimit="10"/>
<path d="M200.617 131.913V130.804" stroke="#263238" stroke-width="0.5" stroke-miterlimit="10"/>
<path d="M220.626 131.913V130.804" stroke="#263238" stroke-width="0.5" stroke-miterlimit="10"/>
<path d="M240.635 131.913V130.804" stroke="#263238" stroke-width="0.5" stroke-miterlimit="10"/>
<path d="M110.577 120.376L90.5676 125.909" stroke="#263238" stroke-width="2" stroke-miterlimit="10" stroke-linecap="round"/>
<path d="M130.585 108.209L110.576 120.376" stroke="#263238" stroke-width="2" stroke-miterlimit="10" stroke-linecap="round"/>
<path d="M150.594 91.6104L130.585 108.209" stroke="#263238" stroke-width="2" stroke-miterlimit="10" stroke-linecap="round"/>
<path d="M170.603 89.9536L150.594 91.6104" stroke="#263238" stroke-width="2" stroke-miterlimit="10" stroke-linecap="round"/>
<path d="M190.613 102.121L170.604 89.9536" stroke="#263238" stroke-width="2" stroke-miterlimit="10" stroke-linecap="round"/>
<path d="M210.622 113.742L190.613 102.121" stroke="#263238" stroke-width="2" stroke-miterlimit="10" stroke-linecap="round"/>
<path d="M230.631 89.3988L210.622 113.742" stroke="#263238" stroke-width="2" stroke-miterlimit="10" stroke-linecap="round"/>
<path d="M90.5676 123.629C91.2439 123.629 91.8925 123.869 92.3707 124.297C92.8489 124.725 93.1176 125.305 93.1176 125.909C93.1176 126.514 92.8489 127.094 92.3707 127.521C91.8925 127.949 91.2439 128.189 90.5676 128.189C89.8913 128.189 89.2427 127.949 88.7645 127.521C88.2862 127.094 88.0176 126.514 88.0176 125.909C88.0176 125.305 88.2862 124.725 88.7645 124.297C89.2427 123.869 89.8913 123.629 90.5676 123.629Z" fill="#3A4753" stroke="#263238" stroke-miterlimit="10"/>
<path d="M110.577 118.096C111.253 118.096 111.902 118.337 112.38 118.764C112.858 119.192 113.127 119.772 113.127 120.376C113.127 120.981 112.858 121.561 112.38 121.989C111.902 122.416 111.253 122.656 110.577 122.656C109.9 122.656 109.252 122.416 108.773 121.989C108.295 121.561 108.027 120.981 108.027 120.376C108.027 119.772 108.295 119.192 108.773 118.764C109.252 118.337 109.9 118.096 110.577 118.096Z" fill="#3A4753" stroke="#263238" stroke-miterlimit="10"/>
<path d="M130.586 105.929C131.262 105.929 131.911 106.169 132.389 106.597C132.867 107.024 133.136 107.604 133.136 108.209C133.136 108.814 132.867 109.393 132.389 109.821C131.911 110.249 131.262 110.489 130.586 110.489C129.909 110.489 129.261 110.249 128.783 109.821C128.304 109.393 128.036 108.814 128.036 108.209C128.036 107.604 128.304 107.024 128.783 106.597C129.261 106.169 129.909 105.929 130.586 105.929Z" fill="#3A4753" stroke="#263238" stroke-miterlimit="10"/>
<path d="M150.594 89.3304C151.271 89.3304 151.919 89.5706 152.398 89.9982C152.876 90.4258 153.144 91.0057 153.144 91.6104C153.144 92.2151 152.876 92.795 152.398 93.2226C151.919 93.6502 151.271 93.8904 150.594 93.8904C149.918 93.8904 149.27 93.6502 148.791 93.2226C148.313 92.795 148.044 92.2151 148.044 91.6104C148.044 91.0057 148.313 90.4258 148.791 89.9982C149.27 89.5706 149.918 89.3304 150.594 89.3304Z" fill="#3A4753" stroke="#263238" stroke-miterlimit="10"/>
<path d="M170.603 87.6736C171.28 87.6736 171.928 87.9138 172.407 88.3414C172.885 88.769 173.153 89.3489 173.153 89.9536C173.153 90.5583 172.885 91.1382 172.407 91.5658C171.928 91.9934 171.28 92.2336 170.603 92.2336C169.927 92.2336 169.279 91.9934 168.8 91.5658C168.322 91.1382 168.053 90.5583 168.053 89.9536C168.053 89.3489 168.322 88.769 168.8 88.3414C169.279 87.9138 169.927 87.6736 170.603 87.6736Z" fill="#3A4753" stroke="#263238" stroke-miterlimit="10"/>
<path d="M190.612 99.8412C191.289 99.8412 191.937 100.081 192.416 100.509C192.894 100.937 193.162 101.517 193.162 102.121C193.162 102.726 192.894 103.306 192.416 103.733C191.937 104.161 191.289 104.401 190.612 104.401C189.936 104.401 189.288 104.161 188.809 103.733C188.331 103.306 188.062 102.726 188.062 102.121C188.062 101.517 188.331 100.937 188.809 100.509C189.288 100.081 189.936 99.8412 190.612 99.8412Z" fill="#3A4753" stroke="#263238" stroke-miterlimit="10"/>
<path d="M213.172 113.742C213.172 112.482 212.03 111.462 210.622 111.462C209.213 111.462 208.072 112.482 208.072 113.742C208.072 115.001 209.213 116.022 210.622 116.022C212.03 116.022 213.172 115.001 213.172 113.742Z" fill="#3A4753" stroke="#263238" stroke-miterlimit="10"/>
<path d="M230.631 87.1188C231.307 87.1188 231.956 87.359 232.434 87.7866C232.912 88.2142 233.181 88.7941 233.181 89.3988C233.181 90.0035 232.912 90.5834 232.434 91.011C231.956 91.4386 231.307 91.6788 230.631 91.6788C229.954 91.6788 229.306 91.4386 228.827 91.011C228.349 90.5834 228.081 90.0035 228.081 89.3988C228.081 88.7941 228.349 88.2142 228.827 87.7866C229.306 87.359 229.954 87.1188 230.631 87.1188Z" fill="#3A4753" stroke="#263238" stroke-miterlimit="10"/>
<path d="M154.802 160.618L136.85 163.453C136.01 159.188 137.099 154.8 139.877 151.252C142.656 147.705 146.896 145.289 151.666 144.537C152.713 144.376 153.774 144.295 154.836 144.294L154.802 160.618Z" fill="#263238" stroke="#263238" stroke-linecap="round" stroke-linejoin="round"/>
<path d="M154.802 160.618L143.565 173.485C139.937 171.057 137.515 167.456 136.816 163.453L154.802 160.618Z" fill="#3A4753" stroke="#263238" stroke-miterlimit="10"/>
<path d="M154.802 160.618L170.621 152.456C171.826 154.315 172.609 156.368 172.926 158.497C173.243 160.627 173.086 162.792 172.466 164.868C171.845 166.943 170.772 168.889 169.309 170.593C167.846 172.298 166.022 173.727 163.94 174.8C160.798 176.47 157.162 177.242 153.516 177.014C149.871 176.786 146.39 175.568 143.54 173.523L154.802 160.618Z" fill="white" stroke="#263238" stroke-linecap="round" stroke-linejoin="round"/>
<path d="M154.802 160.618V144.294C158.018 144.245 161.189 144.978 163.976 146.416C166.762 147.854 169.059 149.941 170.621 152.456L154.802 160.618Z" fill="#3A4753" stroke="#263238" stroke-miterlimit="10"/>
<path d="M161.099 166.252C164.578 163.141 164.578 158.098 161.099 154.988C157.621 151.877 151.98 151.877 148.502 154.988C145.023 158.098 145.023 163.141 148.502 166.252C151.98 169.362 157.621 169.362 161.099 166.252Z" fill="white" stroke="#263238" stroke-linecap="round" stroke-linejoin="round"/>
<path d="M100.785 160.649L103.955 176.73C101.593 177.103 99.172 177.056 96.8302 176.593C94.4885 176.129 92.2719 175.257 90.3072 174.026C88.3424 172.796 86.6681 171.232 85.3797 169.423C84.0914 167.614 83.2143 165.596 82.7986 163.484C82.6159 162.547 82.5221 161.599 82.5181 160.649H100.785Z" fill="#263238" stroke="#263238" stroke-linecap="round" stroke-linejoin="round"/>
<path d="M100.784 160.649L115.175 170.704C112.455 173.942 108.43 176.105 103.955 176.73L100.784 160.649Z" fill="#3A4753" stroke="#263238" stroke-miterlimit="10"/>
<path d="M100.784 160.649L91.647 146.505C95.8438 144.341 100.83 143.755 105.51 144.876C110.19 145.998 114.18 148.735 116.603 152.486C118.466 155.296 119.327 158.547 119.072 161.806C118.817 165.064 117.458 168.176 115.175 170.726L100.784 160.649Z" fill="white" stroke="#263238" stroke-linecap="round" stroke-linejoin="round"/>
<path d="M100.784 160.649H82.518C82.4631 157.773 83.2836 154.938 84.8916 152.447C86.4995 149.955 88.8346 147.902 91.647 146.505L100.784 160.649Z" fill="#3A4753" stroke="#263238" stroke-miterlimit="10"/>
<path d="M100.784 168.614C105.704 168.614 109.692 165.048 109.692 160.649C109.692 156.25 105.704 152.684 100.784 152.684C95.8647 152.684 91.8765 156.25 91.8765 160.649C91.8765 165.048 95.8647 168.614 100.784 168.614Z" fill="white" stroke="#263238" stroke-linecap="round" stroke-linejoin="round"/>
<path d="M208.768 160.649L211.939 176.73C209.577 177.103 207.156 177.056 204.814 176.593C202.472 176.129 200.256 175.257 198.291 174.026C196.326 172.796 194.652 171.232 193.364 169.423C192.075 167.614 191.198 165.596 190.782 163.484C190.6 162.547 190.506 161.599 190.502 160.649H208.768Z" fill="#263238" stroke="#263238" stroke-linecap="round" stroke-linejoin="round"/>
<path d="M208.769 160.649L223.159 170.704C220.44 173.942 216.414 176.105 211.939 176.73L208.769 160.649Z" fill="#3A4753" stroke="#263238" stroke-miterlimit="10"/>
<path d="M208.769 160.649L199.631 146.505C203.828 144.341 208.814 143.755 213.494 144.876C218.174 145.998 222.164 148.735 224.587 152.486C226.45 155.296 227.311 158.547 227.056 161.806C226.801 165.064 225.442 168.176 223.159 170.726L208.769 160.649Z" fill="white" stroke="#263238" stroke-linecap="round" stroke-linejoin="round"/>
<path d="M208.769 160.649H190.502C190.447 157.773 191.268 154.938 192.876 152.447C194.484 149.955 196.819 147.902 199.631 146.505L208.769 160.649Z" fill="#3A4753" stroke="#263238" stroke-miterlimit="10"/>
<path d="M208.769 168.614C213.688 168.614 217.677 165.048 217.677 160.649C217.677 156.25 213.688 152.684 208.769 152.684C203.849 152.684 199.861 156.25 199.861 160.649C199.861 165.048 203.849 168.614 208.769 168.614Z" fill="white" stroke="#263238" stroke-linecap="round" stroke-linejoin="round"/>
<path d="M81.0051 83.4936H101.227" stroke="#263238" stroke-miterlimit="10"/>
<path d="M81.0051 86.564H101.227" stroke="#263238" stroke-miterlimit="10"/>
<path d="M81.0051 89.642H101.227" stroke="#263238" stroke-miterlimit="10"/>
<path d="M81.0051 92.72H101.227" stroke="#263238" stroke-miterlimit="10"/>
<path d="M238.323 90.516H258.085L281.341 108.703" stroke="#263238" stroke-linecap="round" stroke-linejoin="round"/>
<path d="M285.048 103.504H305.269" stroke="#263238" stroke-miterlimit="10"/>
<path d="M285.048 106.582H305.269" stroke="#263238" stroke-miterlimit="10"/>
<path d="M285.048 109.66H305.269" stroke="#263238" stroke-miterlimit="10"/>
<path d="M285.048 112.731H305.269" stroke="#263238" stroke-miterlimit="10"/>
<path d="M285.048 155.99H305.269" stroke="#263238" stroke-miterlimit="10"/>
<path d="M285.048 159.068H305.269" stroke="#263238" stroke-miterlimit="10"/>
<path d="M285.048 162.146H305.269" stroke="#263238" stroke-miterlimit="10"/>
<path d="M285.048 165.224H305.269" stroke="#263238" stroke-miterlimit="10"/>
<path d="M90.916 216.798H111.138" stroke="#263238" stroke-miterlimit="10"/>
<path d="M90.916 219.876H111.138" stroke="#263238" stroke-miterlimit="10"/>
<path d="M90.916 222.954H111.138" stroke="#263238" stroke-miterlimit="10"/>
<path d="M90.916 226.024H111.138" stroke="#263238" stroke-miterlimit="10"/>
<path d="M217.982 151.316L226.117 143.002H258.672L281.919 160.155" stroke="#263238" stroke-miterlimit="10"/>
<path d="M100.572 176.267V215.24" stroke="#263238" stroke-miterlimit="10"/>
<path d="M61.2001 242.174C62.8406 242.82 66.8611 242.736 66.8611 242.736C66.8611 242.736 66.0111 240.388 65.9261 240.244C65.0761 238.594 62.2541 235.874 59.9761 236.147C59.6003 236.202 59.2416 236.327 58.9234 236.514C58.6052 236.701 58.3346 236.946 58.1293 237.233C57.9241 237.52 57.7886 237.842 57.7319 238.179C57.6752 238.515 57.6984 238.859 57.8001 239.187C58.1826 240.586 59.7976 241.627 61.2001 242.174Z" fill="#263238"/>
<path d="M113.781 229.961C111.503 229.74 108.809 232.522 107.976 234.194C107.899 234.338 107.066 236.71 107.126 236.71H107.177C106.743 237.143 106.327 237.614 105.808 238.138C104.958 239.119 103.921 240.228 102.927 241.505C101.841 242.869 100.845 244.287 99.9431 245.754C98.9212 247.391 98.0677 249.108 97.3931 250.884V250.944C97.3931 250.344 97.3931 248.664 97.3931 248.543C97.1296 246.734 95.4296 243.367 93.1431 242.995C92.7672 242.943 92.3834 242.963 92.0165 243.052C91.6496 243.142 91.3077 243.299 91.0129 243.514C90.7182 243.729 90.4771 243.996 90.3052 244.3C90.1333 244.603 90.0345 244.935 90.0151 245.275C89.8876 246.711 91.0521 248.155 92.1911 249.075C93.4746 250.101 97.0361 251.096 97.2911 251.172C96.6553 252.993 96.1527 254.849 95.7866 256.728C95.5741 257.822 95.3871 258.932 95.2256 260.042C95.2256 259.525 95.2256 259.061 95.2256 258.993C94.9621 257.184 93.2706 253.825 91.0181 253.452C90.6425 253.4 90.2586 253.418 89.8916 253.507C89.5246 253.596 89.1827 253.754 88.8883 253.969C88.5938 254.184 88.3535 254.452 88.183 254.756C88.0125 255.06 87.9156 255.393 87.8986 255.732C87.7626 257.176 88.9271 258.613 90.0661 259.532C91.2051 260.452 94.2396 261.356 95.0386 261.584L94.8601 262.861C94.5881 264.913 94.3246 266.965 94.0101 268.941C93.8996 269.648 93.7551 270.34 93.6191 271.031C93.6191 270.575 93.6191 270.188 93.6191 270.127C93.3641 268.318 91.6641 264.959 89.3691 264.586C88.9935 264.534 88.6096 264.552 88.2426 264.641C87.8756 264.73 87.5337 264.888 87.2393 265.103C86.9448 265.318 86.7045 265.586 86.534 265.89C86.3635 266.194 86.2666 266.527 86.2496 266.866C86.1136 268.303 87.2866 269.747 88.4256 270.666C89.5646 271.586 92.3016 272.399 93.2536 272.68C93.0836 273.387 92.9221 274.086 92.7181 274.763C92.5736 275.226 92.4716 275.675 92.2931 276.131L91.8086 277.476C91.4686 278.32 91.1201 279.194 90.7631 280.007C90.5166 280.577 90.2701 281.116 90.0236 281.656C90.1511 280.957 90.3551 279.581 90.3636 279.46C90.3343 277.857 89.8487 276.288 88.9526 274.9C88.9698 274.723 88.9698 274.545 88.9526 274.368C88.9045 274.03 88.7775 273.706 88.5801 273.415C88.3826 273.125 88.119 272.875 87.8064 272.681C87.4938 272.488 87.1391 272.355 86.7655 272.292C86.3919 272.229 86.0076 272.237 85.6376 272.316C83.4276 272.84 82.0251 276.306 81.9231 278.13C81.9231 278.236 81.9996 279.414 82.0591 280.151C81.9486 279.718 81.8466 279.3 81.7276 278.859C81.4896 277.985 81.2346 277.119 80.9541 276.192C80.8096 275.743 80.6566 275.295 80.5036 274.839C80.3506 274.383 80.1466 273.919 79.9681 273.456C79.5261 272.384 79.0246 271.32 78.4976 270.264C79.3476 270.074 82.3821 269.39 83.5976 268.554C84.8131 267.718 86.0881 266.365 86.0796 264.921C86.0891 264.581 86.0188 264.244 85.8731 263.93C85.7275 263.617 85.5098 263.334 85.2341 263.1C84.9585 262.867 84.631 262.688 84.273 262.574C83.9149 262.461 83.5342 262.416 83.1556 262.443C80.8776 262.664 78.9056 265.901 78.4976 267.695C78.4976 267.801 78.3361 269.116 78.2766 269.838C77.9536 269.2 77.6306 268.569 77.2736 267.93C76.2621 266.099 75.1656 264.275 74.0861 262.451C73.7546 261.896 73.4316 261.334 73.1086 260.779C73.4146 260.71 77.0356 259.966 78.3956 259.031C79.6026 258.202 80.8861 256.842 80.8776 255.398C80.8872 255.059 80.8168 254.721 80.6711 254.407C80.5255 254.094 80.3078 253.811 80.0321 253.578C79.7565 253.344 79.429 253.165 79.0709 253.052C78.7129 252.938 78.3322 252.894 77.9536 252.92C75.6756 253.141 73.7036 256.378 73.2956 258.164C73.2956 258.301 73.0746 260.194 73.0491 260.672C72.3351 259.441 71.6296 258.21 71.0006 256.964C70.1291 255.292 69.3824 253.571 68.7651 251.811C68.9096 251.811 72.6836 251.051 74.0776 250.055C75.2931 249.227 76.5766 247.866 76.5596 246.422C76.5704 246.083 76.5011 245.746 76.3565 245.432C76.2118 245.119 75.9949 244.836 75.7199 244.602C75.4449 244.369 75.1179 244.189 74.7603 244.076C74.4026 243.963 74.0224 243.918 73.6441 243.945C71.3661 244.165 69.3941 247.41 68.9776 249.196C68.9776 249.333 68.7481 251.37 68.7396 251.742C68.7396 251.636 68.6546 251.537 68.6206 251.431C68.0526 249.652 67.6656 247.831 67.4646 245.989C67.3371 244.971 67.2776 243.998 67.2436 243.048C67.9661 242.964 71.2471 242.577 72.6156 241.84C73.9841 241.102 75.3611 239.909 75.5226 238.473C75.574 238.136 75.5458 237.794 75.4397 237.468C75.3336 237.142 75.1521 236.839 74.9069 236.58C74.6616 236.32 74.3582 236.11 74.0162 235.962C73.6742 235.814 73.3013 235.732 72.9216 235.722C70.6351 235.722 68.2806 238.762 67.6516 240.479C67.6516 240.578 67.3881 241.574 67.2266 242.296C67.2266 241.87 67.2266 241.422 67.2266 241.011C67.2266 239.491 67.3371 238.047 67.4476 236.793C67.5156 236.086 67.5921 235.44 67.6686 234.84C68.3316 234.437 70.9751 232.765 71.7911 231.572C72.6071 230.379 73.2361 228.73 72.6411 227.384C72.5141 227.064 72.3131 226.772 72.0513 226.526C71.7894 226.28 71.4725 226.086 71.1212 225.957C70.77 225.828 70.3922 225.767 70.0126 225.777C69.633 225.787 69.2601 225.869 68.9181 226.016C66.8866 226.951 66.3681 230.576 66.6826 232.408C66.6826 232.568 67.4816 234.954 67.5326 234.931H67.5751C67.4816 235.509 67.3966 236.132 67.3116 236.808C67.1756 238.062 67.0311 239.476 66.9886 241.034C66.9264 242.704 66.9718 244.377 67.1246 246.042C67.2884 247.91 67.6354 249.762 68.1616 251.575V251.644C67.8046 251.134 66.7421 249.751 66.6486 249.652C65.3141 248.277 61.8206 246.308 59.7126 247.106C59.3679 247.249 59.0605 247.455 58.8102 247.711C58.5599 247.966 58.3723 248.266 58.2594 248.59C58.1465 248.914 58.1108 249.256 58.1547 249.594C58.1986 249.931 58.321 250.257 58.5141 250.549C59.2961 251.811 61.1576 252.434 62.6621 252.632C64.3621 252.852 67.9491 251.925 68.2381 251.872C68.8268 253.706 69.5509 255.504 70.4056 257.252C70.8986 258.271 71.4341 259.282 71.9781 260.292C71.6551 259.867 71.3576 259.487 71.3066 259.434C69.9721 258.058 66.4871 256.09 64.3791 256.888C64.0338 257.029 63.7256 257.233 63.4746 257.488C63.2236 257.743 63.0354 258.042 62.9223 258.366C62.8093 258.69 62.7738 259.032 62.8183 259.369C62.8628 259.706 62.9863 260.031 63.1806 260.323C63.9541 261.592 65.8156 262.215 67.3286 262.413C68.8416 262.61 71.9356 261.873 72.7431 261.653L73.3806 262.816C74.4176 264.662 75.4631 266.502 76.4236 268.333C76.7636 268.979 77.0781 269.625 77.3841 270.271C77.0951 269.891 76.8486 269.572 76.8061 269.511C75.4631 268.128 71.9781 266.167 69.8701 266.965C69.5248 267.106 69.2166 267.311 68.9656 267.566C68.7146 267.82 68.5264 268.12 68.4133 268.444C68.3003 268.768 68.2648 269.109 68.3093 269.447C68.3538 269.784 68.4773 270.109 68.6716 270.4C69.4536 271.67 71.3151 272.293 72.8196 272.49C74.3241 272.688 77.1291 272.019 78.0896 271.784C78.3871 272.452 78.6846 273.121 78.9396 273.782C79.1011 274.238 79.2966 274.672 79.4326 275.135C79.5686 275.599 79.7131 276.047 79.8491 276.496C80.0871 277.37 80.3336 278.266 80.5376 279.125C80.6906 279.726 80.8181 280.296 80.9456 280.866C80.6141 280.22 79.9426 278.966 79.8746 278.867C78.7866 277.347 75.6246 274.907 73.4571 275.409C73.0911 275.501 72.7511 275.662 72.4593 275.88C72.1674 276.098 71.9303 276.369 71.7634 276.674C71.5965 276.98 71.5037 277.313 71.4909 277.653C71.4781 277.993 71.5456 278.331 71.6891 278.646C72.2416 279.999 73.9756 280.873 75.4291 281.268C77.0356 281.709 80.5971 281.306 81.0391 281.268C81.2516 282.211 81.4471 283.138 81.6171 284.02C82.2206 287.06 82.5861 289.606 82.8156 291.384C82.8581 291.703 82.8921 291.984 82.9261 292.258H76.0411L78.5911 336.102H90.3211L92.8711 292.258H86.4621L86.6066 291.992C87.4566 290.35 88.7061 287.994 90.0066 285.114C90.4231 284.202 90.8566 283.222 91.2816 282.218C91.7066 282.294 95.2256 282.933 96.8661 282.606C98.3536 282.302 100.156 281.55 100.827 280.235C100.996 279.93 101.091 279.597 101.106 279.258C101.121 278.918 101.056 278.579 100.915 278.264C100.774 277.948 100.56 277.663 100.287 277.426C100.014 277.19 99.6883 277.007 99.3311 276.891C97.1636 276.237 93.8571 278.411 92.6416 279.931C92.5736 280.022 91.9106 281.04 91.5111 281.686L92.0296 280.448C92.3696 279.604 92.6926 278.753 93.0326 277.841C93.1856 277.392 93.3386 276.944 93.4831 276.488C93.6276 276.032 93.7551 275.546 93.8911 275.067C94.1886 273.965 94.4266 272.825 94.6391 271.677C95.4891 271.951 98.4131 272.863 99.9431 272.772C101.473 272.68 103.343 272.171 104.253 270.963C104.472 270.685 104.623 270.37 104.696 270.036C104.769 269.703 104.762 269.36 104.676 269.029C104.59 268.698 104.427 268.387 104.197 268.117C103.968 267.846 103.676 267.622 103.343 267.459C101.312 266.517 97.6736 268.219 96.2201 269.534C96.1351 269.618 95.2086 270.644 94.7156 271.221C94.8346 270.53 94.9621 269.838 95.0556 269.139C95.3446 267.11 95.5571 265.05 95.7781 262.99C95.8461 262.367 95.9226 261.736 95.9991 261.113C96.2881 261.212 99.7731 262.367 101.482 262.261C103.003 262.162 104.882 261.668 105.791 260.46C106.01 260.181 106.161 259.865 106.234 259.531C106.307 259.197 106.301 258.853 106.215 258.522C106.129 258.191 105.966 257.879 105.736 257.608C105.506 257.337 105.215 257.112 104.882 256.948C102.85 256.014 99.2121 257.708 97.7586 259.023C97.6481 259.122 96.3306 260.604 96.0076 260.999C96.1776 259.616 96.3476 258.24 96.5856 256.888C96.8948 255.066 97.3349 253.263 97.9031 251.492C98.0391 251.537 101.669 252.761 103.42 252.654C104.941 252.556 106.82 252.054 107.738 250.846C107.956 250.567 108.105 250.251 108.178 249.917C108.25 249.583 108.243 249.24 108.157 248.909C108.072 248.578 107.909 248.267 107.68 247.995C107.451 247.724 107.161 247.499 106.828 247.334C104.788 246.4 101.15 248.094 99.6966 249.417C99.5861 249.516 98.1581 251.112 97.9286 251.416C97.9286 251.317 97.9796 251.203 98.0221 251.104C98.6412 249.34 99.4407 247.63 100.411 245.997C100.929 245.085 101.482 244.241 102.043 243.428C102.697 243.717 105.681 245.016 107.27 245.07C108.86 245.123 110.755 244.819 111.775 243.702C112.026 243.446 112.214 243.146 112.326 242.821C112.439 242.497 112.474 242.155 112.429 241.817C112.384 241.479 112.26 241.154 112.066 240.862C111.871 240.57 111.61 240.318 111.299 240.122C109.395 238.99 105.562 240.35 103.964 241.49C103.879 241.551 103.114 242.25 102.493 242.797C102.757 242.44 103.012 242.037 103.267 241.718C104.227 240.426 105.188 239.301 106.055 238.306C106.548 237.751 107.015 237.249 107.449 236.786C108.299 236.786 111.486 236.687 112.906 236.094C114.325 235.501 115.864 234.43 116.195 233.054C116.311 232.707 116.338 232.34 116.273 231.982C116.209 231.624 116.055 231.284 115.823 230.987C115.591 230.689 115.287 230.443 114.933 230.265C114.58 230.087 114.186 229.983 113.781 229.961ZM88.6041 284.582C87.2271 287.409 85.9606 289.72 85.0596 291.323L84.5581 292.197H84.4051C84.4051 291.878 84.3116 291.536 84.2521 291.156C83.9716 289.355 83.5381 286.786 82.8581 283.731C82.6456 282.766 82.3991 281.74 82.1356 280.691C83.2048 280.31 84.2467 279.871 85.2551 279.376C86.4281 280.516 89.4286 281.838 89.8196 282.006C89.4116 282.895 89.0036 283.769 88.6041 284.582Z" fill="#263238"/>
<path d="M101.796 242.964C101.796 242.964 102.527 240.578 102.553 240.426C102.833 238.617 102.187 234.969 100.13 234.08C99.7838 233.941 99.4084 233.868 99.0285 233.867C98.6486 233.866 98.2727 233.937 97.9255 234.075C97.5782 234.212 97.2673 234.414 97.013 234.666C96.7587 234.919 96.5668 235.216 96.4497 235.539C95.8972 236.9 96.5942 238.579 97.4272 239.704C98.3962 241.049 101.796 242.964 101.796 242.964Z" fill="#263238"/>
<path d="M248.055 355.657C271.725 355.657 290.912 350.618 290.912 344.402C290.912 338.185 271.725 333.146 248.055 333.146C224.386 333.146 205.198 338.185 205.198 344.402C205.198 350.618 224.386 355.657 248.055 355.657Z" fill="#3A4753"/>
<path opacity="0.5" d="M248.055 355.657C271.725 355.657 290.912 350.618 290.912 344.402C290.912 338.185 271.725 333.146 248.055 333.146C224.386 333.146 205.198 338.185 205.198 344.402C205.198 350.618 224.386 355.657 248.055 355.657Z" fill="white"/>
<path d="M244.91 165.011C242.942 162.687 240.022 161.157 236.793 160.755C231.574 160.238 227.171 163.453 225.08 165.528C222.989 167.603 224.383 171.608 224.153 172.474C223.924 173.341 221.136 175.993 221.255 176.829C221.374 177.665 222.759 177.756 222.759 177.756C222.759 177.756 223.924 182.636 224.621 183.776C225.318 184.916 227.171 185.121 227.868 185.121C228.372 185.16 228.851 185.332 229.245 185.615L230.324 188.982L246.185 185.744L245.718 181.078C245.718 181.078 249.662 176.411 249.313 171.851C249.187 170.492 248.727 169.174 247.966 167.992C247.205 166.81 246.162 165.792 244.91 165.011Z" fill="white" stroke="#263238" stroke-linecap="round" stroke-linejoin="round"/>
<path d="M241.664 166.98C238.264 167.496 233.546 163.142 230.614 165.011C230.614 165.011 226.67 167.914 226.908 169.26C227.146 170.605 228.99 171.646 228.871 172.885C228.752 174.124 229.339 176.723 230.036 175.583C230.733 174.443 230.384 173.196 231.43 172.885C232.475 172.573 233.98 174.238 234.209 175.788C234.439 177.338 234.09 178.068 235.017 179.208C235.671 179.975 236.512 180.599 237.477 181.031C238.442 181.463 239.505 181.692 240.584 181.701C242.298 181.601 244.003 181.393 245.684 181.078C245.684 181.078 249.628 176.411 249.28 171.851C249.153 170.492 248.693 169.174 247.932 167.992C247.171 166.81 246.128 165.792 244.877 165.011C244.877 165.011 245.03 166.44 241.664 166.98Z" fill="white" stroke="#263238" stroke-linecap="round" stroke-linejoin="round"/>
<path d="M230.529 178.38C230.529 178.38 230.877 180.766 232.501 180.348C234.124 179.93 234.473 177.863 234.473 177.863" stroke="#263238" stroke-linecap="round" stroke-linejoin="round"/>
<path d="M225.548 192.174C226.207 191.2 226.979 190.29 227.851 189.46C229.356 188.009 237.89 185.151 241.834 184.938C245.778 184.726 249.016 187.629 250.869 188.982C251.384 189.288 251.779 189.73 252 190.246C252.221 190.762 252.256 191.327 252.102 191.862C247.563 190.61 242.775 190.255 238.068 190.821C233.619 191.339 229.207 192.08 224.851 193.04L225.548 192.174Z" fill="#3A4753" stroke="#263238" stroke-linecap="round" stroke-linejoin="round"/>
<path d="M204.578 253.148C204.578 253.148 205.623 259.548 205.972 261.106C206.32 262.664 208.802 267.702 210.222 266.509C211.641 265.316 212.117 261.265 211.42 259.236C210.723 257.207 209.678 253.468 209.508 252.996C209.338 252.525 204.578 253.148 204.578 253.148Z" fill="white" stroke="#263238" stroke-linecap="round" stroke-linejoin="round"/>
<path d="M202.589 230.424C201.753 232.919 201.248 235.493 201.084 238.093C201.235 241.988 201.698 245.869 202.47 249.706C202.946 252.472 205.02 255.269 206.643 255.2C211.633 254.995 209.78 246.704 210.706 241.931C211.633 237.158 212.406 236.854 212.908 231.564" fill="#3A4753"/>
<path d="M202.589 230.424C201.753 232.919 201.248 235.493 201.084 238.093C201.235 241.988 201.698 245.869 202.47 249.706C202.946 252.472 205.02 255.269 206.643 255.2C211.633 254.995 209.78 246.704 210.706 241.931C211.633 237.158 212.406 236.854 212.908 231.564" stroke="#263238" stroke-linecap="round" stroke-linejoin="round"/>
<path d="M226.602 337.926C225.597 337.922 224.603 338.108 223.686 338.474C222.224 339.074 221.859 339.887 222.352 340.7C222.845 341.514 223.924 343.474 225.692 344.447C227.46 345.42 229.883 345.914 231.277 346.727C232.671 347.54 235.289 347.267 236.207 345.8C237.125 344.333 236.02 341.073 236.02 341.073C233.97 340.619 231.96 340.038 230.002 339.332C227.877 338.474 226.602 337.926 226.602 337.926Z" fill="white" stroke="#263238" stroke-linecap="round" stroke-linejoin="round"/>
<path d="M236.207 345.8C236.278 345.67 236.337 345.535 236.385 345.397C235.815 345.856 235.138 346.194 234.402 346.386C233.666 346.578 232.891 346.619 232.135 346.507C230.92 346.286 228.735 344.934 227.333 344.44C225.728 343.736 224.394 342.623 223.499 341.24C223.074 340.537 222.827 339.758 222.777 338.96C222.473 339.147 222.261 339.43 222.182 339.751C222.103 340.073 222.164 340.41 222.352 340.693C222.836 341.506 223.924 343.467 225.692 344.44C227.46 345.412 229.883 345.906 231.277 346.72C232.671 347.533 235.289 347.274 236.207 345.8Z" fill="white" stroke="#263238" stroke-linecap="round" stroke-linejoin="round"/>
<path d="M249.951 339.317C249.951 339.317 250.376 341.871 250.376 342.904C250.376 343.938 252.322 345.785 254.328 345.785C256.334 345.785 258.332 345.078 259.182 344.158C260.032 343.239 259.734 340.024 259.734 340.024C259.734 340.024 251.829 341.111 249.951 339.317Z" fill="white" stroke="#263238" stroke-linecap="round" stroke-linejoin="round"/>
<path d="M259.182 344.158C259.428 343.84 259.583 343.472 259.633 343.087C258.664 344.052 256.717 345.458 254.533 345.078C252.851 344.696 251.38 343.787 250.385 342.517C250.385 342.661 250.385 342.79 250.385 342.904C250.385 343.938 252.331 345.785 254.337 345.785C256.343 345.785 258.332 345.078 259.182 344.158Z" fill="white" stroke="#263238" stroke-linecap="round" stroke-linejoin="round"/>
<path d="M216.503 243.284C216.503 243.284 216.962 251.78 216.733 255.444C216.503 259.107 217.081 277.628 217.583 283.746C218.084 289.864 219.555 303.65 220.592 309.244C221.629 314.838 227.12 336.824 227.12 336.824C227.12 336.824 226.006 338.816 226.27 339.644C226.533 340.472 228.769 342.631 232.109 342.965C235.45 343.3 236.096 342.631 236.75 341.301C237.405 339.971 237.677 336.49 237.864 334.339C238.051 332.188 240.057 327.803 239.36 321.997C238.663 316.19 239.938 295.974 239.938 295.974L240.983 282.082C240.983 282.082 241.68 299.083 242.377 301.674C243.074 304.266 248.327 332.249 248.922 333.822C249.517 335.396 249.016 338.215 249.381 338.884C249.747 339.553 250.036 341.035 250.962 341.704C251.889 342.372 255.875 342.699 257.363 342.114C258.85 341.529 260.049 340.792 260.049 340.206C260.049 339.621 260.61 336.893 260.423 335.396C260.236 333.898 259.777 332.66 259.777 332.249C259.777 331.839 261.162 309.761 261.162 303.65C261.162 297.54 260.312 290.685 260.312 290.685C260.312 290.685 262.981 272.65 263.44 265.392C263.847 260.273 263.653 255.13 262.862 250.048C262.403 247.874 261.587 243.208 261.587 243.208C261.587 243.208 251.846 245.906 244.196 246.111C236.546 246.316 233.877 246.833 229.585 245.906C225.292 244.978 219.614 243.626 219.155 243.314C218.696 243.002 216.036 241.832 216.503 243.284Z" fill="#263238" stroke="#263238" stroke-linecap="round" stroke-linejoin="round"/>
<path d="M240.967 282.051L242.939 266.813" stroke="white" stroke-linecap="round" stroke-linejoin="round"/>
<path d="M242.471 270.34L248.888 267.968" stroke="white" stroke-linecap="round" stroke-linejoin="round"/>
<path d="M260.329 290.654L255.51 309.768" stroke="white" stroke-linecap="round" stroke-linejoin="round"/>
<path d="M275.927 190.806C275.927 190.806 277.431 186.778 277.975 185.554C278.519 184.33 279.752 182.993 279.752 181.412C279.752 179.831 279.063 176.282 278.655 177.262C278.266 178.365 278.082 179.518 278.111 180.675C278.136 181.282 277.946 181.88 277.567 182.385C277.567 182.385 275.927 179.216 274.567 179.094C273.207 178.972 273.198 179.337 273.717 179.854C274.402 180.347 274.973 180.953 275.4 181.64C275.735 182.08 275.966 182.577 276.08 183.099C276.08 183.099 273.759 180.781 272.68 180.781C271.6 180.781 270.631 181.268 271.311 181.64C271.963 181.92 272.651 182.124 273.36 182.248L274.32 183.958C274.32 183.958 272 183.198 271.311 183.836C270.623 184.475 272 184.68 272 184.68L272.952 184.802C272.281 185.806 271.863 186.929 271.728 188.092C271.775 189.32 271.911 190.544 272.136 191.756L275.927 190.806Z" fill="white" stroke="#263238" stroke-linecap="round" stroke-linejoin="round"/>
<path d="M273.606 188.731C273.866 187.591 274.28 186.483 274.839 185.432C275.519 184.46 277.159 183.852 278.111 182.871C279.063 181.891 279.616 180.432 280.296 181.04C280.976 181.648 280.432 182.75 279.752 183.608C279.072 184.467 276.751 186.648 276.607 188.609" fill="white"/>
<path d="M273.606 188.731C273.866 187.591 274.28 186.483 274.839 185.432C275.519 184.46 277.159 183.852 278.111 182.871C279.063 181.891 279.616 180.432 280.296 181.04C280.976 181.648 280.432 182.75 279.752 183.608C279.072 184.467 276.751 186.648 276.607 188.609" stroke="#263238" stroke-linecap="round" stroke-linejoin="round"/>
<path d="M271.014 194.34L271.286 190.684C272.168 190.269 273.168 190.097 274.159 190.19C275.927 190.312 276.471 190.95 276.471 190.95L276.607 194.978L271.014 194.34Z" fill="#3A4753" stroke="#263238" stroke-linecap="round" stroke-linejoin="round"/>
<path d="M211.59 233.7C211.827 233.495 212.035 233.265 212.211 233.016C212.211 233.016 212.211 233.092 212.262 233.206C213.112 230.926 214.65 227.628 214.65 227.628C214.65 227.628 215.109 243.177 216.622 244.834C217.787 246.126 220.022 246.491 221.722 246.818C224 247.251 226.287 247.676 228.59 247.973C236.589 249.006 244.604 248.588 252.586 247.669C254.915 247.403 258.757 247.54 260.44 245.769C261.297 244.796 261.748 243.587 261.715 242.349C261.715 241.931 262.641 224.618 262.641 224.618C262.641 224.618 272.612 231.253 274.703 231.048C276.794 230.842 278.179 229.178 277.95 224.208C277.72 219.237 277.1 194.864 276.437 193.724C275.774 192.584 272.034 192.379 270.64 193.83C269.246 195.282 268.6 207.328 268.6 207.328C268.6 207.328 264.163 198.702 262.31 196.004C260.457 193.306 249.211 190.099 249.211 190.099C249.211 190.099 242.139 188.024 235.297 189.339C230.272 190.237 225.443 191.859 221 194.142C217.523 195.905 210.681 197.562 209.516 199.736C208.352 201.909 204.187 224.93 203.26 227.939C202.988 228.798 202.682 229.748 202.41 230.766C202.527 231.336 202.715 231.892 202.971 232.423" fill="#3A4753"/>
<path d="M211.59 233.7C211.827 233.495 212.035 233.265 212.211 233.016C212.211 233.016 212.211 233.092 212.262 233.206C213.112 230.926 214.65 227.628 214.65 227.628C214.65 227.628 215.109 243.177 216.622 244.834C217.787 246.126 220.022 246.491 221.722 246.818C224 247.251 226.287 247.676 228.59 247.973C236.589 249.006 244.604 248.588 252.586 247.669C254.915 247.403 258.757 247.54 260.44 245.769C261.297 244.796 261.748 243.587 261.715 242.349C261.715 241.931 262.641 224.618 262.641 224.618C262.641 224.618 272.612 231.253 274.703 231.048C276.794 230.842 278.179 229.178 277.95 224.208C277.72 219.237 277.1 194.864 276.437 193.724C275.774 192.584 272.034 192.379 270.64 193.83C269.246 195.282 268.6 207.328 268.6 207.328C268.6 207.328 264.163 198.702 262.31 196.004C260.457 193.306 249.211 190.099 249.211 190.099C249.211 190.099 242.139 188.024 235.297 189.339C230.272 190.237 225.443 191.859 221 194.142C217.523 195.905 210.681 197.562 209.516 199.736C208.352 201.909 204.187 224.93 203.26 227.939C202.988 228.798 202.682 229.748 202.41 230.766C202.527 231.336 202.715 231.892 202.971 232.423" stroke="#263238" stroke-linecap="round" stroke-linejoin="round"/>
<path d="M253.674 223.881L257.168 221.32" stroke="#263238" stroke-miterlimit="10"/>
<path d="M230.256 241.072L250.852 225.956" stroke="#263238" stroke-miterlimit="10"/>
<path d="M227.443 237.477L236.283 231.017" stroke="#263238" stroke-miterlimit="10"/>
<path d="M212.262 242.083L207.162 250.549C206.753 251.225 206.609 252.004 206.754 252.761L209.406 266.441C209.401 266.491 209.407 266.541 209.424 266.589C209.44 266.637 209.467 266.681 209.503 266.72C209.539 266.758 209.583 266.79 209.633 266.813C209.683 266.836 209.737 266.851 209.793 266.855C209.848 266.859 209.905 266.854 209.958 266.839C210.012 266.824 210.061 266.8 210.104 266.768C210.147 266.736 210.183 266.696 210.209 266.652C210.235 266.608 210.251 266.559 210.256 266.509L214.982 255.147C215.181 254.662 215.251 254.141 215.186 253.627L213.639 242.326C213.657 242.245 213.657 242.162 213.639 242.081C213.62 242 213.585 241.924 213.533 241.855C213.482 241.787 213.416 241.728 213.339 241.682C213.263 241.637 213.177 241.605 213.086 241.589C212.904 241.557 212.714 241.591 212.56 241.683C212.405 241.776 212.298 241.92 212.262 242.083Z" fill="#263238" stroke="#263238" stroke-linecap="round" stroke-linejoin="round"/>
<path d="M268.592 207.328L273.726 217.96" stroke="#263238" stroke-linecap="round" stroke-linejoin="round"/>
<path d="M213.129 262.352C213.878 260.979 214.383 259.51 214.625 257.997C214.803 256.036 214.191 256.188 213.664 257.29C213.137 258.392 213.129 262.352 213.129 262.352Z" fill="white" stroke="#263238" stroke-linecap="round" stroke-linejoin="round"/>
<path d="M210.681 265.939C210.681 265.939 212.781 263.758 213.129 262.352C213.478 260.946 214.345 258.142 213.478 258.453C212.611 258.765 212.254 260.323 212.254 260.323C212.111 260.236 211.945 260.183 211.773 260.169C211.601 260.156 211.428 260.182 211.27 260.245C211.112 260.308 210.975 260.407 210.872 260.531C210.769 260.655 210.703 260.8 210.681 260.954C210.333 262.2 210.681 265.939 210.681 265.939Z" fill="white" stroke="#263238" stroke-linecap="round" stroke-linejoin="round"/>
<path d="M212.254 260.323C212.254 260.323 212.857 262.694 212.083 264.267" stroke="#263238" stroke-linecap="round" stroke-linejoin="round"/>
<path d="M262.65 224.618L263.117 210.832" stroke="#263238" stroke-linecap="round" stroke-linejoin="round"/>
<path d="M262.879 220.263L264.741 212.488" stroke="#263238" stroke-linecap="round" stroke-linejoin="round"/>
<path d="M214.65 227.628L214.183 211.972" stroke="#263238" stroke-linecap="round" stroke-linejoin="round"/>
<path d="M155.542 355.657C179.211 355.657 198.399 350.618 198.399 344.402C198.399 338.185 179.211 333.146 155.542 333.146C131.872 333.146 112.685 338.185 112.685 344.402C112.685 350.618 131.872 355.657 155.542 355.657Z" fill="#3A4753"/>
<path opacity="0.5" d="M155.542 355.657C179.211 355.657 198.399 350.618 198.399 344.402C198.399 338.185 179.211 333.146 155.542 333.146C131.872 333.146 112.685 338.185 112.685 344.402C112.685 350.618 131.872 355.657 155.542 355.657Z" fill="white"/>
<path d="M173.094 188.115C173.172 186.803 173.08 185.487 172.822 184.194C172.405 182.848 171.445 181.99 171.581 181.496C171.717 181.002 173.366 181.374 173.782 182.354C174.199 183.335 174.879 185.052 174.879 185.052V181.252C174.879 180.637 173.23 180.492 172.686 179.907C172.142 179.322 172.541 179.048 172.958 179.048C173.374 179.048 175.015 178.919 175.975 179.656C176.329 179.977 176.598 180.363 176.764 180.787C176.93 181.212 176.989 181.664 176.936 182.111C176.936 182.482 176.89 182.851 176.8 183.213C176.8 183.213 178.993 183.456 179.673 184.809C180.236 186.14 180.334 187.592 179.953 188.974C179.673 190.084 180.633 192.288 180.633 192.288L177.752 194.248C177.752 194.248 175.423 192.044 174.19 190.813C173.454 190.071 173.062 189.107 173.094 188.115Z" fill="white" stroke="#263238" stroke-linecap="round" stroke-linejoin="round"/>
<path d="M180.633 192.28L177.752 194.241C177.752 194.241 193.604 223.121 195.109 224.116C196.613 225.112 198.509 225.348 200.736 222.65C202.963 219.952 202.657 218.234 201.144 215.171C199.631 212.108 180.633 192.28 180.633 192.28Z" fill="#3A4753" stroke="#263238" stroke-linecap="round" stroke-linejoin="round"/>
<path d="M168.351 163.643C168.351 163.643 170.4 168.028 170.4 169.13C170.39 170.164 170.709 171.178 171.318 172.056C171.93 172.968 172.652 173.242 172.236 173.972C172.052 174.335 171.812 174.673 171.522 174.975C171.522 174.975 171.216 178.912 171.216 180.188C171.216 181.465 170.502 181.556 169.176 181.648C168.009 181.662 166.844 181.571 165.699 181.374L165.495 184.847C165.495 184.847 160.582 184.3 158.644 184.3H154.862L155.066 178.912C153.93 176.91 152.972 174.831 152.201 172.695C151.824 171.796 151.672 170.835 151.754 169.878C151.837 168.921 152.152 167.992 152.678 167.156C153.205 166.32 153.929 165.596 154.801 165.037C155.673 164.477 156.672 164.095 157.726 163.917C161.23 163.329 164.815 163.237 168.351 163.643Z" fill="white" stroke="#263238" stroke-linecap="round" stroke-linejoin="round"/>
<path d="M164.9 174.154C164.9 174.154 167.051 173.607 166.643 171.958C166.235 170.308 165.521 169.586 165.623 169.313C165.725 169.039 167.323 168.484 167.323 167.299C167.323 166.113 165.623 165.475 165.623 165.475C165.623 165.475 173.188 163.37 173.698 161.447C174.208 159.524 173.188 157.609 171.148 157.609C170.117 157.614 169.09 157.706 168.079 157.882C167.671 157.882 165.011 155.23 162.665 156.241C160.319 157.252 160.115 158.521 160.115 158.521C160.115 158.521 151.53 158.893 148.257 161.994C144.985 165.095 147.747 172.33 149.957 174.975C152.167 177.62 153.944 180.462 155.992 180.827C158.041 181.192 161.823 180.644 163.251 178.912C164.679 177.179 163.965 174.519 163.965 174.519L164.9 174.154Z" fill="#263238" stroke="#263238" stroke-linecap="round" stroke-linejoin="round"/>
<path d="M166.005 174.8C166.005 174.8 163.854 170.962 162.324 171.76C160.794 172.558 161.916 175.697 162.936 176.7C163.087 176.891 163.279 177.052 163.502 177.174C163.724 177.296 163.972 177.377 164.23 177.411C164.489 177.445 164.752 177.432 165.004 177.373C165.257 177.313 165.493 177.208 165.699 177.065" fill="white"/>
<path d="M166.005 174.8C166.005 174.8 163.854 170.962 162.324 171.76C160.794 172.558 161.916 175.697 162.936 176.7C163.087 176.891 163.279 177.052 163.502 177.174C163.724 177.296 163.972 177.377 164.23 177.411C164.489 177.445 164.752 177.432 165.004 177.373C165.257 177.313 165.493 177.208 165.699 177.065" stroke="#263238" stroke-linecap="round" stroke-linejoin="round"/>
<path d="M149.54 187.864C150.119 186.537 150.986 185.326 152.09 184.3C153.62 183.114 157.403 182.294 160.59 182.841C163.778 183.388 166.319 184.209 166.931 185.493C167.4 186.594 167.775 187.724 168.053 188.875C168.053 188.875 165.095 187.591 159.264 187.591C155.896 187.562 152.545 188.027 149.345 188.966L149.54 187.864Z" fill="#3A4753" stroke="#263238" stroke-linecap="round" stroke-linejoin="round"/>
<path d="M136.306 338.2C136.306 338.2 132.422 337.926 130.79 338.291C129.158 338.656 128.741 339.933 129.464 340.845C130.412 342.046 131.507 343.15 132.728 344.136C133.748 344.896 136.978 345.23 138.448 345.868C139.919 346.507 141.619 347.062 143.548 345.868C145.478 344.675 144.398 340.206 144.398 340.206C144.398 340.206 139.579 340.936 136.306 338.2Z" fill="white" stroke="#263238" stroke-linecap="round" stroke-linejoin="round"/>
<path d="M142.231 345.595C140.395 345.868 137.02 345.048 134.054 343.68C131.971 342.714 130.186 340.48 129.319 339.241C129.173 339.494 129.109 339.778 129.135 340.062C129.16 340.345 129.274 340.616 129.464 340.845C130.412 342.046 131.507 343.15 132.728 344.136C133.748 344.896 136.978 345.23 138.448 345.868C139.919 346.507 141.619 347.062 143.548 345.868C143.852 345.675 144.092 345.412 144.245 345.108C143.589 345.318 142.915 345.48 142.231 345.595Z" fill="white" stroke="#263238" stroke-linecap="round" stroke-linejoin="round"/>
<path d="M175.423 338.2C175.423 338.2 179.308 337.926 180.94 338.291C182.572 338.656 182.988 339.933 182.274 340.845C181.32 342.045 180.223 343.148 179.002 344.136C177.982 344.896 174.709 345.23 173.281 345.868C171.853 346.507 170.111 347.062 168.181 345.868C166.252 344.675 167.331 340.206 167.331 340.206C167.331 340.206 172.151 340.936 175.423 338.2Z" fill="white" stroke="#263238" stroke-linecap="round" stroke-linejoin="round"/>
<path d="M169.499 345.595C171.335 345.868 174.709 345.048 177.676 343.68C179.758 342.714 181.543 340.48 182.41 339.241C182.557 339.493 182.623 339.777 182.599 340.06C182.575 340.344 182.462 340.616 182.274 340.845C181.32 342.045 180.223 343.148 179.002 344.136C177.982 344.896 174.709 345.23 173.281 345.868C171.853 346.507 170.111 347.062 168.181 345.868C167.878 345.675 167.637 345.412 167.484 345.108C168.141 345.317 168.814 345.479 169.499 345.595Z" fill="white" stroke="#263238" stroke-linecap="round" stroke-linejoin="round"/>
<path d="M142.281 237.226C142.281 237.226 141.431 245.731 141.363 249.569C141.319 252.044 141.489 254.519 141.873 256.971L139.833 292.076C139.833 292.076 136.765 314.655 136.765 319.132C136.765 323.608 137.173 335.312 137.173 335.312C136.711 336.113 136.302 336.938 135.949 337.782C135.951 338.849 136.019 339.914 136.153 340.974C137.748 341.832 139.52 342.393 141.363 342.623C142.089 342.708 142.826 342.585 143.469 342.272C144.111 341.96 144.627 341.473 144.942 340.883C145.3 339.124 145.538 337.347 145.656 335.563C145.701 334.495 145.667 333.427 145.554 332.363C145.554 332.363 150.05 312.71 152.201 306.037C154.351 299.364 158.236 281.261 158.44 278.89C158.644 276.518 160.99 265.453 160.99 265.453C160.99 265.453 163.038 285.289 163.54 289.013C164.041 292.737 162.8 303.164 162.8 308.773C162.8 314.382 166.6 336.125 166.6 336.125C166.586 337.27 166.651 338.415 166.795 339.553C166.999 340.313 168.215 342.806 168.215 342.806C168.215 342.806 171.241 343.345 172.66 342.623C174.08 341.901 176.29 340.64 176.494 338.474C176.698 336.308 175.771 331.922 175.576 330.661C175.38 329.399 178.976 305.011 178.976 296.347C178.976 287.683 180.591 268.888 180.591 264.921C180.591 260.954 179.579 247.578 179.579 247.578L177.76 234.756C177.76 234.756 160.947 240.418 142.281 237.226Z" fill="#263238" stroke="#263238" stroke-linecap="round" stroke-linejoin="round"/>
<path d="M160.99 265.476L159.579 257.154H156.145" stroke="white" stroke-linecap="round" stroke-linejoin="round"/>
<path d="M135.643 193.26C135.643 193.26 112.515 224.284 112.923 225.545C113.331 226.807 135.541 237.287 135.541 237.287L135.337 233.312L126.837 223.197L138.737 212.002L135.643 193.26Z" fill="#3A4753" stroke="#263238" stroke-linecap="round" stroke-linejoin="round"/>
<path d="M135.337 233.32L138.533 232.142L141.933 234.84C141.933 234.84 143.115 237.052 142.248 237.234L141.398 237.416C141.398 237.416 142.358 239.499 140.854 240.114C139.349 240.73 137.148 239.993 136.187 239.256C135.398 238.493 134.75 237.624 134.266 236.679L135.337 233.32Z" fill="white" stroke="#263238" stroke-linecap="round" stroke-linejoin="round"/>
<path d="M139.494 233.115C139.494 233.115 140.735 234.346 140.59 234.954C140.446 235.562 139.91 237.652 139.358 237.774C138.805 237.895 138.261 236.915 138.397 236.55C138.512 236.187 138.606 235.82 138.678 235.448C138.678 235.448 137.437 236.307 136.757 235.813" fill="white"/>
<path d="M139.494 233.115C139.494 233.115 140.735 234.346 140.59 234.954C140.446 235.562 139.91 237.652 139.358 237.774C138.805 237.895 138.261 236.915 138.397 236.55C138.512 236.187 138.606 235.82 138.678 235.448C138.678 235.448 137.437 236.307 136.757 235.813" stroke="#263238" stroke-linecap="round" stroke-linejoin="round"/>
<path d="M165.597 186.96C162.147 186.464 158.636 186.403 155.168 186.778C150.75 187.318 146.45 188.458 142.418 190.16C139.868 191.254 135.677 192.903 135.677 193.268C135.677 193.633 141.627 227.544 141.627 227.544C141.627 227.544 141.627 236.322 142.239 237.599C142.851 238.876 144.696 239.066 149.192 239.522C155.946 239.893 162.723 239.71 169.439 238.974C173.425 238.328 176.902 237.781 177.514 236.14C178.126 234.498 177.31 230.105 177.31 230.105L179.393 194.56C177.615 192.666 175.426 191.114 172.958 190C170.574 188.857 168.116 187.842 165.597 186.96Z" fill="#3A4753" stroke="#263238" stroke-linecap="round" stroke-linejoin="round"/>
<path d="M199.087 214.442L179.393 194.56L178.016 214.168C178.016 214.168 193.265 225.781 196.716 225.416C200.167 225.051 200.762 222.68 200.762 222.68" fill="#3A4753"/>
<path d="M199.087 214.442L179.393 194.56L178.016 214.168C178.016 214.168 193.265 225.781 196.716 225.416C200.167 225.051 200.762 222.68 200.762 222.68" stroke="#263238" stroke-linecap="round" stroke-linejoin="round"/>
</g>
<defs>
<clipPath id="clip0">
<rect width="425" height="346" fill="white"/>
</clipPath>
</defs>
</svg>
