<svg width="200" height="200" viewBox="0 0 200 200" fill="none" xmlns="http://www.w3.org/2000/svg">
<path d="M125.939 31.1692C126.044 31.0427 126.16 30.9327 126.285 30.8363C126.327 30.8033 126.376 30.7803 126.421 30.7509C126.507 30.6942 126.592 30.6369 126.686 30.5929C126.744 30.5657 126.807 30.548 126.868 30.5257C126.957 30.4931 127.045 30.4597 127.138 30.4376C127.207 30.4214 127.279 30.4135 127.35 30.4026C127.444 30.3883 127.539 30.3739 127.638 30.3688C127.714 30.365 127.793 30.3679 127.872 30.3695C127.973 30.3714 128.075 30.375 128.18 30.3858C128.263 30.3945 128.347 30.4082 128.432 30.4223C128.54 30.4403 128.649 30.4608 128.761 30.4876C128.849 30.5086 128.937 30.533 129.027 30.5593C129.142 30.5927 129.257 30.6301 129.374 30.6721C129.467 30.7053 129.56 30.7407 129.655 30.7792C129.773 30.8272 129.892 30.8805 130.013 30.9367C130.072 30.9642 130.128 30.9843 130.188 31.0137C130.192 31.0186 130.197 31.0232 130.201 31.0281C131.762 31.804 133.51 33.2394 135.182 35.2692C137.634 38.2476 139.882 42.8153 141.754 46.5303C143.081 49.1613 147.268 56.0199 148.004 61.0321C148.159 62.0874 148.119 63.2777 147.835 64.3934L147.84 64.4C147.831 64.4372 147.817 64.4728 147.807 64.5097C147.787 64.5858 147.763 64.6604 147.739 64.7358C147.696 64.8779 147.648 65.0179 147.596 65.1562C147.566 65.2327 147.537 65.3086 147.505 65.3839C147.446 65.5239 147.38 65.66 147.311 65.7947C147.278 65.8593 147.247 65.9248 147.212 65.9881C147.103 66.1808 146.987 66.3681 146.856 66.5451C143.681 70.8489 137.712 63.5655 135.768 60.7827C132.083 55.5108 126.819 45.9409 125.972 43.9577C123.762 38.7923 124.328 33.1077 125.939 31.1692Z" fill="url(#paint0_linear)"/>
<path fill-rule="evenodd" clip-rule="evenodd" d="M104.526 44.3606C104.92 44.4814 105.315 44.6024 105.702 44.7367C109.146 45.933 112.317 46.9301 113.135 42.2186C112.737 40.6823 112.53 39.1739 112.86 38.2854C109.733 40.204 106.103 42.6246 104.641 44.2336C104.602 44.2759 104.564 44.3186 104.526 44.3606Z" fill="#A4252A"/>
<path fill-rule="evenodd" clip-rule="evenodd" d="M104.526 44.3606C104.92 44.4814 105.315 44.6024 105.702 44.7367C109.146 45.9329 112.317 46.9289 113.135 42.2174C112.919 41.3865 112.761 40.5639 112.712 39.8438C112.327 39.59 111.938 39.344 111.543 39.1057C110.274 39.9077 108.984 40.7597 107.837 41.5812C107.177 42.0542 106.443 42.4447 105.909 42.8816C105.346 43.3422 104.991 43.8475 104.64 44.2336C104.602 44.2758 104.564 44.3185 104.526 44.3606Z" fill="#8D2327"/>
<path fill-rule="evenodd" clip-rule="evenodd" d="M107.881 41.5496C109.496 42.3337 110.994 43.2828 112.365 44.4244C112.591 44.0722 112.783 43.6384 112.934 43.1083C111.684 42.214 110.389 41.428 109.048 40.7368C108.648 41.0085 108.257 41.2804 107.881 41.5496Z" fill="#812124"/>
<path d="M125.699 31.8858C127.236 29.9962 133.66 27.5913 138.408 37.898C143.157 48.2046 141.481 44.082 141.481 44.082C141.481 44.082 139.107 52.3274 131.425 52.1557C123.744 51.984 125.839 32.573 125.839 32.573L125.699 31.8858Z" fill="#4274AD"/>
<path d="M130.835 169.057C129.593 171.005 126.025 173.682 129.466 176.968C132.907 180.253 133.112 177.31 138.57 179.284C144.029 181.259 143.876 182.574 147.493 181.838C151.111 181.101 152.165 178.602 150.83 177.456C149.496 176.31 140.933 173.283 138.613 170.086C136.294 166.889 130.835 169.057 130.835 169.057Z" fill="#74B4B3"/>
<path d="M131.378 168.344C130.206 170.185 126.829 172.707 130.106 175.838C133.384 178.969 133.567 176.179 138.755 178.076C143.943 179.974 143.803 181.22 147.234 180.539C150.664 179.858 151.657 177.493 150.386 176.4C149.115 175.308 140.977 172.398 138.764 169.356C136.551 166.314 131.378 168.344 131.378 168.344Z" fill="#E8E8E8"/>
<path d="M112.651 173.177C110.652 173.999 109.247 174.521 109.741 179.206C110.235 183.891 109.009 193.032 114.737 194.928C120.465 196.824 120.809 189.211 119.902 185.557C118.995 181.903 120.61 179.406 117.676 172.363C114.743 165.319 110.652 173.999 110.652 173.999" fill="#74B4B3"/>
<path d="M112.688 171.94C110.829 172.742 109.522 173.25 110.016 177.935C110.511 182.62 109.432 191.741 114.788 193.689C120.144 195.637 120.411 188.035 119.539 184.376C118.667 180.717 120.155 178.238 117.369 171.174C114.583 164.11 110.829 172.742 110.829 172.742" fill="#E8E8E8"/>
<path d="M110.247 169.476C110.247 169.476 112.23 99.0843 112.285 92.4823C112.339 85.8803 138.319 91.6211 138.319 91.6211C138.561 97.87 138.072 159.034 138.457 164.759L138.434 169.285C135.925 171.959 129.751 170.622 129.751 170.622L129.76 166.665C129.76 166.665 127.274 130.234 124.694 118.298C124.694 118.298 119.315 164.085 118.959 168.612C118.561 173.668 117.404 175.45 114.317 175.45C111.23 175.45 110.036 174.791 110.247 169.476Z" fill="url(#paint1_linear)"/>
<path d="M106.461 47.8888C107.425 40.5038 116.266 33.8485 116.266 33.8485C116.266 33.8485 118.931 36.0062 122.311 36.0952C125.69 36.1843 126.871 33.293 126.871 33.293C126.871 33.293 130.056 35.7775 131.845 36.5551C133.634 37.3328 139.609 47.4056 139.012 59.2881C138.415 71.1706 138.693 92.5737 138.693 92.5737C138.693 92.5737 125.745 101.939 112.446 93.7602L106.461 47.8888Z" fill="url(#paint2_linear)"/>
<path d="M130.27 46.5125L130.961 50.6008C131.069 51.2384 131.59 51.6515 132.126 51.5232L135.829 50.6358C136.364 50.5074 136.711 49.886 136.603 49.2486L135.912 45.1603C135.804 44.5225 135.283 44.1097 134.747 44.238L131.045 45.1254C130.509 45.2537 130.162 45.8747 130.27 46.5125ZM132.984 50.2966C132.984 50.2966 133.259 50.1409 133.764 49.4988C134.246 48.8873 134.624 48.4225 135.119 47.7866C135.547 47.2371 136.036 47.7077 135.968 48.4276C135.942 48.7081 135.864 48.9807 135.744 49.2362C135.24 50.3139 134.079 50.7256 132.984 50.2966ZM132.051 49.2751C132.183 48.6975 132.779 46.18 132.927 45.7736C133.409 44.4477 135.798 45.9316 135.134 47.1406C134.542 48.2185 133.277 49.6871 133.022 49.9911C132.767 50.2946 131.929 49.8046 132.051 49.2751ZM131.136 46.18C131.256 45.9247 131.41 45.7028 131.596 45.5282C132.075 45.0807 132.668 45.3276 132.501 46.0504C132.307 46.8864 132.174 47.513 131.991 48.3225C131.798 49.1718 131.832 49.5322 131.832 49.5322C130.949 48.6495 130.632 47.2579 131.136 46.18Z" fill="white"/>
<path d="M124.75 61.0479C123.856 61.1855 122.45 61.0917 121.381 61.4025C120.332 61.7078 119.601 62.3248 119.031 63.2149L121.853 71.5268C123.457 69.3598 125.281 67.2242 127.006 65.2722L126.931 64.0029L124.75 61.0479Z" fill="url(#paint3_linear)"/>
<path d="M133.179 58.3588C134.588 55.9559 135.841 54.432 136.908 54.6066C138.019 54.7876 139.657 56.3763 140.525 58.0289L140.47 58.0278C139.057 58.0108 136.844 58.3296 134.465 58.769C134.073 58.5783 133.645 58.4429 133.179 58.3588Z" fill="#EDCECE"/>
<path d="M103.276 51.0722C103.255 50.8654 103.234 50.6594 103.224 50.4605C103.22 50.3899 103.222 50.3238 103.22 50.2543C103.214 50.0733 103.207 49.8921 103.21 49.7185C103.21 49.6554 103.216 49.5968 103.219 49.5346C103.224 49.3601 103.23 49.1853 103.244 49.0182C103.25 48.9483 103.261 48.8835 103.269 48.8149C103.285 48.6618 103.301 48.5078 103.324 48.3616C103.337 48.2833 103.355 48.2109 103.37 48.1346C103.395 48.0048 103.418 47.8727 103.448 47.7488C103.467 47.6705 103.492 47.5986 103.513 47.5227C103.546 47.4078 103.576 47.2904 103.613 47.1811C103.639 47.1034 103.67 47.0326 103.699 46.9576C103.737 46.8578 103.773 46.7554 103.815 46.6607C103.849 46.5842 103.888 46.5151 103.924 46.4421C103.966 46.3572 104.006 46.2687 104.052 46.1884C104.093 46.1156 104.139 46.0508 104.183 45.982C104.229 45.9096 104.273 45.8337 104.321 45.766C104.369 45.6988 104.422 45.6399 104.473 45.5771C104.522 45.516 104.569 45.4512 104.621 45.3944C104.674 45.3351 104.732 45.2842 104.788 45.2295C104.841 45.178 104.892 45.1224 104.946 45.0749C105.005 45.024 105.068 44.9817 105.129 44.9357C105.185 44.8937 105.239 44.8474 105.297 44.8094C105.361 44.7669 105.428 44.7333 105.495 44.6963C105.553 44.664 105.609 44.6278 105.668 44.5994C105.736 44.5667 105.807 44.543 105.877 44.5158C105.938 44.4924 105.996 44.4649 106.058 44.4457C106.129 44.4236 106.202 44.4105 106.274 44.3939C106.333 44.3804 106.391 44.3614 106.451 44.3514L106.451 44.3532C106.461 44.3517 106.47 44.3481 106.479 44.3468C107.401 44.205 108.447 44.464 109.525 45.0669C111.018 45.8481 112.351 47.2087 113.549 48.9326C113.943 49.4882 114.324 50.0913 114.69 50.7386C114.993 51.2665 115.288 51.8143 115.574 52.3804C116.221 53.6603 116.601 54.8174 116.909 55.9667C117.032 56.3647 117.154 56.7638 117.263 57.1798C118.004 59.9915 118.816 62.3021 119.611 64.2886C120.622 66.5904 121.791 69.0548 122.351 70.4844C123.387 69.3902 123.932 68.7481 124.895 67.9362C128.381 64.5479 131.863 61.597 133.324 59.795C134.011 59.9649 134.6 60.2384 135.114 60.6156L135.115 60.6138C135.14 60.6322 135.161 60.6561 135.185 60.6749C135.344 60.7966 135.496 60.928 135.641 61.0707C135.698 61.1275 135.753 61.1897 135.808 61.2499C135.919 61.3702 136.026 61.4966 136.129 61.6304C136.184 61.7021 136.238 61.7753 136.291 61.851C136.392 61.9955 136.488 62.1492 136.581 62.3081C136.624 62.3806 136.668 62.4503 136.709 62.5258C136.839 62.7647 136.963 63.0147 137.079 63.284C131.7 73.6904 131.66 75.8999 124.435 80.9364C123.705 81.4466 122.885 81.9649 121.943 82.0388C121.075 82.1988 120.273 81.8603 119.435 81.3344C119.407 81.3182 119.383 81.3012 119.356 81.2848C119.134 81.143 118.91 80.993 118.679 80.8333C117.065 79.7138 115.349 78.0944 114.164 76.1541C110.053 69.4176 104.556 58.5054 103.411 52.0609C103.362 51.7813 103.321 51.5081 103.29 51.241C103.284 51.1837 103.282 51.1295 103.276 51.0722Z" fill="url(#paint4_linear)"/>
<path d="M116.91 55.967C116.91 55.967 111.799 62.8533 106.139 62.2593C106.139 62.2593 101.766 52.604 102.152 47.8507C102.538 43.0971 112.117 37.1971 116.91 55.967Z" fill="#4274AD"/>
<path d="M11.2378 72.8688C11.3798 72.673 11.5141 72.4779 11.6439 72.2832C11.7422 72.1358 11.8409 71.9883 11.9324 71.8416C12.0554 71.6447 12.1694 71.4489 12.2809 71.2533C12.362 71.1115 12.4451 70.9695 12.5202 70.8283C12.628 70.6263 12.7257 70.4257 12.8227 70.2252C12.8869 70.0927 12.9547 69.9597 13.0142 69.8277C13.1097 69.6166 13.1947 69.4075 13.2794 69.1982C14.2296 66.8518 14.5505 64.6173 14.8978 62.548C14.9125 62.4635 14.928 62.3832 14.9424 62.3007L14.9439 62.3011C15.2878 60.3657 15.7796 58.7593 16.3936 57.4089L16.3907 57.408C16.3997 57.3883 16.4097 57.3706 16.4187 57.3509C16.4968 57.1808 16.5792 57.019 16.661 56.8569C16.7148 56.7505 16.7677 56.6416 16.8233 56.5385C16.9072 56.3825 16.9943 56.2334 17.0817 56.0847C17.1397 55.9859 17.1974 55.8861 17.257 55.7905C17.3474 55.6456 17.4405 55.506 17.5344 55.3679C17.5951 55.2785 17.6556 55.1892 17.7179 55.1027C17.8156 54.9666 17.9156 54.8347 18.0167 54.7053C18.0784 54.6266 18.1403 54.548 18.2031 54.4715C18.3095 54.342 18.4177 54.2159 18.5273 54.0932C18.5876 54.0257 18.6483 53.9591 18.7097 53.8934C18.8261 53.7688 18.9439 53.6467 19.0637 53.5286C19.1202 53.473 19.1773 53.4186 19.2344 53.3644C19.3627 53.2427 19.492 53.1232 19.6238 53.008C19.6729 52.9653 19.7223 52.9239 19.7717 52.8821C19.9148 52.7606 20.0593 52.6414 20.2062 52.5268C20.2164 52.519 20.2259 52.5102 20.2359 52.5024L20.237 52.5029C22.7267 50.5757 25.7482 49.5662 28.7733 48.0474C28.9213 47.973 29.0696 47.898 29.2177 47.821C29.3187 47.7686 29.419 47.7142 29.5198 47.6604C29.6579 47.5867 29.7961 47.5128 29.9338 47.4363C30.0418 47.3763 30.1497 47.3135 30.2575 47.2516C30.389 47.1761 30.5206 47.1013 30.6518 47.023C30.7637 46.9562 30.8752 46.8856 30.9865 46.8164C31.1133 46.7378 31.2401 46.6602 31.3664 46.5783C31.4844 46.5018 31.6016 46.4206 31.719 46.3412C31.8374 46.2611 31.9562 46.1828 32.074 46.0993C32.2006 46.0097 32.3263 45.9142 32.4522 45.8206C32.5604 45.7401 32.6692 45.6624 32.7769 45.5788C32.9194 45.4682 33.0602 45.3502 33.2016 45.2341C33.2909 45.1606 33.3811 45.0909 33.4698 45.0151C33.6995 44.8188 33.9275 44.6151 34.1531 44.402C34.4554 44.1166 34.7338 43.8108 35.002 43.4967C35.048 43.4427 35.0932 43.3878 35.1384 43.333C35.2045 43.2527 35.2652 43.1677 35.3294 43.0858C35.5106 42.8547 35.6909 42.6224 35.8575 42.379C35.9574 42.2332 36.0495 42.0814 36.1445 41.9316C36.2882 41.7053 36.4307 41.4783 36.5643 41.2436C36.6585 41.0783 36.7482 40.9093 36.8376 40.7403C37.1995 40.058 37.5309 39.3509 37.8347 38.6224C37.8748 38.5261 37.9148 38.4299 37.9539 38.3332C38.2847 37.519 38.5913 36.6865 38.8876 35.8487C38.9215 35.7527 38.9556 35.6566 38.9892 35.5606C39.1277 35.1664 39.265 34.7715 39.4022 34.3779C40.0399 32.5478 40.6847 30.7425 41.5152 29.123L41.5144 29.1226C41.5173 29.1168 41.5208 29.1115 41.5236 29.1058C41.6713 28.8186 41.825 28.5372 41.9855 28.2628C42.0108 28.2197 42.0388 28.179 42.0643 28.1361C42.201 27.9071 42.3415 27.6816 42.4888 27.4628C42.5374 27.3907 42.5901 27.3224 42.6401 27.2516C42.7704 27.0664 42.9026 26.8832 43.0416 26.7069C43.1014 26.631 43.1652 26.5591 43.2267 26.485C43.3635 26.3201 43.5029 26.158 43.6489 26.002C43.7179 25.9283 43.7901 25.8582 43.8612 25.7865C44.0091 25.6376 44.1608 25.4923 44.3185 25.3529C44.3949 25.2852 44.4738 25.2199 44.5526 25.1547C44.7152 25.0199 44.883 24.8903 45.0562 24.7657C45.1397 24.7058 45.2244 24.6469 45.3104 24.5894C45.4907 24.4688 45.6782 24.3551 45.8706 24.246C45.96 24.1951 46.0491 24.144 46.1413 24.0958C46.3432 23.9901 46.5541 23.8929 46.7692 23.7996C46.8346 23.7712 46.8934 23.7367 46.96 23.7095C46.9621 23.7113 46.9644 23.7128 46.9665 23.7146C48.5378 23.0757 50.4577 22.7655 52.8685 22.9133C83.6233 37.7682 125.902 18.121 134.995 30.9166C135.76 31.9929 135.964 32.7783 135.778 33.3562L135.779 33.3575C135.779 33.36 135.777 33.3617 135.776 33.3642C135.739 33.4761 135.684 33.5786 135.619 33.6752C135.604 33.6969 135.588 33.7179 135.572 33.7389C135.507 33.8248 135.433 33.9058 135.346 33.9801C135.337 33.9874 135.33 33.9958 135.322 34.0031C135.225 34.083 135.113 34.1549 134.993 34.2224C134.967 34.2372 134.939 34.2516 134.912 34.2657C134.795 34.3263 134.671 34.383 134.537 34.4339C134.53 34.4365 134.524 34.4401 134.517 34.4429L134.516 34.4425C134.183 34.5666 133.802 34.6635 133.385 34.7392C130.319 35.2949 117.021 33.3312 115.49 34.4938C114.924 34.9513 114.48 35.4726 114.262 35.8748C114.258 35.8828 114.251 35.8914 114.247 35.8993C114.113 36.1522 113.997 36.4305 113.907 36.7285C113.792 37.1078 113.724 37.5237 113.709 37.9664C113.704 38.0889 113.7 38.2115 113.705 38.3383C113.708 38.4144 113.718 38.4936 113.725 38.571C113.735 38.6896 113.745 38.8082 113.764 38.9301C113.821 39.2989 113.915 39.6812 114.062 40.0772C114.087 40.1383 114.102 40.1907 114.125 40.2505L114.13 40.2509C114.176 40.3682 114.205 40.471 114.245 40.5832C114.302 40.7436 114.363 40.9075 114.408 41.0582C114.447 41.1865 114.473 41.3038 114.504 41.4254C114.54 41.5679 114.581 41.7137 114.606 41.8471C114.628 41.9611 114.638 42.0642 114.652 42.1719C114.662 42.2445 114.677 42.3215 114.683 42.3912L114.688 42.3916C114.69 42.4066 114.688 42.419 114.689 42.4339C114.692 42.4708 114.695 42.5075 114.697 42.5438C114.702 42.6261 114.698 42.7 114.698 42.7781C114.698 42.8684 114.702 42.9615 114.696 43.0467C114.694 43.0828 114.692 43.1197 114.688 43.1549C114.682 43.2221 114.666 43.2821 114.656 43.346C114.646 43.4033 114.645 43.467 114.632 43.5219C114.632 43.5219 114.626 43.521 114.623 43.5204C114.611 43.5757 114.602 43.6345 114.586 43.6872C114.564 43.7633 114.531 43.8305 114.502 43.9016C114.468 43.9845 114.439 44.0708 114.398 44.1471C114.363 44.2124 114.318 44.2695 114.277 44.3303C114.23 44.4013 114.186 44.4757 114.131 44.5407C114.085 44.5965 114.029 44.6447 113.977 44.6962C113.916 44.7566 113.86 44.8199 113.793 44.875C113.736 44.9217 113.671 44.9615 113.609 45.0047C113.537 45.0558 113.468 45.1097 113.389 45.1562C113.323 45.1951 113.25 45.2279 113.18 45.2637C113.097 45.3066 113.017 45.352 112.928 45.3907C112.855 45.4228 112.775 45.4496 112.698 45.479C112.604 45.5148 112.514 45.5531 112.416 45.5854C112.336 45.6117 112.249 45.6339 112.167 45.6582C112.065 45.6878 111.966 45.7195 111.861 45.7462C111.774 45.7684 111.683 45.7867 111.594 45.8069C111.486 45.8314 111.379 45.8578 111.268 45.8801C111.185 45.8969 111.099 45.9108 111.014 45.9266C110.892 45.9491 110.771 45.9726 110.646 45.9934C110.575 46.0051 110.502 46.0153 110.431 46.0266C110.076 46.0821 109.715 46.1336 109.347 46.1832C78.8426 50.296 62.3219 101.262 6.46387 77.6586C8.57689 76.0345 10.1028 74.4343 11.2378 72.8688Z" fill="url(#paint5_linear)"/>
<path d="M126.346 65.1242C126.343 64.9503 126.343 64.7744 126.326 64.6096C126.314 64.5007 126.291 64.4005 126.274 64.2956C126.251 64.1534 126.232 64.0085 126.198 63.8733C126.173 63.7673 126.136 63.6691 126.104 63.5671C125.962 63.1116 125.767 62.6939 125.526 62.3102C125.398 62.1076 125.26 61.9135 125.11 61.7279C125.063 61.6697 125.017 61.6111 124.968 61.5545C124.782 61.3381 124.587 61.129 124.376 60.9335C127.754 60.1923 136.805 57.9852 140.47 58.0277C140.772 58.0312 141.065 58.0505 141.354 58.0768C141.441 58.0848 141.525 58.0952 141.611 58.1051C141.821 58.1295 142.027 58.1593 142.229 58.195C142.308 58.2089 142.388 58.2215 142.466 58.2372C142.73 58.2903 142.987 58.3503 143.233 58.4213C143.272 58.4324 143.308 58.4461 143.346 58.4576C143.557 58.5211 143.76 58.5908 143.958 58.6662C144.032 58.6945 144.103 58.7239 144.175 58.7538C144.343 58.8235 144.505 58.8974 144.662 58.9751C144.719 59.0036 144.779 59.0306 144.835 59.06C145.037 59.1666 145.23 59.2788 145.411 59.3972C145.449 59.422 145.483 59.4487 145.519 59.4739C145.664 59.5726 145.8 59.6746 145.929 59.7799C145.979 59.8202 146.026 59.8609 146.073 59.902C146.194 60.0074 146.306 60.1149 146.41 60.2253C146.433 60.2489 146.461 60.2708 146.483 60.2947C146.485 60.2981 146.485 60.3005 146.487 60.3038C147.03 60.9027 147.346 61.5644 147.377 62.2213C147.508 64.9987 146.929 67.1496 145.436 67.5989C142.082 68.6089 132.093 67.3062 126.279 66.2832C126.324 65.9799 126.348 65.6899 126.356 65.4109C126.359 65.3118 126.348 65.2208 126.346 65.1242Z" fill="url(#paint6_linear)"/>
<path d="M115.107 34.6813C114.838 37.9172 123.453 42.1543 126.734 40.4977C127.08 40.3234 127.262 39.5758 127.474 39.2749C127.275 38.4459 127.08 37.9543 127.152 37.1105C127.234 36.1568 127.57 35.4488 127.878 34.5902C128.269 33.4961 128.281 31.18 128.959 28.6163L119.137 24.2121L117.034 23.0649C118.041 28.1087 116.93 30.4537 115.107 34.6813Z" fill="#EDCECE"/>
<path d="M115.683 10.7196C117.449 8.35901 119.767 7.26676 122.598 7.31189C122.668 7.313 122.733 7.32229 122.802 7.32472C123.048 7.33335 123.292 7.34574 123.528 7.3703C123.649 7.38291 123.764 7.40348 123.882 7.4203C124.065 7.44596 124.247 7.47229 124.424 7.50769C124.545 7.53202 124.663 7.56189 124.782 7.59065C124.948 7.63092 125.112 7.67339 125.272 7.72207C125.387 7.75702 125.5 7.79463 125.612 7.83379C125.77 7.88888 125.924 7.94817 126.075 8.01145C126.181 8.05525 126.286 8.09928 126.388 8.14685C126.543 8.21897 126.694 8.29773 126.843 8.37826C126.933 8.42715 127.025 8.47384 127.113 8.52583C127.281 8.62494 127.443 8.73269 127.603 8.84264C127.665 8.88534 127.73 8.92384 127.79 8.96786C128.008 9.12583 128.217 9.2933 128.419 9.47052C128.464 9.50968 128.505 9.55326 128.549 9.59353C128.704 9.73556 128.857 9.88092 129.003 10.034C129.071 10.1048 129.135 10.18 129.201 10.253C129.318 10.3831 129.434 10.5148 129.545 10.6522C129.613 10.7367 129.679 10.8238 129.745 10.911C129.847 11.0455 129.947 11.1822 130.044 11.3225C130.108 11.4152 130.171 11.5088 130.233 11.6039C130.327 11.7491 130.418 11.8977 130.506 12.0484C130.562 12.1433 130.619 12.2376 130.672 12.3347C130.764 12.5006 130.851 12.671 130.937 12.8426C130.981 12.9296 131.026 13.0145 131.068 13.103C131.179 13.3356 131.283 13.5734 131.383 13.8152C131.396 13.8462 131.411 13.8756 131.423 13.9068C131.529 14.1668 131.629 14.4316 131.722 14.7013L131.72 14.7044C131.942 15.3413 132.133 16.0019 132.291 16.6836L132.514 27.6061C132.534 28.0513 132.492 28.7247 132.394 29.8272C132.23 31.6869 131.746 33.8199 131.223 34.2137C130.767 34.5579 130.269 34.6898 129.554 35.0373C129.273 35.1741 128.991 35.2685 128.583 35.269L128.584 35.2701L128.573 35.2694C128.526 35.2692 128.47 35.2634 128.419 35.2606C128.358 35.2572 128.301 35.2566 128.234 35.2493C128.16 35.2411 128.074 35.2254 127.991 35.2119C127.938 35.203 127.89 35.1982 127.832 35.1869C127.714 35.1639 127.581 35.1318 127.445 35.0977C127.413 35.0898 127.388 35.0853 127.355 35.0769C127.181 35.0314 126.993 34.9772 126.787 34.9128C125.509 34.3207 122.586 33.707 121.426 33.0895C121.109 32.921 120.829 32.7267 120.578 32.5088C118.824 30.9829 118.535 28.2955 117.398 25.1579C115.034 23.9426 114.102 22.7557 113.646 21.271C113.511 20.8309 113.411 20.378 113.341 19.9174C113.307 19.6871 113.28 19.4548 113.261 19.2212C113.011 16.1831 114.043 12.9134 115.683 10.7196Z" fill="#EDCECE"/>
<path d="M112.14 16.5576C112.135 17.8286 112.259 19.0229 112.479 19.8959C113.266 23.0328 114.933 25.6218 117.81 27.8067C118.909 28.6419 119.277 25.4636 119.474 24.4304C119.578 25.9724 119.493 27.6377 119.113 29.2561C118.746 30.8156 119.228 31.1963 119.938 31.778C121.65 33.1811 124.136 34.8249 126.55 35.4822C127.88 35.8452 128.922 35.983 129.61 35.589C130.773 34.9231 131.557 34.4684 131.942 33.7755C132.643 32.5162 132.61 28.6744 132.522 27.1884C132.151 27.6607 131.903 27.1987 131.112 27.0875C130.683 27.0268 129.499 27.6202 128.83 28.0534C126.499 29.5647 126.752 31.4884 126.155 31.6459C125.954 31.6983 124.72 30.914 124.153 30.5306C123.028 29.7722 122.321 28.9817 122.058 28.1364C121.387 25.9751 120.367 23.3089 119.7 20.6618C119.641 19.82 120.33 19.6959 120.214 18.8775C120.148 18.4151 120.07 18.0043 119.992 17.6202L119.993 17.6198C119.985 17.5795 119.977 17.5428 119.969 17.5032C119.947 17.3987 119.927 17.3012 119.906 17.2014C119.877 17.0667 119.85 16.9368 119.823 16.8094C119.791 16.6583 119.762 16.5134 119.735 16.3704C119.728 16.3357 119.721 16.2994 119.715 16.2651C119.684 16.0965 119.658 15.9326 119.637 15.7715C119.633 15.7401 119.631 15.7091 119.627 15.678C119.613 15.5514 119.603 15.4262 119.597 15.3016C119.595 15.2538 119.594 15.2063 119.593 15.1587C119.591 15.0452 119.595 14.9319 119.603 14.8182C119.606 14.7726 119.608 14.7273 119.613 14.6815C119.629 14.5255 119.652 14.3687 119.689 14.2083C120.704 12.5587 124.528 15.9116 127.584 15.4985C126.216 14.9122 121.847 12.6627 119.618 11.5709C117.339 10.4532 114.854 9.27242 113.244 11.0819C113.096 11.3574 112.97 11.6609 112.854 11.9757C112.833 12.0333 112.811 12.089 112.791 12.1476C112.685 12.4554 112.593 12.7762 112.515 13.1085C112.5 13.1726 112.486 13.2375 112.472 13.3025C112.397 13.6472 112.331 13.9981 112.282 14.3594C112.282 14.3594 112.282 14.3622 112.281 14.3651C112.232 14.7275 112.2 15.0941 112.176 15.4598C112.171 15.5297 112.166 15.5985 112.162 15.6684C112.146 15.9656 112.135 16.2618 112.134 16.5534L112.14 16.5576ZM128.694 29.9361C128.992 29.4897 129.984 28.9722 130.433 28.7395C131.076 28.4049 131.569 29.1585 131.718 29.9308C131.781 30.2563 131.824 30.5707 131.713 30.8131C131.594 31.0726 131.344 31.1379 130.948 31.3837C130.667 30.8178 130.563 30.6881 130.152 30.9841C129.798 31.2403 129.665 31.3187 129.955 32.1007C129.611 32.3819 129.241 32.6226 128.867 32.7286C128.565 32.8153 128.635 32.7001 128.531 32.5032C128.216 31.9038 128.405 30.3669 128.694 29.9361Z" fill="url(#paint7_linear)"/>
<path d="M125.251 31.2274C125.671 31.4767 126.052 31.6725 126.155 31.6462C126.752 31.4884 126.499 29.5648 128.829 28.0535C129.499 27.6201 130.682 27.0269 131.112 27.0876C131.902 27.1991 132.151 27.6608 132.522 27.1884C132.609 28.6745 132.642 32.5163 131.942 33.7756C131.556 34.4687 130.773 34.9232 129.61 35.5891C129.453 35.6783 129.279 35.7411 129.086 35.7791C128.75 35.4075 128.245 34.9601 128.103 34.832C127.215 34.0225 126.038 32.8915 125.251 31.2274ZM129.955 32.101C129.665 31.319 129.798 31.2406 130.152 30.9845C130.562 30.6887 130.667 30.8181 130.947 31.3842C131.343 31.1384 131.594 31.0732 131.713 30.8137C131.823 30.5712 131.78 30.2568 131.717 29.9314C131.568 29.1588 131.076 28.4053 130.432 28.7398C129.984 28.9725 128.991 29.49 128.693 29.9364C128.405 30.367 128.216 31.9041 128.53 32.5035C128.634 32.7006 128.564 32.8156 128.866 32.7289C129.24 32.6229 129.611 32.3822 129.955 32.101Z" fill="url(#paint8_linear)"/>
<path d="M113.182 10.5328C113.184 10.5167 113.183 10.5016 113.185 10.4857C113.185 10.4857 113.186 10.487 113.187 10.4879C113.469 8.33415 114.984 5.89743 117.096 5.58747C116.672 5.76314 116.477 5.93991 116.134 6.17929C116.247 6.13482 116.367 6.08858 116.485 6.04278C118.142 5.14676 120.302 4.69721 121.911 4.78371C123.675 4.88017 125.221 5.44234 126.858 6.00141C126.388 6.0815 126.204 6.10783 125.807 6.0784C125.9 6.12508 125.992 6.17552 126.084 6.22464C128.487 7.13128 129.043 8.44566 132.357 9.60008C132.329 9.61203 132.3 9.61845 132.272 9.62951C132.336 9.64654 132.399 9.66579 132.463 9.68238C132.495 9.86712 132.517 10.0463 132.532 10.2222C132.542 10.3317 132.545 10.4368 132.549 10.5428C132.55 10.5899 132.553 10.6377 132.553 10.6842C132.618 16.4049 123.666 16.7769 119.755 15.595C119.705 15.585 119.653 15.5738 119.602 15.5627C119.785 15.8151 120.074 16.0804 120.477 16.3808C120.333 16.3536 120.187 16.318 120.041 16.283C120.074 16.2985 120.104 16.3131 120.139 16.3291C116.978 15.7339 113.853 13.2715 113.138 11.3012C113.132 11.0525 113.15 10.7943 113.182 10.5328Z" fill="url(#paint9_linear)"/>
<path d="M117.521 21.8464C115.35 21.2752 115.59 24.0717 116.068 25.7259C116.397 26.8644 117.222 26.6768 117.606 27.5599C117.995 28.4535 118.619 28.8914 119.182 28.9449C119.433 27.7593 119.523 26.0241 119.508 24.8655C119.416 23.4568 118.774 22.1763 117.521 21.8464Z" fill="#EDCECE"/>
<path d="M131.257 21.0487C131.595 20.9997 131.813 20.4364 131.743 19.7906C131.673 19.1448 131.342 18.661 131.003 18.71C130.664 18.7591 130.446 19.3224 130.517 19.9682C130.587 20.614 130.918 21.0978 131.257 21.0487Z" fill="#5E4F44"/>
<path d="M126.04 22.6955C126.379 22.6464 126.596 22.0831 126.526 21.4373C126.456 20.7915 126.125 20.3077 125.786 20.3568C125.447 20.4058 125.23 20.9691 125.3 21.6149C125.37 22.2607 125.701 22.7445 126.04 22.6955Z" fill="#5E4F44"/>
<path d="M131.257 21.0487C131.595 20.9997 131.813 20.4364 131.743 19.7906C131.673 19.1448 131.342 18.661 131.003 18.71C130.664 18.7591 130.446 19.3224 130.517 19.9682C130.587 20.614 130.918 21.0978 131.257 21.0487Z" fill="#5E4F44"/>
<path d="M126.04 22.6955C126.379 22.6464 126.596 22.0831 126.526 21.4373C126.456 20.7915 126.125 20.3077 125.786 20.3568C125.447 20.4058 125.23 20.9691 125.3 21.6149C125.37 22.2607 125.701 22.7445 126.04 22.6955Z" fill="#5E4F44"/>
<defs>
<linearGradient id="paint0_linear" x1="124.516" y1="49.1207" x2="148.093" y2="49.1207" gradientUnits="userSpaceOnUse">
<stop offset="0.4248" stop-color="#EBCDCD"/>
<stop offset="0.6296" stop-color="#D5B9B9"/>
<stop offset="0.8345" stop-color="#C5ACAC"/>
<stop offset="1" stop-color="#C0A7A7"/>
</linearGradient>
<linearGradient id="paint1_linear" x1="124.807" y1="175.207" x2="123.138" y2="89.1984" gradientUnits="userSpaceOnUse">
<stop stop-color="#39383B"/>
<stop offset="0.333" stop-color="#3F3E40"/>
<stop offset="0.9442" stop-color="#444345"/>
</linearGradient>
<linearGradient id="paint2_linear" x1="122" y1="97.1424" x2="123.63" y2="33.2852" gradientUnits="userSpaceOnUse">
<stop offset="0.0583" stop-color="#335987"/>
<stop offset="0.5413" stop-color="#4172AA"/>
</linearGradient>
<linearGradient id="paint3_linear" x1="125.646" y1="62.2339" x2="118.744" y2="67.2483" gradientUnits="userSpaceOnUse">
<stop offset="0.4248" stop-color="#EBCDCD"/>
<stop offset="0.435" stop-color="#EACCCC"/>
<stop offset="0.6485" stop-color="#D5B3B3"/>
<stop offset="0.843" stop-color="#C8A3A3"/>
<stop offset="1" stop-color="#C49E9E"/>
</linearGradient>
<linearGradient id="paint4_linear" x1="108.897" y1="68.9766" x2="130.215" y2="53.4876" gradientUnits="userSpaceOnUse">
<stop offset="0.4248" stop-color="#EBCDCD"/>
<stop offset="0.5384" stop-color="#D7BBBB"/>
<stop offset="0.7128" stop-color="#BEA6A5"/>
<stop offset="0.8718" stop-color="#AE9998"/>
<stop offset="1" stop-color="#A99493"/>
</linearGradient>
<linearGradient id="paint5_linear" x1="135.577" y1="54.9293" x2="6.76433" y2="53.3564" gradientUnits="userSpaceOnUse">
<stop stop-color="#548080"/>
<stop offset="0.212" stop-color="#679F9E"/>
<stop offset="0.3447" stop-color="#74B4B3"/>
</linearGradient>
<linearGradient id="paint6_linear" x1="129.047" y1="70.0932" x2="145.137" y2="58.4025" gradientUnits="userSpaceOnUse">
<stop offset="0.4248" stop-color="#EBCDCD"/>
<stop offset="0.5816" stop-color="#DCC0C0"/>
<stop offset="0.813" stop-color="#CDB2B2"/>
<stop offset="1" stop-color="#C8ADAD"/>
</linearGradient>
<linearGradient id="paint7_linear" x1="119.361" y1="32.567" x2="126.926" y2="14.5681" gradientUnits="userSpaceOnUse">
<stop offset="0.0583" stop-color="#335987"/>
<stop offset="0.5413" stop-color="#4172AA"/>
</linearGradient>
<linearGradient id="paint8_linear" x1="127.762" y1="35.2226" x2="131.347" y2="26.6946" gradientUnits="userSpaceOnUse">
<stop offset="0.0583" stop-color="#335987"/>
<stop offset="0.5413" stop-color="#4172AA"/>
</linearGradient>
<linearGradient id="paint9_linear" x1="120.957" y1="16.8986" x2="125.736" y2="5.52954" gradientUnits="userSpaceOnUse">
<stop offset="0.0583" stop-color="#335987"/>
<stop offset="0.5413" stop-color="#4172AA"/>
</linearGradient>
</defs>
</svg>
