<svg width="200" height="200" viewBox="0 0 200 200" fill="none" xmlns="http://www.w3.org/2000/svg">
<path fill-rule="evenodd" clip-rule="evenodd" d="M80.7039 93.3679L80.6543 10.585C109.147 29.6469 137.582 48.0679 166.233 67.2969L166.282 150.344C137.762 131.202 109.535 112.656 80.7039 93.3679Z" fill="#F1F7F9"/>
<path fill-rule="evenodd" clip-rule="evenodd" d="M166.844 150.785C166.997 150.72 167.213 150.589 167.414 150.441C167.593 150.309 167.762 150.16 167.869 150.026C167.937 149.941 167.977 149.877 168.003 149.8C168.028 149.722 168.034 149.646 168.033 149.535V149.534C168.028 149.051 168.09 148.641 168.13 148.168L167.246 147.765L166.586 148.243L166.654 150.46L166.844 150.785Z" fill="#333537"/>
<path fill-rule="evenodd" clip-rule="evenodd" d="M168.233 148.126L167.342 147.475L167.357 147.959L167.937 148.382L168.233 148.126Z" fill="#6D7378"/>
<path fill-rule="evenodd" clip-rule="evenodd" d="M168.155 66.9028C168.176 66.5973 168.261 66.0575 168.11 65.7811C168.027 65.6296 167.901 65.5542 167.764 65.5407C167.672 65.5314 167.569 65.5491 167.476 65.6066C167.395 65.6557 167.323 65.7327 167.27 65.8446C167.199 65.9929 167.131 66.2358 167.066 66.5584C167 66.8803 166.936 67.2858 166.873 67.7577L167.834 67.117L168.155 66.9028Z" fill="#333537"/>
<path fill-rule="evenodd" clip-rule="evenodd" d="M167.694 66.3232C168.029 66.5478 167.828 66.7184 167.517 66.9252C167.457 66.9659 167.392 67.0078 167.324 67.0531C167.258 67.0974 167.195 67.1407 167.134 67.181C166.824 67.3881 166.568 67.5219 166.233 67.2971C137.739 48.1735 109.171 29.2323 80.6548 10.1553C80.3186 9.9301 80.5221 9.75908 80.8347 9.55134C80.8941 9.51174 80.9575 9.47103 81.0242 9.42678C81.0884 9.38386 81.1497 9.34182 81.2092 9.30244C81.5221 9.0947 81.7792 8.95952 82.1156 9.18452C110.63 28.26 139.198 47.1985 167.694 66.3232Z" fill="#E5EBF0"/>
<path fill-rule="evenodd" clip-rule="evenodd" d="M166.852 67.3467L167.075 73.0783L166.969 150.188L166.901 150.394C166.804 150.439 166.702 150.466 166.596 150.46C166.484 150.453 166.38 150.409 166.283 150.344L166.047 130.313L166.233 67.2971C166.444 67.438 166.632 67.4465 166.852 67.3467Z" fill="#E5EBF0"/>
<path fill-rule="evenodd" clip-rule="evenodd" d="M167.867 66.552L167.921 149.599C167.94 149.823 167.1 150.315 166.901 150.393L166.852 67.3465C167.04 67.0898 167.705 66.6839 167.867 66.552Z" fill="#DBE3E8"/>
<path fill-rule="evenodd" clip-rule="evenodd" d="M81.5032 8.68036C81.1852 8.47019 80.8381 8.30979 80.6147 8.77882C80.3998 9.19165 80.3802 9.9339 80.3584 10.754C109.231 29.6998 138.012 48.716 166.874 67.7445C167.151 66.8374 167.079 65.5779 168.001 65.7027C167.945 65.6003 167.86 65.5328 167.775 65.4956C167.716 65.4408 167.255 65.1359 167.185 65.1049C138.606 46.2998 110.17 27.4828 81.5032 8.68036Z" fill="#575B5D"/>
<path fill-rule="evenodd" clip-rule="evenodd" d="M168 65.7007C167.944 65.5983 167.86 65.5308 167.775 65.4936C167.716 65.4388 167.255 65.1339 167.184 65.1029C138.62 46.3082 110.09 27.4481 81.5028 8.69808C81.1848 8.48812 80.8377 8.3275 80.6143 8.79675C80.5756 8.87131 80.543 8.9567 80.5156 9.05162C109.445 28.0534 138.333 47.1304 167.25 66.1843C167.385 65.8556 167.598 65.6463 168 65.7007Z" fill="#6D7378"/>
<path fill-rule="evenodd" clip-rule="evenodd" d="M168.154 66.9028C168.175 66.5973 168.26 66.0575 168.109 65.7811C168.026 65.6296 167.9 65.5542 167.763 65.5407C167.671 65.5314 167.568 65.5491 167.475 65.6066C167.394 65.6557 167.322 65.7327 167.269 65.8446C167.198 65.9929 167.13 66.2358 167.065 66.5584C166.999 66.8803 166.935 67.2858 166.872 67.7577L167.212 67.5309C167.262 67.1856 167.312 66.8851 167.361 66.6382C167.421 66.3464 167.479 66.1334 167.535 66.0143C167.598 65.8823 167.778 65.8349 167.851 65.9688C167.938 66.1283 167.859 66.7387 167.849 66.8918L167.833 67.1172L168.154 66.9028Z" fill="#505455"/>
<path fill-rule="evenodd" clip-rule="evenodd" d="M80.5703 12.7483L80.7138 89.1998C109.543 108.701 137.484 127.081 165.896 146.301L165.752 69.6279C137.007 50.2905 108.98 31.8598 80.5703 12.7483Z" fill="white"/>
<path fill-rule="evenodd" clip-rule="evenodd" d="M166.681 149.441C138.443 130.449 110.143 111.574 81.8816 92.6272C81.3825 92.2926 80.8565 91.8493 80.3574 91.5148L80.5936 91.3862C109.341 110.663 138.081 129.94 166.827 149.215L166.681 149.441Z" fill="#6D7378"/>
<path fill-rule="evenodd" clip-rule="evenodd" d="M166.681 149.441C137.924 130.097 109.139 110.812 80.3584 91.5144L80.3745 92.6058C80.377 92.7693 80.3887 92.8863 80.4444 92.9702L80.5785 93.0719C109.316 112.353 137.986 131.556 166.669 150.862L166.681 149.441Z" fill="#575B5D"/>
<path fill-rule="evenodd" clip-rule="evenodd" d="M166.521 149.333L166.538 150.434C166.54 150.598 166.552 150.715 166.608 150.8H166.607C166.685 150.916 166.791 150.938 166.961 150.865C167.113 150.799 167.33 150.669 167.53 150.521C167.71 150.389 167.978 150.199 168.085 150.064C168.153 149.979 168.193 149.915 168.218 149.838C168.244 149.76 168.25 149.684 168.249 149.573V149.572L168.233 148.123L167.938 148.366L167.944 149.576C167.945 149.642 167.943 149.683 167.933 149.712C167.923 149.743 167.9 149.776 167.861 149.826C167.773 149.937 167.526 150.107 167.367 150.225L166.864 150.529C166.846 150.541 166.844 150.526 166.844 150.508C166.844 150.488 166.842 150.454 166.842 150.428L166.826 149.213L166.521 149.333Z" fill="#505455"/>
<path fill-rule="evenodd" clip-rule="evenodd" d="M129.489 114.948L128.224 115.725L129.481 118.174L147.963 130.451L146.708 128.003L147.971 127.224L129.489 114.948ZM160.354 127.281L162.212 128.516L162.198 131.741L160.345 130.51L160.354 127.281ZM160.333 135.436L162.191 136.67L162.183 139.897L160.324 138.662L160.333 135.436ZM162.194 135.821L162.202 132.594L160.343 131.36L160.335 134.586C161.622 135.441 159.832 134.253 162.194 135.821ZM134.043 113.039L132.786 110.587L134.051 109.81L152.534 122.087L151.268 122.863L152.525 125.316L134.043 113.039ZM148.987 125.431L150.244 127.883L131.762 115.607L130.505 113.154L131.77 112.38L150.252 124.657L148.987 125.431Z" fill="#E1E8EE"/>
<path fill-rule="evenodd" clip-rule="evenodd" d="M83.0769 64.6346L83.0762 64.8459L99.6769 75.8727L99.6775 75.6614C94.144 71.986 88.6105 68.3103 83.0769 64.6346ZM83.1218 46.8694L83.1212 47.0804L99.722 58.1072L99.7225 57.8961C94.1888 54.2209 88.6553 50.545 83.1218 46.8694ZM83.1141 49.8397C88.6478 53.5154 94.1813 57.1913 99.7151 60.8665L99.7145 61.0778L83.1137 50.051L83.1141 49.8397ZM83.1066 52.8105C88.6403 56.4862 94.1739 60.1616 99.7074 63.8373L99.7068 64.0484L83.1064 53.0216L83.1066 52.8105ZM83.0994 55.6703C88.6329 59.3459 94.1666 63.0214 99.7001 66.697L99.6995 66.9081L83.0992 55.8813L83.0994 55.6703ZM83.0917 58.6437C88.6252 62.3194 94.1587 65.9948 99.6925 69.6705L99.6917 69.8815L83.0913 58.8548L83.0917 58.6437ZM83.0844 61.6088C88.6179 65.2844 94.1515 68.9603 99.6848 72.6355L99.6842 72.8464L83.0838 61.8196L83.0844 61.6088Z" fill="#E1E8EE"/>
<path fill-rule="evenodd" clip-rule="evenodd" d="M122.883 94.0533C122.84 93.9176 122.813 93.7798 122.81 93.6499L82.334 66.7637L82.333 67.1183L122.883 94.0533ZM122.883 116.198L82.333 89.2626L82.334 88.9079L122.81 115.794C122.813 115.924 122.84 116.062 122.883 116.198ZM122.883 112.434L82.333 85.4986L82.334 85.1444L122.81 112.03C122.813 112.16 122.84 112.298 122.883 112.434ZM122.883 109.085L82.333 82.1497L82.334 81.7955L122.81 108.681C122.813 108.811 122.84 108.949 122.883 109.085ZM122.883 105.287L82.333 78.3519L82.334 77.9973L122.81 104.883C122.813 105.013 122.84 105.151 122.883 105.287ZM122.883 101.636L82.333 74.7004L82.334 74.3462L122.81 101.232C122.813 101.362 122.84 101.5 122.883 101.636ZM122.883 97.8431L82.333 70.9081L82.334 70.5535L122.81 97.4395C122.813 97.5696 122.84 97.7072 122.883 97.8431Z" fill="#E1E8EE"/>
<path d="M122.32 110.902C122.206 110.826 122.1 110.795 122.008 110.803L120.818 108.301L121.157 109.796L121.742 111.026C121.715 111.097 121.7 111.183 121.7 111.283C121.7 111.36 121.708 111.44 121.724 111.521C121.745 111.63 121.779 111.74 121.825 111.847C121.937 112.112 122.115 112.354 122.316 112.488C122.658 112.715 122.935 112.542 122.936 112.104C122.938 111.666 122.662 111.129 122.32 110.902ZM83.1064 70.9302C82.7666 70.7043 82.4873 70.8731 82.4863 71.311C82.4852 71.7488 82.7624 72.2897 83.1026 72.5156C83.2928 72.6421 83.4633 72.6452 83.5777 72.5475L88.3999 78.5784L88.2829 77.8587L83.7814 72.2295L83.7243 72.1581C83.7246 72.1497 83.725 72.1419 83.725 72.1335C83.725 72.0654 83.7185 71.9946 83.7059 71.9229C83.6379 71.5355 83.3951 71.1218 83.1064 70.9302ZM89.5233 78.38C89.1942 78.1614 88.9076 78.2074 88.7618 78.4583C88.7593 78.4621 88.7568 78.4663 88.7547 78.4705L89.0091 80.0342C89.1515 80.2627 89.3271 80.4585 89.5177 80.5853C89.9461 80.8696 90.3016 80.7059 90.3702 80.2264C90.3779 80.1731 90.3817 80.1158 90.3817 80.0545C90.3821 80.0289 90.3812 80.003 90.3798 79.9769C90.3777 79.9302 90.3733 79.8824 90.3668 79.8346C92.3928 79.0919 94.4189 78.3497 96.4453 77.607C96.5949 77.8702 96.7892 78.0979 97.0018 78.2388C97.1037 78.3065 97.2013 78.3486 97.2919 78.3676C98.0555 80.4957 98.8195 82.6244 99.5829 84.7525L99.8754 84.5594C99.1277 82.4756 98.3794 80.3915 97.6317 78.3076C97.7319 78.2371 97.8055 78.1165 97.8415 77.951C97.8572 77.8787 97.8658 77.7977 97.8658 77.7083C97.8677 77.0988 97.4834 76.3497 97.0074 76.0335C96.5313 75.7171 96.1451 75.955 96.1434 76.5643C96.1434 76.653 96.1513 76.745 96.1668 76.8384C96.1767 76.9003 96.1901 76.9629 96.2066 77.0256C94.2015 77.7605 92.1963 78.4957 90.1909 79.2309C90.0338 78.8778 89.7934 78.559 89.5233 78.38ZM100.092 85.1629L99.7999 85.3561C100.923 88.4846 102.045 91.6125 103.168 94.741H103.167C103.041 94.8488 102.964 95.0461 102.963 95.3172C102.963 95.3601 102.965 95.4037 102.968 95.4475C102.977 95.5426 102.993 95.6402 103.016 95.7382C103.137 96.2386 103.452 96.7461 103.822 96.9919C104.192 97.2382 104.508 97.1492 104.631 96.8107C104.655 96.7448 104.672 96.6689 104.68 96.5844C104.683 96.5539 104.685 96.5222 104.686 96.4895C104.686 96.4802 104.686 96.4709 104.686 96.4616C107.91 96.6085 111.13 96.749 114.354 96.8787C114.511 97.247 114.759 97.582 115.038 97.7676C115.208 97.8802 115.366 97.9222 115.5 97.9021C116.543 100.095 117.586 102.288 118.629 104.481L119.085 104.659C117.984 102.345 116.884 100.03 115.783 97.7156C115.858 97.6021 115.902 97.4404 115.903 97.2371C115.903 97.2202 115.902 97.203 115.902 97.1862C115.899 97.0957 115.888 97.0025 115.87 96.9085C115.767 96.3789 115.436 95.822 115.044 95.5621C114.651 95.3008 114.319 95.4171 114.214 95.809C114.196 95.8784 114.184 95.9565 114.181 96.043C114.18 96.0592 114.18 96.0756 114.18 96.0924C114.18 96.1581 114.184 96.2256 114.193 96.2939C110.994 96.1647 107.795 96.036 104.596 95.9067C104.456 95.4517 104.165 95.0105 103.828 94.7864C103.711 94.7087 103.599 94.6647 103.497 94.6512C102.362 91.4882 101.227 88.3253 100.092 85.1629ZM120.122 106.839L119.369 105.255L118.915 105.083L119.58 106.481L119.76 106.86L120.461 108.333L120.122 106.839Z" fill="#705C9A"/>
<path fill-rule="evenodd" clip-rule="evenodd" d="M83.4014 76.7181C83.0594 76.4908 82.7824 76.6636 82.7813 77.1012C82.7801 77.5395 83.0554 78.0762 83.3975 78.3035C83.4575 78.3435 83.5154 78.3709 83.5705 78.3871C85.0991 82.5855 86.628 86.7838 88.1565 90.982C88.0374 91.092 87.9654 91.2844 87.9646 91.5459C87.9631 92.1526 88.3493 92.9059 88.8253 93.2223C89.2552 93.5079 89.6146 93.3382 89.6793 92.8519C91.9213 92.5274 94.1632 92.2028 96.4052 91.878L96.4056 91.8776C96.551 92.1203 96.7343 92.3285 96.9334 92.4608C97.154 92.6077 97.3556 92.6349 97.5083 92.5619C97.5435 92.5451 97.5763 92.5227 97.606 92.4953L103.737 99.5725L104.145 100.044C104.143 100.062 104.142 100.081 104.141 100.1C104.141 100.117 104.14 100.133 104.14 100.15C104.139 100.759 104.523 101.509 104.999 101.825C105.475 102.141 105.862 101.904 105.863 101.294C105.863 101.277 105.863 101.261 105.862 101.243C105.861 101.207 105.859 101.171 105.855 101.134L106.226 101.226L113.343 102.991C113.478 103.463 113.778 103.928 114.127 104.159C114.584 104.463 114.962 104.254 114.989 103.691C114.991 103.659 114.991 103.627 114.991 103.596C117.261 104.457 119.532 105.317 121.802 106.177C121.915 106.412 122.078 106.621 122.259 106.741C122.601 106.969 122.88 106.797 122.881 106.359C122.883 105.924 122.605 105.383 122.263 105.155C121.921 104.928 121.644 105.101 121.643 105.536C121.643 105.576 121.645 105.617 121.649 105.658C119.394 104.778 117.139 103.899 114.883 103.019C114.737 102.583 114.455 102.167 114.132 101.953C113.708 101.672 113.353 101.828 113.28 102.296C113.274 102.337 113.269 102.38 113.267 102.425L112.976 102.353L105.706 100.55C105.551 100.165 105.295 99.8114 105.004 99.619C104.702 99.4178 104.435 99.4406 104.281 99.6411L98.0303 92.4254L97.7803 92.1369C97.7874 92.0973 97.7922 92.0548 97.795 92.0105C97.7968 91.9842 97.7977 91.9574 97.7977 91.9302C97.7993 91.3207 97.4154 90.5716 96.9393 90.2552C96.4632 89.9393 96.0765 90.1767 96.0749 90.786C96.0749 90.8134 96.0755 90.8411 96.077 90.8689C96.0818 90.9621 96.0952 91.0577 96.1159 91.1537C96.1305 91.2225 96.1491 91.2917 96.1709 91.3608C93.9977 91.6855 91.8244 92.0103 89.651 92.3353C89.5424 91.8139 89.2157 91.2716 88.8311 91.0158C88.6912 90.9231 88.5594 90.8782 88.4424 90.8758C86.9278 86.6869 85.4136 82.4977 83.8991 78.3088C83.9732 78.2273 84.0173 78.0959 84.0177 77.9223C84.019 77.4847 83.7437 76.9451 83.4014 76.7181Z" fill="#82BDD0"/>
<path d="M120.199 105.57L119.801 105.419L120.122 106.839C120.704 109.406 121.286 111.973 121.867 114.541C121.706 114.577 121.6 114.744 121.6 115.014C121.6 115.024 121.6 115.035 121.6 115.046C121.604 115.17 121.629 115.301 121.67 115.43C121.773 115.752 121.98 116.062 122.218 116.22C122.558 116.446 122.837 116.274 122.838 115.836C122.839 115.414 122.582 114.899 122.258 114.66C121.572 111.63 120.885 108.6 120.199 105.57ZM88.3588 76.0372L88.7549 78.4704C89.3534 82.15 89.9522 85.8297 90.5509 89.5089C90.6266 89.5314 90.7065 89.5697 90.7888 89.6246C90.9894 89.758 91.1737 89.9677 91.3195 90.2115C95.4463 87.4859 99.5737 84.7602 103.7 82.0339C103.676 81.9573 103.657 81.8808 103.642 81.8042C103.624 81.7095 103.613 81.6153 103.61 81.5241C103.61 81.508 103.61 81.4918 103.61 81.4759C103.611 80.8664 103.998 80.629 104.474 80.9452C104.918 81.2403 105.282 81.9122 105.328 82.496C109.145 86.1626 112.963 89.8292 116.78 93.4958C116.93 93.2637 117.21 93.2266 117.528 93.4379C117.964 93.7272 118.323 94.3788 118.379 94.9544C118.385 95.0078 118.387 95.0609 118.387 95.1129C118.387 95.1476 118.385 95.1808 118.383 95.2131C118.357 95.5471 118.203 95.748 117.981 95.779C118.681 98.8682 119.381 101.957 120.081 105.046L119.681 104.89C118.986 101.823 118.291 98.7553 117.597 95.6881C117.573 95.6748 117.548 95.66 117.523 95.6436C117.076 95.3465 116.707 94.662 116.668 94.0739C116.666 94.0385 116.664 94.0033 116.664 93.9686C116.664 93.9525 116.665 93.937 116.666 93.9213L116.309 93.5792L105.274 82.979C105.148 83.3089 104.835 83.3938 104.468 83.1507C104.279 83.0252 104.105 82.8319 103.964 82.6058C99.8329 85.3341 95.7024 88.0622 91.5716 90.7903C91.621 90.9626 91.6482 91.1359 91.6478 91.2991C91.6474 91.3828 91.64 91.4589 91.6264 91.5279C91.6103 91.6082 91.5854 91.6786 91.5528 91.7383C91.4093 92.0005 91.1187 92.052 90.7837 91.8299C90.4486 91.6073 90.1591 91.1702 90.0176 90.7184C89.9856 90.6159 89.9609 90.5131 89.9455 90.4115C89.9319 90.3241 89.9248 90.2381 89.9252 90.1549C89.9258 89.8474 90.0246 89.635 90.1835 89.5401C89.5501 85.6458 88.9168 81.7522 88.2831 77.8584L87.9748 75.9637C87.9427 75.9469 87.9097 75.9279 87.8766 75.9058C87.4398 75.6157 87.0806 74.9589 87.0254 74.3839C87.0206 74.3316 87.0178 74.281 87.0181 74.2308C87.0181 74.1943 87.0197 74.1591 87.0225 74.1255C87.0294 74.0405 87.045 73.9644 87.0674 73.8976L83.6308 68.8701C83.5195 68.9321 83.3689 68.9157 83.203 68.8055C82.8609 68.5779 82.5856 68.0414 82.5869 67.6033C82.5879 67.1653 82.8651 66.9954 83.207 67.2226C83.5377 67.442 83.8053 67.9502 83.8224 68.379C83.8229 68.3945 83.8233 68.4095 83.8233 68.4246C83.8229 68.4615 83.8208 68.4958 83.8172 68.529L83.9496 68.7228L87.2904 73.608C87.4452 73.5241 87.6534 73.5478 87.8825 73.7005C88.33 73.9974 88.6959 74.6772 88.7369 75.2644C88.7398 75.3016 88.7409 75.3387 88.7409 75.3755C88.7406 75.4252 88.7379 75.473 88.7327 75.5179C88.698 75.8137 88.558 75.9969 88.3588 76.0372Z" fill="#4274AD"/>
<path d="M91.8926 55.8025L91.8742 55.8691L91.2211 58.197L91.1706 58.3779L90.5441 60.612L90.4933 60.7925L90.0194 62.4828L91.6776 70.5089L88.3828 68.32L93.724 71.8678L95.3292 72.9341L94.3474 68.0405L93.952 66.0682L93.9029 65.8242L93.2627 62.6319L93.2131 62.385L92.5997 59.3268L92.5502 59.0799L91.911 55.8941L91.8926 55.8025Z" fill="#4274AD"/>
<path fill-rule="evenodd" clip-rule="evenodd" d="M87.5796 50.6726L87.0584 52.4589L87.0068 52.6361L86.3319 54.9494L86.2796 55.1284L85.6314 57.3485L85.5791 57.5279L84.9028 59.8456L84.8511 60.0226L84.1768 62.3334L84.1252 62.5107L83.452 64.8173L83.3965 65.0076L88.3833 68.3199L91.6781 70.5089L90.0199 62.4828L89.5396 60.1589L89.4886 59.9107L88.8538 56.8383L88.8024 56.5903L88.1411 53.3894L88.0905 53.1445L87.5796 50.6726Z" fill="#82BDD0"/>
<path d="M96.61 54.1577L96.3645 55.665L96.3334 55.8555L95.9269 58.35L95.8959 58.5405L95.4897 61.0325L95.4585 61.2256L95.0687 63.6174L95.0374 63.8106L94.6304 66.3073L94.5995 66.498L94.348 68.0407L95.3298 72.9343L93.7246 71.8679L99.3955 75.6349L99.3631 75.386L98.9723 72.3728L98.9424 72.1413L98.5507 69.1225L98.521 68.8911L98.1283 65.8635L98.0978 65.6294L97.7217 62.7287L97.6913 62.4947L97.2991 59.4725L97.2692 59.2413L96.8769 56.2166L96.8468 55.9856L96.61 54.1577Z" fill="#705C9A"/>
<path fill-rule="evenodd" clip-rule="evenodd" d="M97.5495 47.4856L97.5537 45.7391L90.8836 41.3082L90.879 43.0548L97.5495 47.4856ZM97.6016 26.9449L83.1976 17.3772L83.193 19.1237L97.5972 28.6911L97.6016 26.9449ZM90.271 24.8847L97.5944 29.7491L97.59 31.4956L90.2664 26.631L90.271 24.8847ZM97.5685 39.8349L83.1647 30.267L83.1832 22.9834L97.5873 32.5506L97.5685 39.8349ZM97.5595 43.5099L83.1553 33.942L83.1614 31.6442L97.5652 41.2121L97.5595 43.5099Z" fill="#E1E8EE"/>
<path fill-rule="evenodd" clip-rule="evenodd" d="M162.209 127.208L162.21 126.91L128.253 104.354L128.252 104.652L162.209 127.208ZM162.262 106.498L128.305 83.942L128.305 83.644L162.263 106.2L162.262 106.498ZM162.252 110.672L128.294 88.1162L128.295 87.8179L162.252 110.374L162.252 110.672ZM162.241 114.846L128.283 92.2896L128.284 91.9916L162.242 114.548L162.241 114.846ZM162.231 118.864L128.273 96.3073L128.274 96.0091L162.232 118.565L162.231 118.864ZM162.22 123.042L128.263 100.486L128.263 100.188L162.221 122.744L162.22 123.042Z" fill="#E1E8EE"/>
<path d="M111.902 38.2114L111.892 42.1897C115.392 44.8344 118.146 50.4083 118.134 54.9725C118.131 56.3495 117.876 57.486 117.424 58.3428L120.097 62.138C120.819 60.865 121.23 59.1453 121.235 57.0322C121.253 50.276 117.116 42.003 111.902 38.2114Z" fill="#705C9A"/>
<path fill-rule="evenodd" clip-rule="evenodd" d="M103.712 51.6697L101.837 51.7823C103.811 57.158 107.328 62.1978 111.344 64.8655C115.294 67.4894 118.776 67.1854 120.786 64.5675L118.935 61.94L119.6 62.8834C117.829 65.1405 114.794 65.3916 111.349 63.1031C107.848 60.7776 104.779 56.3951 103.041 51.7097L103.712 51.6697Z" fill="#99CBEF"/>
<path fill-rule="evenodd" clip-rule="evenodd" d="M105.749 51.5483L103.712 51.6698L103.041 51.7098C104.779 56.3953 107.848 60.7778 111.349 63.1032C114.794 65.3917 117.829 65.1404 119.6 62.8835L118.935 61.9406L116.926 59.0888C115.703 60.5357 113.665 60.6645 111.359 59.1329C109.014 57.5747 106.953 54.6731 105.749 51.5483Z" fill="#82BDD0"/>
<path d="M110.925 37.5628C105.711 34.427 101.547 37.187 101.529 43.9429C101.524 45.9823 101.897 48.1562 102.562 50.3051L103.235 50.2655L105.273 50.1449C104.857 48.7432 104.626 47.3288 104.629 46.0016C104.641 41.4376 107.413 39.535 110.915 41.5414L110.923 38.5524L110.925 37.5628Z" fill="#4274AD"/>
<path fill-rule="evenodd" clip-rule="evenodd" d="M110.929 35.7981C104.953 32.1556 100.17 35.295 100.15 43.0273C100.145 45.3804 100.58 47.8948 101.358 50.3777L103.235 50.266L102.561 50.3049C101.896 48.156 101.524 45.9821 101.529 43.9428C101.546 37.1868 105.71 34.4271 110.925 37.5627L110.922 38.5521L110.929 35.7981Z" fill="#82BDD0"/>
<path d="M111.906 36.4468L111.901 38.2116C117.116 42.0032 121.252 50.2762 121.235 57.0326C121.23 59.1457 120.819 60.8653 120.097 62.1379L121.284 63.8222C122.126 62.3673 122.605 60.3846 122.611 57.9472C122.631 50.2145 117.881 40.7432 111.906 36.4468Z" fill="#705C9A"/>
<path fill-rule="evenodd" clip-rule="evenodd" d="M126.108 58.819L126.081 69.4955L130.316 72.3086L130.343 61.6318L126.108 58.819ZM138.817 65.3499L138.785 77.9342L143.02 80.747L143.051 68.1628L138.817 65.3499ZM132.474 57.1384L132.432 73.7143L136.666 76.5271L136.709 59.9513L132.474 57.1384Z" fill="#82BDD0"/>
<path d="M126.134 48.9124L126.123 53.1624L130.358 55.9754L130.368 51.725L126.134 48.9124ZM138.838 57.3511L138.83 60.4062L143.065 63.2192L143.073 60.1641L138.838 57.3511ZM132.485 53.1314L132.481 54.7168L136.716 57.5296L136.72 55.9442L132.485 53.1314Z" fill="#705C9A"/>
<path d="M127.459 77.1128L127.449 81.0177L163.129 104.718L163.14 100.813L127.459 77.1128Z" fill="#705C9A"/>
<path d="M143.065 63.219L138.83 60.406L138.817 65.3498L143.052 68.1626L143.065 63.219ZM136.715 57.5294L132.481 54.7166L132.474 57.1383L136.709 59.9511L136.715 57.5294ZM130.358 55.9756L126.123 53.1626L126.108 58.819L130.343 61.6318L130.358 55.9756Z" fill="#4274AD"/>
<path fill-rule="evenodd" clip-rule="evenodd" d="M165.042 95.333L165.046 93.5865L155.511 87.2533L155.507 88.9998L165.042 95.333ZM165.094 74.7922L144.504 61.1155L144.499 62.8617L165.09 76.5387L165.094 74.7922ZM154.619 70.6431L165.087 77.5964L165.082 79.3429L154.614 72.3896L154.619 70.6431ZM165.061 87.6823L144.471 74.0053L144.489 66.7212L165.079 80.3982L165.061 87.6823ZM165.052 91.3571L144.462 77.6803L144.468 75.3825L165.058 89.0593L165.052 91.3571Z" fill="#E1E8EE"/>
<path fill-rule="evenodd" clip-rule="evenodd" d="M125.651 45.5767L125.646 47.4156L165.098 73.6209L165.102 71.782L125.651 45.5767Z" fill="#82BDD0"/>
<path fill-rule="evenodd" clip-rule="evenodd" d="M122.53 89.972L122.534 88.4206L112.472 81.7368L112.468 83.2881L122.53 89.972ZM111.526 66.872L111.522 68.4257L122.567 75.7625L122.571 74.2085L111.526 66.872ZM122.564 76.7016L122.548 83.1731L100.82 68.7408L100.837 62.2695L122.564 76.7016ZM122.539 86.439L100.812 72.0067L100.817 69.9649L122.544 84.3972L122.539 86.439Z" fill="#E1E8EE"/>
<path fill-rule="evenodd" clip-rule="evenodd" d="M147.971 127.224L146.708 128.002L147.963 130.45L160.325 138.662L160.333 135.435L147.971 127.224Z" fill="#82BDD0"/>
<path d="M150.252 124.656L148.987 125.431L150.244 127.883L160.335 134.586L160.343 131.36L150.252 124.656Z" fill="#4274AD"/>
<path d="M152.534 122.086L151.269 122.863L152.526 125.315L160.346 130.51L160.354 127.281L152.534 122.086Z" fill="#705C9A"/>
<path fill-rule="evenodd" clip-rule="evenodd" d="M159.92 111.682L159.918 112.735L159.229 112.278L159.229 112.547L159.228 112.845L159.218 116.544L159.907 117.001V117.022L159.906 117.32L159.904 118.054L160.667 118.56L160.669 117.826L160.669 117.528L160.669 117.507L161.358 117.964L161.367 114.266L161.368 113.967L161.369 113.698L160.68 113.241L160.683 112.188L159.92 111.682ZM135.334 95.4041L135.332 96.4566L134.644 95.9995L134.643 96.2156L134.642 96.5141L134.633 100.234L134.633 100.265L135.321 100.722L135.32 100.989L135.318 101.775L136.083 102.283L136.084 101.497L136.085 101.23L136.771 101.686V101.654L136.781 97.9347L136.782 97.6367L136.782 97.4201L136.096 96.9645L136.099 95.9117L135.334 95.4041ZM132.915 97.451L132.912 98.5013L132.224 98.0442L132.222 98.6322L132.221 98.9307L132.213 102.313L132.901 102.77L132.9 103.269L132.899 103.567L132.898 103.82L133.663 104.328L133.663 104.074L133.664 103.776L133.665 103.278L134.354 103.735L134.362 100.353L134.363 100.055L134.364 99.4661L133.676 99.009L133.679 97.9588L132.915 97.451ZM130.476 95.1364L129.788 94.6794L129.782 97.0114L129.781 97.3097L129.777 98.9453L130.465 99.4026L130.463 100.455L131.225 100.962L131.228 99.909L131.916 100.366L131.92 98.7305L131.921 98.4322L131.927 96.1002L131.239 95.6431L131.241 94.5906L130.479 94.084L130.476 95.1364ZM137.635 92.6429L137.632 93.6931L136.944 93.236L136.943 93.5632L136.942 93.861L136.933 97.5044L137.621 97.9614L137.621 98.1935L137.62 98.4915L137.619 99.0114L138.383 99.5192L138.384 98.9997L138.385 98.7015L138.386 98.4692L139.072 98.9252L139.081 95.2818L139.082 94.9838L139.083 94.6566L138.397 94.2008L138.399 93.1508L137.635 92.6429ZM140.057 89.7517L140.055 90.8017L139.366 90.3444L139.365 90.9906L139.364 91.2889L139.356 94.6103L140.044 95.0679L140.042 95.6218L140.042 95.9198L140.041 96.1203L140.803 96.6269L140.804 96.4265L140.805 96.128L140.806 95.5741L141.494 96.0311L141.503 92.7097L141.503 92.4114L141.505 91.7652L140.817 91.3081L140.82 90.2579L140.057 89.7517ZM142.637 95.49L142.635 96.5402L141.946 96.0831L141.944 96.8849L141.943 97.1833L141.935 100.352L142.624 100.809L142.622 101.516L142.621 101.814L142.62 101.859L143.385 102.367V102.322L143.386 102.024L143.388 101.317L144.074 101.772L144.082 98.6041L144.083 98.3057L144.085 97.5039L143.399 97.0482L143.401 95.9979L142.637 95.49ZM145.157 101.453L145.154 102.503L144.468 102.047L144.466 102.741L144.465 103.039L144.457 106.316L145.143 106.771L145.142 107.214L145.141 107.513L145.141 107.821L145.905 108.329L145.906 108.02L145.907 107.722L145.908 107.279L146.596 107.737L146.604 104.46L146.605 104.162L146.607 103.468L145.919 103.011L145.921 101.961L145.157 101.453ZM147.498 107.138L147.495 108.188L146.807 107.731L146.805 108.319L146.805 108.617L146.796 111.999L147.484 112.457L147.483 112.955L147.482 113.253L147.482 113.507L148.244 114.013L148.245 113.76L148.245 113.462L148.246 112.963L148.935 113.42L148.943 110.038L148.944 109.74L148.945 109.152L148.257 108.695L148.26 107.644L147.498 107.138ZM150.142 111.067L150.139 112.117L149.453 111.661L149.446 114.26L149.446 114.558L149.442 115.93L150.128 116.386L150.126 117.436L150.89 117.944L150.893 116.893L151.581 117.351L151.585 115.979L151.585 115.681L151.592 113.082L150.904 112.625L150.906 111.575L150.142 111.067ZM152.669 114.175L152.666 115.225L151.98 114.769L151.977 115.941L151.976 116.239L151.969 119.038L152.656 119.494L152.653 120.544L153.417 121.051L153.42 120.001L154.108 120.459L154.115 117.659L154.116 117.362L154.119 116.19L153.431 115.733L153.433 114.683L152.669 114.175ZM155.085 113.819L155.084 114.024L154.396 113.567L154.396 113.66L154.386 117.54L154.385 117.836L155.073 118.293L155.07 119.343L155.835 119.851L155.838 118.803L156.526 119.258L156.527 118.963L156.537 115.082L156.537 114.99L155.849 114.533L155.849 114.327L155.851 113.483L155.087 112.975L155.085 113.819ZM157.505 111.88L157.502 112.93L156.814 112.473L156.807 114.963L156.807 115.261L156.803 116.742L157.492 117.199L157.489 118.249L158.253 118.757L158.256 117.706L158.942 118.163L158.946 116.682L158.947 116.384L158.953 113.894L158.267 113.438L158.27 112.388L157.505 111.88Z" fill="#82BDD0"/>
<path d="M44.1836 36.5994C43.6727 38.4365 44.0677 42.0155 44.4533 45.1429C45.6663 54.9852 44.5985 57.1091 42.0332 67.3463C42.0332 67.3463 53.9897 54.5029 54.1784 54.3089C54.3673 54.1137 53.9374 48.7874 53.9374 48.7874L48.5637 42.7067L44.1836 36.5994Z" fill="url(#paint0_linear)"/>
<path d="M98.1519 50.9831C97.9519 50.6999 97.3609 50.6183 96.5185 50.8946L93.1768 52.6599C92.3168 53.0707 92.5484 53.0554 91.6546 52.7773C91.6174 52.7658 91.5848 52.7563 91.5482 52.745C91.7519 52.7052 92.0291 52.6652 92.5111 52.5623C92.5766 52.5459 92.6647 52.5167 92.7653 52.4773C93.2639 52.3278 94.4517 51.7052 94.2894 50.8953C94.2867 50.8807 94.2846 50.8658 94.2808 50.851C94.272 50.8161 94.2586 50.7807 94.2442 50.7453C94.2371 50.7271 94.2341 50.7092 94.2253 50.6908C94.2241 50.6924 94.2228 50.6935 94.2216 50.6953C94.1783 50.6039 94.1237 50.5114 94.0417 50.4165C93.462 50.709 93.1201 50.9331 92.7521 51.08C91.9086 51.4152 90.2124 51.0815 89.1185 51.197C88.8837 51.2214 87.694 51.4439 86.4053 52.6636C86.2178 52.8112 86.0281 52.9811 85.8256 53.1793C85.7157 53.2869 85.6048 53.405 85.4936 53.5302C85.3157 53.5061 85.1475 53.5276 85.0032 53.6125C84.9718 53.6318 84.8988 53.7057 84.8674 53.73C84.7354 53.9935 84.6779 54.2798 84.6682 54.5731C84.186 55.2309 83.713 55.9349 83.2783 56.5132L83.8404 58.3079C83.7571 58.3747 83.6856 58.4364 83.5977 58.5048L84.2678 59.6597C84.8745 59.1882 85.327 58.7944 85.7122 58.4594C86.032 58.1811 86.2998 57.9497 86.5582 57.7654C86.8149 57.8687 87.0507 57.8705 87.2268 57.7249C87.349 57.6236 87.4277 57.4831 87.4875 57.328C88.3325 57.1417 89.5003 57.4061 92.0078 58.2265L92.2233 58.2966L96.5913 55.5068C97.5557 55.2183 98.1126 54.7703 98.1609 54.3734C98.1649 54.3623 98.1682 54.3563 98.1726 54.3437C98.5003 53.4077 98.3747 51.2997 98.1519 50.9831Z" fill="#EDCECE"/>
<path d="M86.8193 57.6851C86.7806 57.6736 86.7435 57.6584 86.7057 57.6442C86.6214 57.613 86.5392 57.5765 86.4595 57.5334C86.4224 57.5132 86.385 57.4936 86.3488 57.471C86.262 57.417 86.1783 57.3562 86.0979 57.2896C86.0766 57.2721 86.0538 57.2575 86.0329 57.2391C85.9352 57.1531 85.8431 57.0577 85.7553 56.9562C85.5894 56.763 85.4446 56.5447 85.3195 56.3126C85.322 56.3108 85.3247 56.309 85.3272 56.3073C84.8207 55.3717 84.7795 54.3411 84.9299 53.8024C84.9532 53.7325 84.9781 53.6637 85.0101 53.6015C85.0082 53.6031 85.0063 53.6048 85.0042 53.6064C85.0048 53.6051 85.0053 53.6028 85.0059 53.6015C81.7182 56.2663 77.1412 59.8088 73.9289 63.0484C72.7854 64.1677 71.8471 65.2008 71.2373 66.0785L71.2285 66.0469C69.7414 63.1181 66.9887 60.6909 65.9889 58.4188C64.8751 55.8871 64.1655 53.5542 63.1092 51.9918C62.481 51.0639 61.7605 50.0683 60.7191 49.913C60.3488 49.7743 59.9494 49.7358 59.5159 49.8179C59.0509 49.9066 55.3341 52.4993 54.7686 52.615C60.158 64.7807 65.4779 72.6515 68.6048 74.5276C68.7576 74.6192 68.9178 74.7148 69.0814 74.8104C69.1293 74.8385 69.176 74.865 69.2249 74.8929C69.3772 74.9805 69.5322 75.0654 69.6898 75.1473C69.722 75.1641 69.7532 75.1818 69.7856 75.1982C69.964 75.2882 70.1438 75.3694 70.3243 75.4418C70.3707 75.4604 70.4161 75.4752 70.4622 75.4922C70.6094 75.5462 70.7551 75.59 70.9005 75.6247C70.932 75.6323 70.9643 75.6471 70.9956 75.6535C71.0442 75.6663 71.0938 75.6774 71.1427 75.6854C71.7004 75.7778 72.2511 75.6825 72.9065 75.1796C78.9235 70.5588 82.9917 64.7453 87.1961 57.7577C87.0661 57.7486 86.9412 57.7212 86.8193 57.6851Z" fill="#EDCECE"/>
<path d="M56.305 168.444C54.8994 169.852 51.359 171.375 53.7735 174.976C56.1881 178.577 56.8663 176.079 61.2486 178.995C65.6308 181.91 65.2747 183.013 68.5274 183.178C71.78 183.344 73.1178 181.418 72.1594 180.132C71.2007 178.846 64.3147 174.333 62.8542 171.057C61.3936 167.781 56.305 168.444 56.305 168.444Z" fill="#4274AD"/>
<path d="M56.8955 167.948C55.5687 169.279 52.2196 170.71 54.5193 174.141C56.8189 177.573 57.453 175.203 61.6143 177.992C65.7756 180.781 65.4419 181.827 68.5239 181.998C71.6059 182.17 72.8668 180.347 71.9543 179.121C71.0419 177.895 64.5032 173.578 63.1085 170.459C61.7141 167.341 56.8955 167.948 56.8955 167.948Z" fill="#E8E8E8"/>
<path d="M47.1613 178.429C45.5666 179.558 44.4371 180.302 45.6055 184.287C46.7739 188.273 47.1641 196.5 52.4057 196.974C57.6473 197.449 56.7385 190.737 55.3772 187.736C54.0159 184.734 55.013 182.224 51.3668 176.684C47.7206 171.143 45.5664 179.557 45.5664 179.557" fill="#4274AD"/>
<path d="M47.3699 177.505C45.8456 178.606 44.7653 179.331 45.9337 183.317C47.1021 187.302 47.5663 195.5 52.6214 196.048C57.6766 196.595 56.7293 189.898 55.3856 186.89C54.0419 183.882 54.9757 181.396 51.4034 175.827C47.8312 170.258 45.8454 178.606 45.8454 178.606" fill="#E8E8E8"/>
<path fill-rule="evenodd" clip-rule="evenodd" d="M54.587 142.689L51.3876 144.013C48.2799 155.206 49.2956 165.348 49.9996 179.768C50.7567 179.691 51.7948 179.856 52.3538 179.21C52.3705 172.915 52.2556 167.368 52.4573 161.648C52.5617 158.693 52.8402 155.691 53.0778 152.516C53.477 147.193 52.8157 148.416 54.587 142.689Z" fill="#333E4B"/>
<path fill-rule="evenodd" clip-rule="evenodd" d="M66.9259 98.2208C66.9529 97.2586 66.9393 96.2951 66.8923 95.3874C66.9048 94.9856 66.8215 94.1865 66.7935 93.9119C66.7722 93.6916 66.7318 93.4745 66.7031 93.2557C66.6883 93.138 66.677 93.0068 66.6611 92.8942L66.6536 92.8962C66.623 92.6896 66.604 92.481 66.568 92.2752C66.0764 89.448 65.1931 87.4157 64.8073 85.1885C59.9722 88.865 55.9743 91.0106 52.2739 91.2754C52.0739 91.2896 51.8761 91.2911 51.6778 91.2942C51.5663 91.296 51.4542 91.3042 51.3431 91.3024C51.1255 91.2991 50.9094 91.2818 50.6933 91.2648C50.6013 91.2575 50.5084 91.2568 50.4167 91.2471C50.1828 91.2223 49.9502 91.1827 49.718 91.1416C49.645 91.1287 49.5715 91.1223 49.4987 91.1077C49.1939 91.0469 48.8902 90.9723 48.5874 90.8827C48.5498 91.2031 48.4977 91.5029 48.4264 91.7681C48.291 92.2728 48.1153 92.7413 47.9241 93.1964C46.7027 95.792 44.5695 97.9471 43.3998 103.125C42.5217 107.013 43.2536 113.031 44.5033 119.777C44.5059 119.792 44.5092 119.806 44.5117 119.821C44.5211 119.871 44.5299 119.921 44.5391 119.971C44.5653 120.113 44.5929 120.256 44.6207 120.398C44.6376 120.485 44.6577 120.573 44.6747 120.66C44.8217 121.407 44.9763 122.155 45.1372 122.901C45.1837 123.118 45.2301 123.331 45.2772 123.547C45.3994 124.107 45.5224 124.664 45.6444 125.217C45.8638 126.208 46.0787 127.188 46.2747 128.135C46.2831 128.176 46.2906 128.216 46.299 128.257C46.4634 129.056 46.6151 129.836 46.7423 130.586C47.1916 133.235 47.3054 135.216 47.322 136.794C47.363 140.548 45.2889 143.828 44.674 147.448C43.6374 153.547 44.9828 167.281 45.7713 176.039C45.7307 176.176 45.7134 176.319 45.7063 176.464C45.7048 176.497 45.7029 176.53 45.7029 176.564C45.7031 176.706 45.7148 176.851 45.7437 176.998C45.7481 177.021 45.7559 177.044 45.7609 177.067C45.7906 177.198 45.8316 177.331 45.8822 177.464C45.8948 177.497 45.9061 177.53 45.9199 177.563C45.9812 177.71 46.054 177.856 46.1379 178C46.1569 178.033 46.1784 178.065 46.1987 178.098C46.2776 178.226 46.364 178.352 46.4588 178.476C46.4784 178.501 46.4954 178.527 46.5155 178.552C46.6261 178.691 46.7473 178.825 46.8757 178.956C46.9075 178.989 46.94 179.021 46.9732 179.053C47.1025 179.178 47.237 179.301 47.3807 179.416C47.3891 179.423 47.3967 179.43 47.4054 179.437C47.5558 179.557 47.7155 179.667 47.8789 179.772C47.918 179.797 47.9571 179.822 47.9971 179.847C48.1625 179.948 48.332 180.042 48.5073 180.126C48.5303 180.136 48.5538 180.145 48.5768 180.156C48.7374 180.229 48.9015 180.294 49.0682 180.35C49.109 180.364 49.149 180.379 49.1902 180.392C49.218 180.4 49.245 180.412 49.2732 180.42C49.273 180.417 49.2728 180.415 49.2728 180.415C50.5033 180.771 51.8506 180.637 52.9694 179.597C52.8092 171.141 52.5297 162.398 53.4418 153.588C53.8184 149.949 53.3052 147.914 54.4799 145.051C54.8105 144.244 55.231 143.198 55.6732 141.861C55.5753 142.458 55.4843 143.117 55.4057 143.867C54.6981 150.627 56.2071 160.399 55.9785 167.848C55.9678 167.911 55.9676 167.991 55.9732 168.079C55.9749 168.104 55.9791 168.133 55.982 168.161C55.9895 168.229 56.001 168.301 56.0171 168.38C56.0239 168.414 56.031 168.448 56.0398 168.484C56.0613 168.574 56.0887 168.669 56.1203 168.769C56.1289 168.796 56.1351 168.82 56.1443 168.848C56.1881 168.977 56.24 169.113 56.3 169.254C56.3113 169.28 56.3251 169.308 56.3372 169.335C56.3879 169.45 56.4439 169.566 56.5052 169.685C56.5278 169.729 56.5517 169.773 56.5757 169.818C56.6354 169.928 56.7 170.038 56.7682 170.149C56.7943 170.191 56.8188 170.232 56.8458 170.275C57.0389 170.574 57.2634 170.871 57.519 171.152C57.5561 171.193 57.5958 171.232 57.6343 171.272C57.7293 171.371 57.828 171.467 57.9308 171.561C57.9778 171.603 58.0247 171.645 58.0732 171.686C58.186 171.782 58.3042 171.872 58.4261 171.959C58.4655 171.987 58.5029 172.017 58.5433 172.044C58.7046 172.152 58.8732 172.251 59.049 172.339C59.0937 172.362 59.1416 172.379 59.1872 172.4C59.3228 172.463 59.4617 172.52 59.6056 172.569C59.6728 172.592 59.7416 172.611 59.8105 172.631C59.8701 172.648 59.927 172.671 59.9879 172.685C59.9877 172.68 59.9874 172.676 59.987 172.671C60.7799 172.861 61.6797 172.846 62.696 172.481C63.4159 165.946 64.4329 143.887 65.9511 136.909C67.0716 133.046 66.7561 131.166 67.022 127.316C67.6439 118.344 67.5504 107.147 66.9259 98.2208ZM56.9404 133.202L56.7194 124.511C57.2966 127.882 57.6559 130.986 57.5044 133.222C57.3962 134.823 57.1565 135.936 56.8686 136.995C56.9764 136.008 57.027 134.768 56.9404 133.202Z" fill="#1C2228"/>
<path fill-rule="evenodd" clip-rule="evenodd" d="M61.8315 55.2943C58.6482 58.827 51.0185 63.2009 47.2363 65.3197C46.1449 65.9306 43.5212 73.0865 42.4968 71.4321C35.7079 60.4624 49.2781 53.7111 56.442 50.2408C59.3114 48.8509 60.9587 49.6191 61.8767 51.1326C62.5719 52.2781 63.1436 53.8383 61.8315 55.2943Z" fill="#416886"/>
<path fill-rule="evenodd" clip-rule="evenodd" d="M63.5564 62.7947C63.5564 62.7947 67.202 60.5843 67.202 59.7423C67.202 58.9002 64.5354 48.5029 60.7193 49.9124C56.9032 51.3219 59.3641 60.1633 63.5564 62.7947Z" fill="#4274AD"/>
<path fill-rule="evenodd" clip-rule="evenodd" d="M66.8645 64.5935C66.8626 63.784 66.6854 63.0926 66.3702 62.3752C66.1687 61.8154 65.917 61.2729 65.6099 60.755C64.4051 58.7232 63.7061 57.2634 63.1061 55.6444C62.763 53.3305 62.4168 51.8249 62.034 51.7449C61.9183 51.7057 61.8074 51.6743 61.6934 51.6382C61.6292 51.4145 61.563 51.1924 61.502 50.967L60.9258 51.4145C60.3109 51.2515 59.7237 51.1333 59.1658 51.0599L59.325 50.9769L61.0578 50.171C60.0716 49.3718 58.6036 49.1942 56.4419 50.2411C51.7936 52.4926 45.9448 55.9289 42.3409 59.5944C39.8905 62.0864 39.8676 65.2353 40.9254 68.2079C41.0624 68.7234 41.2258 69.2475 41.4001 69.7747C41.4411 69.8984 41.4823 70.0216 41.525 70.146C41.8875 71.1993 42.3084 72.263 42.7605 73.3159C42.8135 73.4398 42.8664 73.5626 42.9202 73.686C43.3819 74.7444 43.8645 75.7829 44.3388 76.7798C44.4043 76.9172 44.4672 77.0495 44.5319 77.1851C44.7478 77.6367 44.9612 78.0811 45.167 78.5099C45.3785 78.9504 45.5779 79.3696 45.7714 79.78C45.8246 79.8931 45.8764 80.0037 45.9279 80.1143C46.1277 80.5426 46.3185 80.9575 46.4867 81.3431C48.0176 84.8506 48.8348 88.7473 48.5643 91.0398C48.7976 91.226 49.0497 91.3825 49.3174 91.5134C49.4107 91.5592 49.5155 91.5856 49.6128 91.6252C49.7938 91.6986 49.9727 91.7761 50.1662 91.828C50.2894 91.861 50.4229 91.8752 50.5507 91.8997C50.7317 91.9347 50.9093 91.9752 51.0988 91.9937C51.24 92.0077 51.3892 92.0046 51.535 92.0097C51.7233 92.0165 51.9091 92.0283 52.1043 92.0212C52.1273 92.0203 52.1484 92.0236 52.1714 92.0225C52.1714 92.0203 52.1712 92.0179 52.1712 92.0179C52.5856 91.9975 53.0153 91.944 53.454 91.8683C53.4536 91.8718 53.4538 91.8754 53.4534 91.8789C53.616 91.8508 53.7835 91.8132 53.9501 91.7765C57.6733 90.9791 62.0172 88.3752 64.9112 85.7464C64.8747 85.5654 64.8396 85.3805 64.8065 85.1884C64.3461 82.5256 65.0107 80.1949 65.1496 77.4092C65.1982 76.8194 65.2126 76.2968 65.1653 75.8632C65.1565 75.6159 65.143 75.365 65.122 75.1088C65.094 74.7654 65.0633 74.4174 65.0348 74.0721C65.0239 73.1681 64.9386 72.2643 64.804 71.363C64.7848 71.1413 64.7649 70.921 64.7451 70.6999C65.6725 69.8329 66.4045 68.7369 66.716 67.1924C66.8951 66.305 66.9388 65.4356 66.8645 64.5935Z" fill="#4274AD"/>
<path fill-rule="evenodd" clip-rule="evenodd" d="M52.7643 95.1667L50.3477 94.1718L50.74 91.0351C52.0595 90.1176 53.0542 89.8107 53.6143 90.0731C53.6595 90.0946 53.854 90.1647 53.8938 90.1937C54.7435 90.816 53.8251 95.4753 52.7643 95.1667Z" fill="#A0ACB6"/>
<path d="M45.3873 71.0184C45.4111 70.881 45.4316 70.7465 45.4526 70.6113C45.4877 70.3863 45.5199 70.164 45.5479 69.9447C45.5649 69.8107 45.5812 69.6777 45.5956 69.5458C45.6195 69.3266 45.6392 69.1113 45.6563 68.8985C45.6659 68.7786 45.6766 68.6576 45.6841 68.5396C45.6986 68.3042 45.7072 68.0753 45.7132 67.8485C45.7153 67.7615 45.7205 67.6719 45.7216 67.5863C45.7254 67.2768 45.7222 66.9753 45.7101 66.6834C45.7082 66.6394 45.7038 66.5985 45.7015 66.5549C45.6892 66.3093 45.6724 66.0693 45.649 65.8372C45.64 65.7467 45.6275 65.6609 45.6168 65.5726C45.5954 65.3934 45.5716 65.2169 45.5433 65.0463C45.5275 64.9516 45.5099 64.8595 45.4921 64.7677C45.4618 64.6095 45.4287 64.4558 45.3925 64.306C45.3716 64.2193 45.3505 64.1332 45.3277 64.0494C45.2867 63.8992 45.2419 63.7553 45.1954 63.6146C45.1714 63.543 45.149 63.4693 45.1237 63.4C45.0645 63.2379 45 63.085 44.9327 62.937C44.9153 62.8987 44.9 62.8565 44.8821 62.8191C44.7944 62.6365 44.7005 62.4655 44.6009 62.3065C44.5779 62.2699 44.5525 62.2388 44.5289 62.2034C44.4507 62.0859 44.3703 61.973 44.2854 61.8699C44.2465 61.8226 44.2055 61.7808 44.1653 61.7365C44.1172 61.6837 44.0714 61.6253 44.0214 61.5768C44.0207 61.5808 44.0199 61.5852 44.0191 61.5892C43.789 61.3655 43.5392 61.1903 43.2716 61.0644C43.2724 61.0609 43.273 61.0571 43.2739 61.0536C43.1894 61.0129 43.1042 60.979 43.0162 60.9489C41.2835 60.3671 39.8913 63.0299 39.2254 65.1155C37.4902 70.5578 36.3318 78.8633 35.7262 84.4806C35.6304 85.3662 35.3078 87.0255 35.359 87.7379C35.367 87.8474 35.3883 87.958 35.4166 88.0682C35.4207 88.0839 35.4239 88.0996 35.4283 88.1153C35.458 88.2206 35.4973 88.3253 35.5438 88.429C35.5521 88.4474 35.5605 88.4655 35.5693 88.4837C35.6189 88.5877 35.6755 88.6899 35.7402 88.7901C35.7484 88.8029 35.7574 88.8151 35.7661 88.8279C35.8358 88.9321 35.9117 89.0341 35.9958 89.1315L35.9961 89.1319C36.0806 89.2295 36.1733 89.3219 36.2703 89.4104C36.2823 89.4215 36.2942 89.433 36.3065 89.4439C36.4011 89.5277 36.5013 89.6062 36.6057 89.6792C36.6214 89.6901 36.6371 89.7007 36.653 89.7115C36.7601 89.7837 36.8709 89.8505 36.986 89.9091C36.9959 89.9142 37.0065 89.9186 37.0166 89.9237C37.1373 89.9837 37.2611 90.0366 37.3879 90.0793C37.3879 90.0793 37.3892 90.0799 37.39 90.0801C37.5153 90.1222 37.6435 90.1527 37.773 90.1755C37.7887 90.1784 37.8042 90.1815 37.8199 90.1841C37.9458 90.2038 38.0726 90.2133 38.2004 90.2127C38.2176 90.2127 38.2346 90.212 38.2519 90.2113C38.3822 90.2078 38.5126 90.1945 38.6429 90.1675C38.6515 90.1658 38.6597 90.1629 38.6684 90.1611C38.8017 90.1317 38.9345 90.0899 39.0657 90.0332C39.0695 90.0317 39.0731 90.0306 39.077 90.029C39.2057 89.9726 39.3322 89.8994 39.4567 89.8144C39.473 89.8034 39.489 89.793 39.5053 89.7815C39.6258 89.695 39.7436 89.5941 39.8584 89.4784C39.8745 89.4622 39.8898 89.4452 39.9057 89.4286C40.0222 89.3058 40.1354 89.17 40.2436 89.0138C40.2498 89.0051 40.2551 88.9954 40.2611 88.9868C40.3695 88.8277 40.4731 88.6509 40.5712 88.4558C40.5756 88.4469 40.5808 88.4408 40.5852 88.4319C40.5848 88.4317 40.5845 88.4317 40.5845 88.4317C40.8354 87.9255 41.05 87.2985 41.2097 86.5264C41.3442 85.8773 41.4975 85.2394 41.6684 84.5896C41.6827 84.5346 41.6979 84.479 41.7126 84.4237C41.7526 84.2731 41.7935 84.1219 41.8356 83.9697C41.8582 83.8874 41.8818 83.8042 41.9049 83.7213C41.9415 83.5905 41.9787 83.4591 42.0166 83.3264C42.0423 83.2372 42.0682 83.1474 42.0942 83.0571C42.1314 82.9286 42.1693 82.7989 42.208 82.668C42.2369 82.5691 42.2661 82.4704 42.2958 82.3702C42.3308 82.252 42.3668 82.1319 42.4026 82.0115C42.4387 81.8914 42.4741 81.7724 42.5109 81.65C42.5335 81.575 42.5569 81.4978 42.5799 81.4219C42.7659 80.8049 42.963 80.1558 43.1716 79.4591C43.1887 79.4018 43.2063 79.3421 43.2237 79.2843C43.2854 79.0779 43.3475 78.8689 43.4111 78.654C43.4419 78.5498 43.4731 78.4427 43.5044 78.3363C43.5574 78.1558 43.6109 77.9733 43.6651 77.7863C43.7003 77.6646 43.736 77.541 43.7718 77.4166C43.8239 77.2359 43.8764 77.0518 43.9297 76.8649C43.9678 76.7306 44.0061 76.5958 44.0446 76.4582C44.0984 76.2666 44.153 76.07 44.2078 75.8717C44.2463 75.733 44.2844 75.5958 44.3233 75.4536C44.3837 75.2332 44.4452 75.0051 44.5067 74.7761C44.541 74.6487 44.5747 74.525 44.6093 74.3947C44.7061 74.0308 44.8042 73.658 44.904 73.2713C45.0042 72.8832 45.0925 72.5029 45.1737 72.1277C45.2002 72.0049 45.2218 71.8859 45.2463 71.7646C45.2965 71.5122 45.3452 71.2631 45.3873 71.0184Z" fill="#EDCECE"/>
<path fill-rule="evenodd" clip-rule="evenodd" d="M44.508 60.4794C43.0324 59.9341 40.4979 59.3217 38.9485 64.1633C37.399 69.0049 36.6699 73.1099 36.6699 73.1099C36.6699 73.1099 42.2128 77.2777 44.0441 76.4569C45.8753 75.6361 49.0651 62.1635 44.508 60.4794Z" fill="#4274AD"/>
<path fill-rule="evenodd" clip-rule="evenodd" d="M44.7393 66.6055L46.0519 65.7524V96.6812L44.7393 97.5347V66.6055Z" fill="#1F1414"/>
<path fill-rule="evenodd" clip-rule="evenodd" d="M46.0518 65.7524L60.7627 75.4115V106.341L46.0518 96.6812V65.7524Z" fill="#182431"/>
<path fill-rule="evenodd" clip-rule="evenodd" d="M46.066 66.2549L60.2026 75.5031L60.1243 105.74L58.8589 106.567L46.066 95.8108L44.8271 67.0728L46.066 66.2549Z" fill="#E3E3E2"/>
<path d="M44.7393 66.6055L59.4502 76.265V107.194L44.7393 97.5347V66.6055Z" fill="#705C9A"/>
<path d="M61.7114 91.1811L61.7118 91.1806C61.7118 91.1802 61.711 91.18 61.711 91.18L61.7106 91.1775L61.71 91.1777C61.7163 91.0563 60.9937 91.051 60.7167 91.1556C60.3775 91.2844 59.6388 91.6738 58.9397 91.9724C58.987 91.8552 59.0075 91.7081 58.984 91.5156C58.4409 91.4231 58.1618 91.3346 57.738 91.176C57.1072 90.9397 57.0869 90.6881 56.5072 90.5087C55.6729 90.2508 54.5589 90.468 53.9872 90.6585C53.6792 90.5182 53.4127 90.3959 53.2213 90.3076L52.4258 90.3811C52.5319 90.4393 52.6562 90.5105 52.7756 90.5784C52.6572 90.5351 52.5491 90.4955 52.4666 90.4654L51.5512 92.6835L51.1143 94.6645C51.4031 94.5888 52.5746 94.9837 52.6529 95.022C54.0401 95.7173 56.3924 97.7136 57.4855 97.7366C58.8708 97.4583 60.0508 96.8594 61.0049 96.3428C61.5939 96.0229 61.7794 91.2333 61.7114 91.1811ZM57.9604 92.3056C57.9234 92.3131 57.8811 92.3266 57.8466 92.3315C57.746 92.2948 57.6229 92.2468 57.4884 92.193C57.637 92.2399 57.7991 92.2802 57.9604 92.3056Z" fill="#EDCECE"/>
<path d="M52.4684 94.0449C52.4646 94.0119 52.4605 93.9792 52.4575 93.9458C52.4397 93.7487 52.4335 93.5445 52.4379 93.3374C52.4389 93.3007 52.4404 93.2639 52.442 93.227C52.4504 93.0175 52.4684 92.8064 52.4981 92.5978C52.6663 91.4243 53.1632 90.3418 53.8966 90.1934C53.6694 90.0861 53.4586 89.9881 53.2376 89.8843L53.2381 89.8839C53.1569 89.8456 53.0816 89.8111 53.0012 89.7735C52.6508 89.6091 52.3 89.4451 51.9627 89.2892C51.733 89.1827 51.5081 89.0805 51.2833 88.9777C51.0188 88.8566 50.7508 88.7336 50.4922 88.6175C50.2236 88.4967 49.9596 88.3819 49.6958 88.2662C49.4824 88.1726 49.2653 88.0757 49.0542 87.9852C48.6998 87.8332 48.3489 87.6883 47.9983 87.5445C47.8807 87.4962 47.7617 87.4447 47.6445 87.3974C47.1809 87.2106 46.7176 87.031 46.2512 86.8571C46.0902 86.7971 45.9253 86.7409 45.7632 86.6823C45.4527 86.5699 45.1414 86.4573 44.8251 86.3498C44.6176 86.2792 44.4033 86.212 44.1927 86.1434C43.9165 86.0535 43.6399 85.9633 43.3565 85.8763C43.1169 85.8029 42.8682 85.7316 42.6224 85.6602C42.442 85.6078 42.2684 85.5531 42.0841 85.5018C42.0805 85.5018 42.0759 85.5038 42.0722 85.5038C41.882 85.4507 41.7012 85.3949 41.5063 85.3429C40.8738 85.6766 39.5692 87.0555 39.3864 87.0082C39.1004 86.9352 38.6424 86.7901 38.1364 86.6699C38.0684 86.231 38.186 85.7376 38.3349 84.9741C36.559 85.5651 34.7138 85.981 35.5266 88.6936C35.7339 89.3832 36.0713 90.0062 36.7791 90.623C37.4129 91.1779 38.3464 91.4212 39.3046 91.9327C43.0128 93.9115 47.0169 94.2553 52.7851 95.1752C52.7038 95.0281 52.6406 94.856 52.5883 94.6723C52.5824 94.6518 52.5751 94.6327 52.5696 94.6119C52.5226 94.4354 52.4904 94.2436 52.4684 94.0449Z" fill="#EDCECE"/>
<path d="M58.0438 53.9772C58.2153 52.2615 58.6243 50.6482 59.5687 48.5347L52.1356 45.1469L50.2515 44.198C51.2134 48.7396 50.5335 50.8874 49.1829 54.7863C49.0272 56.0805 50.0243 57.4153 51.7362 58.6033C54.4026 60.4533 58.7341 58.5237 58.2555 56.3783C57.9264 54.9035 57.9341 55.0865 58.0438 53.9772Z" fill="#EDCECE"/>
<path fill-rule="evenodd" clip-rule="evenodd" d="M59.6433 41.8313L56.082 40.4032V33.7116L57.7113 28.4844C62.5012 30.4209 62.1807 40.6906 59.6433 41.8313Z" fill="#332417"/>
<path d="M53.4219 28.0199C51.1397 27.4697 49.2254 29.1263 47.8593 31.1527C46.2953 33.4704 45.5495 37.0814 46.5633 39.9259C46.9907 41.1246 47.9504 42.0476 49.9384 42.9339C51.7727 47.3531 53.3811 49.3268 57.6983 50.2193C59.6696 50.6263 61.0246 50.3004 61.4955 49.7376C64.1037 46.6204 63.1315 33.7091 59.1213 30.0602C55.111 26.4113 53.4219 28.0199 53.4219 28.0199Z" fill="#EBCDCD"/>
<path fill-rule="evenodd" clip-rule="evenodd" d="M53.4219 28.0199C51.1397 27.4697 49.2254 29.1263 47.8593 31.1527C46.2953 33.4704 45.5495 37.0814 46.5633 39.9259C46.9907 41.1246 47.9504 42.0476 49.9384 42.9339C51.7727 47.3531 53.3811 49.3268 57.6983 50.2193C59.6696 50.6263 61.0246 50.3004 61.4955 49.7376C64.1037 46.6204 63.1315 33.7091 59.1213 30.0602C55.111 26.4113 53.4219 28.0199 53.4219 28.0199Z" fill="#EBCDCD"/>
<path d="M60.2361 30.8814C60.2146 30.8411 60.1882 30.8048 60.1658 30.7652C60.1671 30.7623 60.1689 30.7595 60.1702 30.7566C59.6752 29.6431 58.5938 28.7137 57.219 28.0809C56.1826 27.5811 55.0146 27.2946 53.816 27.2196C53.662 27.2081 53.507 27.2028 53.3516 27.1982C53.3399 27.198 53.3282 27.1971 53.3166 27.1971C52.774 27.1825 52.2259 27.205 51.6807 27.2792C49.5271 27.5725 47.5185 28.6154 46.4294 30.0701C44.7842 32.0097 44.0265 34.8057 43.9918 38.1307C43.9828 38.9816 44.0696 39.9188 44.2355 40.8858C44.6669 43.8203 45.7681 46.4803 47.1999 48.338C47.3223 48.5046 47.4476 48.6632 47.5756 48.8165C47.579 48.8205 47.5821 48.8245 47.5855 48.8283C48.2261 49.5938 48.9294 50.1953 49.6865 50.53C49.6867 50.5294 49.6869 50.5287 49.6869 50.5287C49.706 50.5376 49.7242 50.5519 49.7434 50.5612C49.8593 50.2853 50.1744 49.0506 50.4311 47.7929C50.5455 47.2878 50.6277 46.8404 50.6809 46.4205C50.7844 45.7504 50.8355 45.1904 50.78 44.9349L50.7602 44.6646C50.7489 44.2236 50.7194 43.7542 50.6771 43.2123C52.4221 41.3809 57.5957 38.7305 60.2361 30.8814Z" fill="url(#paint1_linear)"/>
<path fill-rule="evenodd" clip-rule="evenodd" d="M50.7355 43.1821C50.7519 41.996 50.2171 40.2272 49.083 39.9287C47.2964 39.4586 47.4927 41.7599 47.8872 43.123C48.1579 44.0597 48.8366 43.9057 49.1535 44.6325C49.5303 45.4991 50.1753 45.8458 50.6912 45.7664C51.7381 45.606 50.9255 43.8825 50.7355 43.1821Z" fill="#EBCDCD"/>
<path d="M56.5166 40.9652C56.8373 40.8934 57.014 40.3396 56.9114 39.7282C56.8088 39.1168 56.4656 38.6794 56.145 38.7511C55.8244 38.8229 55.6476 39.3767 55.7503 39.9881C55.8529 40.5995 56.196 41.037 56.5166 40.9652Z" fill="#5E4F44"/>
<path d="M61.4561 39.8595C61.7767 39.7877 61.9535 39.2339 61.8508 38.6225C61.7482 38.0111 61.4051 37.5736 61.0845 37.6454C60.7638 37.7172 60.5871 38.271 60.6897 38.8824C60.7923 39.4938 61.1355 39.9313 61.4561 39.8595Z" fill="#5E4F44"/>
<path d="M64.6441 59.5907C64.474 59.1727 64.0428 58.9933 63.6809 59.1898L61.1798 60.5479C60.8179 60.7444 60.6625 61.2424 60.8326 61.6603L61.9233 64.3391C62.0934 64.7568 62.5246 64.9364 62.8865 64.74L65.3876 63.3818C65.7495 63.1853 65.9049 62.6871 65.7348 62.2694L64.6441 59.5907ZM61.3997 61.2564C61.4474 61.0561 61.524 60.8723 61.6309 60.7143C61.9053 60.3095 62.3633 60.3599 62.3505 60.892C62.3355 61.5072 62.3328 61.9661 62.321 62.5612C62.3087 63.1856 62.3853 63.4271 62.3853 63.4271C61.6286 62.9964 61.1995 62.101 61.3997 61.2564ZM62.5031 63.2057C62.5127 62.7807 62.5673 60.9252 62.6127 60.6152C62.7606 59.6039 64.6763 60.1453 64.3815 61.1128C64.1185 61.9754 63.435 63.2426 63.2984 63.5035C63.1616 63.7641 62.4945 63.5953 62.5031 63.2057ZM65.1627 61.8318C65.1851 62.0305 65.1698 62.2342 65.1223 62.4342C64.9221 63.2789 64.1576 63.7966 63.3166 63.7216C63.3166 63.7216 63.489 63.5588 63.7541 63.0143C64.0068 62.4957 64.207 62.0991 64.4656 61.561C64.689 61.096 65.1055 61.3218 65.1627 61.8318Z" fill="#E8E8E8"/>
<path opacity="0.1" d="M85.5373 145.408L86.0344 145.149C87.8187 144.221 89.8812 144.345 91.5722 145.482L142.978 180.05C143.76 180.576 143.701 181.902 142.876 182.331L142.378 182.59C140.594 183.518 138.532 183.394 136.841 182.257L85.4346 147.689C84.6526 147.163 84.7124 145.837 85.5373 145.408Z" fill="#778DAC"/>
<path opacity="0.1" d="M85.5373 145.408L86.0344 145.149C87.8187 144.221 89.8812 144.345 91.5722 145.482L142.978 180.05C143.76 180.576 143.701 181.902 142.876 182.331L142.378 182.59C140.594 183.518 138.532 183.394 136.841 182.257L85.4346 147.689C84.6526 147.163 84.7124 145.837 85.5373 145.408Z" fill="#778DAC"/>
<defs>
<linearGradient id="paint0_linear" x1="48.1299" y1="67.3462" x2="48.1299" y2="36.5993" gradientUnits="userSpaceOnUse">
<stop offset="0.0583" stop-color="#335987"/>
<stop offset="0.7451" stop-color="#335A88"/>
<stop offset="1" stop-color="#4172AA"/>
</linearGradient>
<linearGradient id="paint1_linear" x1="52.1137" y1="50.561" x2="52.1137" y2="27.1927" gradientUnits="userSpaceOnUse">
<stop offset="0.0583" stop-color="#335987"/>
<stop offset="0.4976" stop-color="#335A88"/>
<stop offset="1" stop-color="#4172AA"/>
</linearGradient>
</defs>
</svg>
