<svg width="200" height="200" viewBox="0 0 200 200" fill="none" xmlns="http://www.w3.org/2000/svg">
<path d="M164.481 60.7555L163.666 61.3855L181.528 78.1633L182.343 77.5333L164.481 60.7555Z" fill="#98A1AD"/>
<path d="M134.031 113.258L124.112 112.99C122.251 109.498 119.86 106.241 117 103.301L121.043 95.5831L102.928 84.598L95.6972 90.3809C92.9199 89.4929 90.0539 88.8219 87.133 88.3639L90.481 83.0691C88.1439 81.8173 85.7017 80.7429 83.185 79.846L82.6472 71.4881L61.5352 68.8884L58.2403 76.7713C56.2221 76.9598 54.2085 77.2517 52.2162 77.6495L55.761 91.9685C52.0668 93.4886 48.6122 95.373 45.4753 97.5923L36.419 94.1468L23.5303 109.586L30.3156 115.749C28.7425 119.323 27.7364 123.066 27.3221 126.887L18.0498 129.912L21.7435 148.596L31.6656 148.864C33.5276 152.359 35.918 155.615 38.7769 158.551L34.7341 166.269L52.8495 177.257L60.08 171.474C62.0522 172.103 64.0834 172.629 66.1222 173.04L66.6821 173.152L71.3722 152.04L70.888 151.923C68.0878 151.247 65.4487 150.165 63.0445 148.707C51.5437 141.729 48.8449 128.078 57.0285 118.276C60.993 113.527 66.8907 110.379 73.6348 109.41C80.3808 108.442 87.1615 109.769 92.7332 113.148C100.804 118.043 104.863 126.574 103.075 134.883L102.982 135.317L127.442 140.453L127.56 139.98C127.973 138.328 128.273 136.643 128.455 134.965L137.724 131.943L134.031 113.258ZM73.4522 108.485C69.904 108.995 66.5817 110.084 63.6286 111.673L52.2373 94.6583C53.4585 94.0323 54.7092 93.4457 55.9942 92.9095L57.1921 97.7475C64.6575 96.1012 72.691 97.3519 79.0056 101.219L86.584 89.2333C87.8124 89.418 89.0311 89.641 90.2371 89.9041L86.0215 109.244C82.0108 108.147 77.7249 107.871 73.4522 108.485Z" fill="url(#paint0_linear)"/>
<path d="M101.781 139.417C97.8422 147.782 88.4635 153.188 77.8867 153.188V154.125C88.9152 154.125 98.6948 148.489 102.801 139.766L101.781 139.417Z" fill="url(#paint1_linear)"/>
<path d="M77.8877 159.585V160.523C85.9405 160.523 93.5273 158.276 99.8274 154.025L99.1445 153.29C93.0406 157.408 85.6902 159.585 77.8877 159.585Z" fill="url(#paint2_linear)"/>
<path d="M102.296 161.228L102.911 162.005C109.943 157.956 115.461 152.328 118.869 145.729L117.863 145.351C114.538 151.788 109.155 157.278 102.296 161.228Z" fill="url(#paint3_linear)"/>
<path d="M125.346 65.2482C126.034 63.7163 126.453 62.1291 126.613 60.5343L130.347 59.3168L129.625 55.6674L128.903 52.0179L124.908 51.9099C124.144 50.4481 123.138 49.0653 121.899 47.8103L123.527 44.7022L119.989 42.5564L116.451 40.4108L113.539 42.74C111.742 42.1534 109.88 41.7966 108.008 41.6597L106.58 38.478L102.298 39.0928L98.0162 39.7077L97.8894 43.1127C96.1741 43.7646 94.5522 44.6219 93.0792 45.6779L89.4324 44.2904L86.9148 47.3056L84.3973 50.3208L87.1305 52.8027C86.4422 54.3346 86.0235 55.9218 85.8627 57.5165L82.1299 58.7341L82.8511 62.3835L83.5727 66.0329L87.5677 66.141C88.3326 67.603 89.3382 68.9856 90.5775 70.2406L88.9495 73.3487L92.4872 75.4945L96.0249 77.6403L98.9369 75.3109C100.734 75.8975 102.597 76.2543 104.468 76.3911L105.897 79.5729L110.178 78.9581L114.46 78.3434L114.587 74.9384C116.302 74.2865 117.924 73.4294 119.397 72.3732L123.044 73.7607L125.561 70.7455L128.079 67.7303L125.346 65.2482ZM100.065 66.4184C95.2745 63.5127 94.1546 57.8472 97.5637 53.7641C100.973 49.6811 107.62 48.7265 112.411 51.6321C117.202 54.5377 118.322 60.2033 114.912 64.2864C111.503 68.3695 104.856 69.3242 100.065 66.4184Z" fill="url(#paint4_linear)"/>
<path d="M164.064 61.5934C165.5 61.5934 166.669 60.5974 166.669 59.3731H166.055C166.055 60.3089 165.162 61.0705 164.064 61.0705C162.966 61.0705 162.073 60.3089 162.073 59.3731C162.073 58.4372 162.966 57.6759 164.064 57.6759H164.371V0H163.757V57.1682C162.465 57.2981 161.459 58.2374 161.459 59.3731C161.459 60.5974 162.628 61.5934 164.064 61.5934Z" fill="#445568"/>
<path d="M163.359 57.0544H164.825V44.3625H163.359V57.0544Z" fill="#98A1AD"/>
<path d="M146.637 78.1625L145.822 77.5321L164.087 60.3948L164.83 61.0924L146.637 78.1625Z" fill="#98A1AD"/>
<path d="M194.185 94.5989C196.269 93.2657 198.211 91.8056 200 90.2373L183.261 75.4525C180.754 77.777 177.622 79.6836 173.97 80.9654C163.456 84.654 151.749 82.0771 144.557 75.2603L128.129 90.3267C129.863 91.8359 131.717 93.2239 133.673 94.4833L131.762 102.692L141.606 106.189L151.451 109.683L156.941 102.747C161.507 103.304 166.196 103.329 170.88 102.778L176.332 109.729L186.194 106.267L196.056 102.805L194.185 94.5989Z" fill="#8DC6C6"/>
<path d="M149.91 172.123H183.372L172.826 199.726L173.812 200L184.801 171.239H149.157L138.273 199.726L139.26 200L149.91 172.123Z" fill="#EAB75D"/>
<path d="M161.299 199.726L150.753 172.123H184.215L194.865 200L195.851 199.726L184.968 171.239H149.324L160.313 200L161.299 199.726Z" fill="#EAB75D"/>
<path d="M187.753 179.93H146.797V180.814H187.753V179.93Z" fill="#EAB75D"/>
<path d="M191.579 189.529H142.578V190.413H191.579V189.529Z" fill="#EAB75D"/>
<path d="M166.785 123.018C166.785 123.018 166.139 122.054 167.163 119.472C168.155 116.974 171.585 117.2 172.676 118.801C173.766 120.401 173.398 121.395 171.793 123.202C170.188 125.009 167.451 123.844 166.785 123.018Z" fill="#DAA585"/>
<path d="M174.753 167.457C174.753 167.457 174.923 168.518 174.944 168.677C174.965 168.836 176.832 168.583 176.832 168.583L176.984 167.32C176.984 167.32 174.986 167.307 174.753 167.457Z" fill="#DAA585"/>
<path d="M174.924 168.542C174.924 168.542 174.333 169.181 173.76 169.46C173.188 169.738 172.289 169.849 171.95 170.137C171.706 170.345 171.061 171.241 173.437 171.223C175.814 171.205 176.96 171.35 177.215 171.006C177.469 170.663 176.846 168.47 176.846 168.47C176.846 168.47 176.264 168.61 174.924 168.542Z" fill="#E5E5E6"/>
<path d="M161.824 167.457C161.824 167.457 161.994 168.518 162.015 168.677C162.036 168.836 163.904 168.583 163.904 168.583L164.055 167.32C164.055 167.32 162.057 167.307 161.824 167.457Z" fill="#DAA585"/>
<path d="M161.995 168.542C161.995 168.542 161.404 169.181 160.831 169.46C160.259 169.738 158.153 169.967 157.815 170.256C157.571 170.464 157.165 171.302 160.509 171.223C162.885 171.168 164.031 171.35 164.286 171.006C164.54 170.663 163.918 168.47 163.918 168.47C163.918 168.47 163.179 168.582 161.995 168.542Z" fill="#E5E5E6"/>
<path d="M174.125 141.043C174.125 141.043 175.082 143.579 174.956 145.764C174.83 147.95 175.451 150.341 175.705 152.624C175.988 155.168 177.147 161.193 177.189 162.555C177.231 163.916 177.009 168.263 177.009 168.263L174.69 168.31C174.69 168.31 172.743 157.778 172.238 156.703C171.734 155.628 169.233 147.967 169.149 147.107C169.064 146.247 174.125 141.043 174.125 141.043Z" fill="#424243"/>
<path d="M164.51 140.78C164.51 140.78 163.103 147.485 162.935 148.822C162.766 150.16 162.654 155.295 162.57 156.131C162.486 156.967 162.01 167.069 161.562 168.311H164.147C164.147 168.311 166.802 160.967 166.802 157.492C166.802 154.017 168.56 149.938 169.695 147.645C170.829 145.352 173.427 145.298 174.125 141.044C174.125 141.044 165.455 139.431 164.51 140.78Z" fill="#424243"/>
<path d="M167.723 123.7C167.723 123.7 168.015 124.423 167.723 124.94C167.431 125.456 171.45 125.146 171.45 125.146C171.45 125.146 171.268 124.079 171.793 123.202C172.318 122.323 167.723 123.7 167.723 123.7Z" fill="#DAA585"/>
<path d="M174.311 141.596C174.311 141.596 172.866 142.862 164.381 141.399L164.51 140.78L174.156 141.089L174.311 141.596Z" fill="url(#paint5_linear)"/>
<path d="M167.114 125.108C167.114 125.108 165.63 125.237 165.206 125.305C164.782 125.374 161.928 124.87 161.343 124.819C160.757 124.767 158.26 123.309 158.179 123.137C158.099 122.965 156.66 119.861 156.58 119.19C156.499 118.519 155.179 118.865 155.292 119.328C155.504 120.193 155.776 122.293 155.925 122.902C156.085 123.559 156.517 125.048 156.759 125.231C157.002 125.414 159.249 126.871 161.45 127.491C163.651 128.111 165.308 129.023 165.308 129.023H176.155C176.155 129.023 180.373 123.883 180.464 123.108C180.555 122.334 177.518 117.187 176.912 116.542C176.306 115.896 175.43 116.752 175.43 116.752C175.43 116.752 177.245 121.291 177.487 121.936C177.729 122.582 175.376 125.417 174.73 125.426C174.084 125.434 172.424 125.254 171.687 125.228C170.95 125.202 170.173 124.927 170.173 124.927L167.114 125.108Z" fill="#DAA585"/>
<path d="M162.44 128.54C162.44 128.54 163.768 129.293 163.889 130.583C164.01 131.874 164.495 133.913 164.737 134.61C164.979 135.307 164.525 140.367 164.464 140.728C164.404 141.089 172.857 141.948 174.156 141.089C174.156 141.089 174.519 136.365 174.671 135.023C174.822 133.681 175.549 130.429 175.791 129.99C176.034 129.551 178.971 126.039 179.092 125.576C179.092 125.576 177.573 123.511 176.482 123.485C176.482 123.485 174.751 125.214 174.186 125.292C173.621 125.369 170.16 124.829 170.16 124.824C170.16 124.824 169.782 125.263 167.774 124.746C167.774 124.746 165.383 124.976 164.994 125.019C164.523 125.07 161.248 124.668 161.248 124.668C161.248 124.668 159.935 126.559 160.165 127.514L162.44 128.54Z" fill="#4071AB"/>
<path d="M156.656 119.593C156.656 119.593 156.359 118.397 156.716 118.053C156.92 117.858 157.408 117.34 157.453 117.264C157.498 117.188 158.022 116.931 158.022 116.808C158.022 116.684 157.508 116.532 157.062 116.884C156.616 117.236 156.337 117.312 156.159 117.274C155.98 117.236 155.724 115.971 155.701 115.657C155.679 115.344 155.537 114.516 155.307 114.573C155.076 114.63 155.088 114.992 155.088 114.992C155.088 114.992 154.82 114.364 154.641 114.488C154.463 114.611 154.485 114.915 154.485 114.915C154.485 114.915 154.15 114.564 154.061 114.82C153.972 115.077 154.061 115.305 154.061 115.305C154.061 115.305 153.715 115.144 153.693 115.543C153.671 115.943 153.793 117.112 154.039 117.531C154.284 117.949 155.203 119.043 155.313 119.471C155.422 119.898 156.656 119.593 156.656 119.593Z" fill="#DAA585"/>
<path d="M175.726 117.493C175.726 117.493 174.717 116.047 174.373 115.918C174.03 115.789 173.545 115.716 173.121 115.457C172.697 115.199 172.137 114.984 172.167 114.898C172.197 114.812 172.697 114.847 173.232 115.044C173.767 115.242 174.002 115.147 174.053 115.043C174.103 114.94 173.767 114.211 173.606 114.039C173.444 113.867 172.293 112.88 172.485 112.734C172.677 112.588 173.424 113.13 173.545 113.241C173.545 113.241 172.95 112.174 173.182 112.123C173.414 112.071 173.848 112.45 173.848 112.45C173.848 112.45 173.798 111.538 174.949 113.018C174.949 113.018 174.706 112.527 175.06 112.691C175.413 112.854 175.756 113.775 175.867 114.24C175.979 114.704 176.482 116.184 176.912 116.541C177.342 116.899 175.726 117.493 175.726 117.493Z" fill="#DAA585"/>
<path d="M171.792 123.202C171.792 123.202 171.26 123.242 170.13 122.909C168.999 122.576 168.915 120.891 168.67 121.09C168.171 121.498 167.7 121.217 167.511 120.976C167.511 120.976 168.063 120.356 167.808 120.058C167.552 119.76 167.136 119.542 167.136 119.542C167.136 119.542 167.931 116.275 171.55 117.763C175.79 119.507 171.792 123.202 171.792 123.202Z" fill="#4274AD"/>
<path d="M167.723 124.94L167.85 124.467C167.85 124.467 170.16 124.427 171.42 124.583L171.553 125.148C171.553 125.147 169.939 125.771 167.723 124.94Z" fill="#4071AB"/>
<path d="M168.293 120.677C168.502 120.38 169.278 120.18 169.369 121.022C169.44 121.674 167.983 122.387 167.969 121.779C167.956 121.171 168.153 120.875 168.293 120.677Z" fill="#DAA585"/>
<path d="M10.386 70.0884C10.386 70.0884 9.2908 68.3748 8.6676 67.7579C8.0444 67.1412 5.97436 66.6787 6.2556 65.8907C6.53709 65.1028 9.31061 65.4453 10.0743 66.2162C10.838 66.987 13.1695 67.2612 13.2497 67.5866C13.33 67.912 12.4403 69.6935 11.9406 69.9849C11.4411 70.2759 10.386 70.0884 10.386 70.0884Z" fill="#E5E5E6"/>
<path d="M5.7301 71.5397C5.7301 71.5397 3.94587 70.3341 3.08665 69.9789C2.22769 69.6238 0.112174 69.8999 0.00318455 69.0816C-0.105551 68.2632 2.59938 67.6389 3.65955 68.088C4.71972 68.5368 6.98717 67.9994 7.21252 68.2709C7.43786 68.5425 7.45107 70.4787 7.12842 70.915C6.80552 71.3513 5.7301 71.5397 5.7301 71.5397Z" fill="#E5E5E6"/>
<path d="M9.69263 74.6788C9.69263 74.6788 10.4716 70.139 10.4362 69.3515C10.4261 69.1267 12.0391 69.2101 11.9636 69.6427C11.7995 70.5844 12.5439 74.2336 12.4146 74.9016C12.2855 75.5696 9.62632 75.0995 9.69263 74.6788Z" fill="#DAA585"/>
<path d="M7.25194 75.9832C7.25194 75.9832 5.79239 71.575 5.45221 70.8421C5.30079 70.5157 6.78828 70.0104 6.98975 70.5924C7.3063 71.5055 9.6614 74.6095 9.85372 75.2664C10.0465 75.9234 7.38709 76.392 7.25194 75.9832Z" fill="#DAA585"/>
<path d="M8.26591 79.047C8.26591 79.047 6.69813 74.5417 6.45703 74.062L8.92924 72.7603C8.92924 72.7603 10.0748 75.6382 10.2356 76.3575C10.3962 77.077 8.26591 79.047 8.26591 79.047Z" fill="#424243"/>
<path d="M52.0247 67.1433C52.0247 67.1433 49.6374 67.6578 48.5015 69.1965C47.3659 70.7351 46.3842 72.5072 44.2499 73.3112C42.1156 74.1152 42.1019 76.1867 42.268 76.5063C42.4342 76.8257 48.9906 83.1073 50.4211 83.3503C51.8517 83.593 54.5302 83.4241 54.2439 81.8101C53.9573 80.196 51.1503 76.724 52.7259 74.9722C54.3016 73.2207 54.6987 71.6071 54.6987 71.6071L52.0247 67.1433Z" fill="#325987"/>
<path d="M51.6091 74.6563C51.6091 74.6563 51.5389 74.6366 51.4223 74.6275C51.2869 74.6167 51.0888 74.62 50.8642 74.6845C50.8083 74.7005 50.7333 74.733 50.6457 74.777C50.0784 75.0617 48.7359 75.8354 48.5546 75.8538C48.345 75.875 48.522 73.206 48.522 73.206C48.522 73.206 49.2367 72.1283 49.3266 71.4188C49.4166 70.7096 51.6091 74.6563 51.6091 74.6563Z" fill="#DAA585"/>
<path d="M34.8154 77.4445C34.8154 77.4445 32.1925 75.8772 29.1174 76.3653C26.0424 76.8535 25.7106 78.0787 24.6557 78.1341C23.6006 78.1895 20.0731 77.9325 17.1789 78.652C14.2847 79.3716 11.8427 79.4487 11.5112 79.243C11.1796 79.0375 13.32 74.9262 13.32 74.3608L9.73226 73.5642C9.73226 73.5642 8.70715 77.2128 8.30524 78.0351C7.87537 78.9147 7.04893 80.5703 8.22496 82.0094C9.40072 83.4482 12.6869 82.7999 14.6767 83.0899C16.6665 83.3798 25.5724 83.194 27.1277 83.1228C28.8159 83.0457 33.911 82.8402 33.911 82.8402L34.8154 77.4445Z" fill="#424243"/>
<path d="M56.3584 69.321C56.3584 69.321 56.5255 71.5294 55.9504 72.1918C55.7202 72.4566 55.5639 72.6008 55.4593 72.6786C55.3117 72.7881 55.1973 72.9263 55.1315 73.0833C54.9537 73.5081 54.8444 74.1059 54.7029 74.2337C54.5487 74.3729 54.1011 74.0189 53.939 74.018C53.7769 74.0174 52.1987 75.1782 51.8214 74.9407C51.4442 74.7029 49.1414 72.7117 49.3347 71.3462C49.5283 69.981 50.2349 67.9426 52.8275 67.9551C55.4199 67.9673 56.1599 68.7719 56.3584 69.321Z" fill="#DAA585"/>
<path d="M48.5227 79.8609C48.4731 79.9514 47.5197 81.2488 46.4755 82.0017C46.0418 82.3144 45.5929 82.5331 45.1864 82.5331C45.0622 82.5331 44.9412 82.5346 44.8234 82.5372C43.625 82.5647 42.7043 82.7212 41.0862 82.7899C39.4054 82.8613 35.3281 82.6615 35.2074 82.6615C35.0867 82.6615 33.9109 82.8414 33.9109 82.8414C33.4889 82.4044 34.6042 77.4712 34.8154 77.4455C35.0265 77.4199 36.3831 77.8566 37.6793 77.6767C38.9758 77.4968 39.4882 77.3939 41.4178 75.4668C43.3473 73.5397 45.2766 73.0514 46.0906 73.2058C46.9046 73.3599 48.5227 73.2058 48.5227 73.2058C48.5227 73.2058 48.593 79.7325 48.5227 79.8609Z" fill="#4071AB"/>
<path d="M55.2681 70.9024C55.2681 70.9024 55.751 71.9695 56.0071 72.1163C56.0071 72.1163 56.9395 71.2759 56.3407 69.2018C55.7416 67.1279 53.4831 66.9328 52.0248 67.1434C50.2093 67.4057 48.3819 72.6403 48.4762 73.1502C48.5704 73.6602 50.6044 70.4449 52.3863 70.7037C54.1683 70.9624 54.1825 71.0471 55.2681 70.9024Z" fill="#325987"/>
<path d="M51.4215 74.6268C51.2861 74.6159 51.0879 74.6192 50.8634 74.6837C50.8075 74.6997 50.7325 74.7322 50.6449 74.7762C50.228 74.2221 49.8418 72.9082 49.8291 72.8638C50.1068 73.5833 51.4215 74.6268 51.4215 74.6268Z" fill="#977761"/>
<path d="M46.4754 82.0012C46.0417 82.3138 45.5928 82.5325 45.1863 82.5325C45.0621 82.5325 44.9411 82.534 44.8232 82.5366L45.3166 78.447L46.4754 82.0012Z" fill="#4071AB"/>
<path d="M55.8559 89.0439L54.6987 89.941C53.7003 89.4852 51.1983 87.9504 50.7169 87.6009C50.2121 87.2343 46.8461 84.8347 46.384 84.288C45.9175 83.741 45.3271 78.0887 45.387 77.8297C45.447 77.5744 48.3135 77.4432 48.6387 78.0411C48.6387 78.0411 48.7883 81.2648 48.8656 81.8044C48.9382 82.344 49.1809 82.8316 49.615 83.2857C50.2159 83.914 51.4958 85.373 52.7349 86.5525C53.0303 86.8337 55.4738 88.7635 55.8559 89.0439Z" fill="#DAA585"/>
<path d="M48.8745 78.1132C48.8745 78.1132 49.0554 73.8203 47.4173 73.8735C45.3462 73.9407 45.0355 76.1003 45.317 78.4473C45.317 78.4471 48.4122 78.4729 48.8745 78.1132Z" fill="#4071AB"/>
<path d="M55.2986 88.6233C55.2986 88.6233 55.4529 88.8301 55.6762 88.8944C56.0616 89.0052 56.6319 88.7915 56.9132 89.222C57.1944 89.6525 55.8365 90.7278 55.4719 90.7929C55.1073 90.8581 54.5225 90.3744 54.0657 89.4197C53.6087 88.4654 55.2986 88.6233 55.2986 88.6233Z" fill="#DAA585"/>
<path d="M56.7933 89.0884C56.7933 89.0884 57.4861 89.5377 58.1862 90.1147C58.8008 90.6208 59.4255 91.2855 59.268 91.4109C59.0526 91.5824 58.6336 91.0116 57.985 90.543C57.388 90.1115 57.4218 90.278 57.4218 90.278C57.4218 90.278 57.4154 90.2301 57.9599 90.8037C58.5452 91.4202 59.1501 92.1523 58.9695 92.258C58.8564 92.3242 58.8511 92.342 58.5955 92.146C58.7142 92.2842 58.6865 92.3296 58.6235 92.3749C58.2967 92.6081 57.2709 91.8102 56.8636 91.493C57.1746 91.7381 57.3725 91.9451 57.0567 91.9767C56.6954 92.0128 55.3042 90.8312 54.7585 90.4469C54.1635 90.0277 56.7933 89.0884 56.7933 89.0884Z" fill="#DAA585"/>
<path d="M35.9947 77.6411C35.9947 77.6411 35.4416 81.0195 35.7142 82.6813C35.7142 82.6813 36.0025 82.8639 36.5762 82.7162C36.5762 82.7162 36.7195 79.0285 37.0406 77.7193C37.0406 77.7193 36.8643 77.6056 35.9947 77.6411Z" fill="#445568"/>
<path d="M36.5538 0H36.126V80.1965H36.5538V0Z" fill="#445568"/>
<path d="M14.8832 158.969C15.4901 162.202 23.5821 161.305 23.5821 161.305L16.0857 150.94C16.0857 150.94 14.2765 155.735 14.8832 158.969Z" fill="#DAA585"/>
<path d="M31.2097 196.398C29.5543 196.441 28.3709 196.477 28.3709 196.477L23.8147 197.309L23.7402 199.159C24.3855 200.383 26.2018 199.91 26.2018 199.91L32.2381 198.189C33.1792 197.449 32.3395 196.368 31.2097 196.398Z" fill="#E5E5E6"/>
<path d="M24.7067 193.817C23.1288 193.858 21.5246 193.905 21.5246 193.905L17.3612 194.739L17.2959 196.542C17.911 197.708 19.933 197.164 19.933 197.164L25.6876 195.524C26.6731 195.153 25.7839 193.788 24.7067 193.817Z" fill="#E5E5E6"/>
<path d="M27.4587 166.151C26.6917 167.002 18.1255 164.565 16.8775 164.001C16.8775 164.001 15.8197 167.962 15.7615 169.229C15.6901 170.773 16.2137 173.166 16.5501 175.741C16.9548 178.838 17.5376 183.588 17.5376 183.588L17.2391 194.851C17.2391 194.851 18.1107 195.597 19.9714 195.298C20.6569 195.188 21.3687 194.843 21.3827 194.248L22.5879 184.041L21.7564 176.488L23.8735 185.96L23.7998 197.69C23.7998 197.69 25.1382 198.262 26.7926 197.834C27.7846 197.578 27.977 196.998 27.9843 196.548L28.4368 186.449L27.2079 170.378L27.4587 166.151Z" fill="url(#paint6_linear)"/>
<path opacity="0.1" d="M20.3574 175.039C20.6251 175.88 20.9468 177.532 20.9927 178.413C21.2844 183.998 20.666 189.91 18.3539 195.162C18.3335 195.208 18.3048 195.243 18.2822 195.286C18.7088 195.374 19.2692 195.41 19.9707 195.298C20.6561 195.188 21.368 194.842 21.382 194.247L22.5872 184.04L21.6485 175.553C21.4645 175.113 20.588 175.082 20.3574 175.039Z" fill="#778DAC"/>
<path opacity="0.1" d="M22.9918 182.018C22.845 180.526 22.5427 179.079 22.0312 177.72L22.9918 182.018Z" fill="#778DAC"/>
<path opacity="0.1" d="M25.5332 197.989C25.9168 197.989 26.3403 197.95 26.7918 197.834C27.7839 197.577 27.9762 196.997 27.9836 196.548L28.436 186.448L27.1345 169.096C26.1455 169.336 27.6353 190.159 25.5332 197.989Z" fill="#778DAC"/>
<path d="M15.6855 150.688C15.7801 150.456 16.0943 150.253 16.5054 150.169C19.7489 149.512 20.9704 151.698 20.9572 152.146C20.9498 152.389 20.4803 154.581 20.0223 156.667C18.1829 156.801 16.3801 156.788 14.7285 156.421C14.7661 155.577 14.8263 154.723 14.9211 153.979C15.1452 152.216 15.4853 151.181 15.6855 150.688Z" fill="#4274AD"/>
<path d="M24.4947 150.422C22.572 149.079 17.9386 149.958 17.9386 149.958C17.9386 149.958 16.5484 149.782 15.8561 151.543C15.2149 153.173 16.1007 161.736 15.9458 163.211C15.7913 164.687 15.754 168.924 15.754 168.924C15.754 168.924 17.4833 169.974 24.1746 169.982C26.7449 169.984 27.3592 169.171 27.3592 169.171L27.8701 160.07L28.6386 154.071C28.6381 154.071 26.7876 152.023 24.4947 150.422Z" fill="url(#paint7_linear)"/>
<path opacity="0.07" d="M27.0986 156.032C25.6873 157.432 26.154 160.799 25.839 162.532C25.3349 165.305 24.0692 167.729 21.6979 169.72C21.6156 169.79 21.5246 169.846 21.4385 169.909C22.2451 169.952 23.1447 169.98 24.1747 169.981C26.7449 169.984 27.359 169.17 27.359 169.17L27.8699 160.07L28.6384 154.071C28.6384 154.071 28.551 153.975 28.3983 153.815C28.2182 154.572 27.8102 155.327 27.0986 156.032Z" fill="#222220"/>
<path d="M20.1846 150.399C20.4048 151.508 24.9204 151.281 24.7004 150.173L24.9296 146.62L20.5697 147.249L20.1846 150.399Z" fill="#DAA585"/>
<path d="M19.5879 146.843C19.7393 148.542 23.384 149.254 23.384 149.254C25.3069 149.13 26.6438 148.286 26.4898 146.557L26.5734 142.528L18.9062 143.725L19.5879 146.843Z" fill="#DAA585"/>
<path d="M24.2365 140.172C23.0854 139.829 19.1633 139.97 18.6577 142.379C17.8292 146.333 20.3807 148.455 20.3807 148.455C20.3807 148.455 21.9873 149.344 22.8194 148.693C23.9636 147.798 25.4821 146.366 25.3645 145.043C25.2469 143.719 26.213 143.448 26.213 143.448C28.4886 141.866 25.8716 140.66 24.2365 140.172Z" fill="url(#paint8_linear)"/>
<path d="M24.5693 145.122C24.5258 145.874 24.853 146.498 25.5352 146.177L25.4069 144.738C25.4069 144.738 24.6284 144.102 24.5693 145.122Z" fill="#DAA585"/>
<path d="M41.451 161.51L40.0865 162.071L40.0664 163.669L43.003 162.994L44.0759 161.983L42.5953 162.604L41.451 161.51Z" fill="#E6B296"/>
<path d="M41.5131 160.836C41.5131 160.836 41.0728 160.967 40.9435 161.039C40.0131 161.554 40.0863 162.071 40.0863 162.071C40.0863 162.071 40.4953 162.716 41.4509 161.51L42.4938 160.735C42.4935 160.735 42.2549 160.375 41.5131 160.836Z" fill="#E6B296"/>
<path d="M32.1665 160.015L28.4022 153.818C24.4351 151.418 25.4305 157.04 25.4305 157.04C25.4305 157.04 29.443 162.828 30.4552 163.269C31.4785 163.716 40.3463 163.861 40.3463 163.861L40.0859 162.07C36.3365 161.435 32.1665 160.015 32.1665 160.015Z" fill="#DAA585"/>
<path d="M28.5703 153.406C28.4049 153.205 28.0373 153.082 27.6153 153.098C24.2843 153.222 23.8108 155.609 23.9673 156.037C24.0526 156.269 25.2073 158.268 26.317 160.167C28.1292 159.868 29.8593 159.435 31.3303 158.697C31.0234 157.895 30.6916 157.087 30.3619 156.394C29.5801 154.75 28.9209 153.833 28.5703 153.406Z" fill="#4274AD"/>
<defs>
<linearGradient id="paint0_linear" x1="18.05" y1="123.072" x2="137.725" y2="123.072" gradientUnits="userSpaceOnUse">
<stop stop-color="#523B7D"/>
<stop offset="1" stop-color="#6F599F"/>
</linearGradient>
<linearGradient id="paint1_linear" x1="77.8869" y1="146.771" x2="102.801" y2="146.771" gradientUnits="userSpaceOnUse">
<stop stop-color="#523B7D"/>
<stop offset="1" stop-color="#6F599F"/>
</linearGradient>
<linearGradient id="paint2_linear" x1="77.8876" y1="156.906" x2="99.8273" y2="156.906" gradientUnits="userSpaceOnUse">
<stop stop-color="#523B7D"/>
<stop offset="1" stop-color="#6F599F"/>
</linearGradient>
<linearGradient id="paint3_linear" x1="102.296" y1="153.678" x2="118.869" y2="153.678" gradientUnits="userSpaceOnUse">
<stop stop-color="#523B7D"/>
<stop offset="1" stop-color="#6F599F"/>
</linearGradient>
<linearGradient id="paint4_linear" x1="82.1299" y1="59.0254" x2="130.346" y2="59.0254" gradientUnits="userSpaceOnUse">
<stop stop-color="#5BA0A8"/>
<stop offset="1" stop-color="#75BCBA"/>
</linearGradient>
<linearGradient id="paint5_linear" x1="164.381" y1="141.442" x2="174.311" y2="141.442" gradientUnits="userSpaceOnUse">
<stop offset="0.0583" stop-color="#335987"/>
<stop offset="0.5413" stop-color="#4172AA"/>
</linearGradient>
<linearGradient id="paint6_linear" x1="22.096" y1="197.993" x2="22.096" y2="164.001" gradientUnits="userSpaceOnUse">
<stop stop-color="#39383B"/>
<stop offset="0.333" stop-color="#3F3E40"/>
<stop offset="0.9442" stop-color="#444345"/>
</linearGradient>
<linearGradient id="paint7_linear" x1="22.1291" y1="169.982" x2="22.1291" y2="149.676" gradientUnits="userSpaceOnUse">
<stop offset="0.0583" stop-color="#335987"/>
<stop offset="0.5413" stop-color="#4172AA"/>
</linearGradient>
<linearGradient id="paint8_linear" x1="22.7976" y1="148.932" x2="22.7976" y2="140.033" gradientUnits="userSpaceOnUse">
<stop offset="0.0583" stop-color="#335987"/>
<stop offset="0.5413" stop-color="#4172AA"/>
</linearGradient>
</defs>
</svg>
